<svg xmlns="http://www.w3.org/2000/svg" viewBox="0 0 500 500"><g id="freepik--background-complete--inject-21"><g><g><g><path d="M443.92,330.198h-180.746c-3.232,0-5.862-2.63-5.862-5.862V61.062c0-3.232,2.63-5.862,5.862-5.862h180.746c3.232,0,5.862,2.629,5.862,5.862V324.335c0,3.233-2.63,5.862-5.862,5.862ZM263.174,55.45c-3.095,0-5.612,2.518-5.612,5.612V324.335c0,3.095,2.518,5.612,5.612,5.612h180.746c3.095,0,5.612-2.517,5.612-5.612V61.062c0-3.094-2.518-5.612-5.612-5.612h-180.746Z" style="fill:#e0e0e0;"></path><path d="M235.493,330.198H54.746c-3.232,0-5.862-2.63-5.862-5.862V61.062c0-3.232,2.629-5.862,5.862-5.862H235.493c3.232,0,5.862,2.629,5.862,5.862V324.335c0,3.233-2.63,5.862-5.862,5.862ZM54.746,55.45c-3.094,0-5.612,2.518-5.612,5.612V324.335c0,3.095,2.518,5.612,5.612,5.612H235.493c3.095,0,5.612-2.517,5.612-5.612V61.062c0-3.094-2.518-5.612-5.612-5.612H54.746Z" style="fill:#e0e0e0;"></path></g><rect x="0" y="391.267" width="500" height=".25" style="fill:#e0e0e0;"></rect></g><rect x="51.672" y="405.531" width="16.06" height=".25" style="fill:#e0e0e0;"></rect><rect x="170.352" y="402.821" width="53.53" height=".25" style="fill:#e0e0e0;"></rect><rect x="68.732" y="414.821" width="36.25" height=".25" style="fill:#e0e0e0;"></rect><rect x="378.352" y="402.691" width="43.19" height=".25" style="fill:#e0e0e0;"></rect><rect x="430.452" y="402.691" width="6.33" height=".25" style="fill:#e0e0e0;"></rect><rect x="316.212" y="408.921" width="53.89" height=".25" style="fill:#e0e0e0;"></rect></g><g><g><path d="M128.433,110.144c-7.407-2.972-11.769-12.152-12.435-20.105-.667-7.953,2.607-15.944,7.912-21.906s12.491-10.028,20.048-12.597c11.175-3.799,24.053-4.324,34.338,1.468,7.726,4.351,13.425,12.146,15.226,20.828,.686,3.306,.78,6.939-.915,9.859-2.275,3.918-7.219,5.538-11.749,5.455-4.53-.083-8.914-1.519-13.388-2.232s-9.406-.594-13.078,2.06c0,0-4.313,2.152-12.849,13.368-4.823,6.337-13.108,3.801-13.108,3.801Z" style="fill:#ebebeb;"></path><g><path d="M154.056,62.996c3.734,6.819,6.041,14.472,6.683,22.221-2.014-7.523-4.207-14.837-6.683-22.221h0Z" style="fill:#fff; opacity:.3;"></path><path d="M167.026,67.425c-.116,6.146-.906,12.215-2.385,18.182,.11-6.147,.911-12.214,2.385-18.182h0Z" style="fill:#fff; opacity:.3;"></path><path d="M175.773,72.813c-.793,4.859-2.238,9.53-4.344,13.981,.787-4.861,2.243-9.528,4.344-13.981h0Z" style="fill:#fff; opacity:.3;"></path><path d="M184.895,81.24c-2.656,2.849-4.959,5.609-7.299,8.723,1.065-3.729,3.82-7.013,7.299-8.723h0Z" style="fill:#fff; opacity:.3;"></path><path d="M138.044,69.678c5.256,5.998,9.97,12.404,14.119,19.215-5.261-5.994-9.966-12.407-14.119-19.215h0Z" style="fill:#fff; opacity:.3;"></path><path d="M146.372,68.039c3.334,5.2,6.065,10.711,8.167,16.521-3.339-5.198-6.06-10.713-8.167-16.521h0Z" style="fill:#fff; opacity:.3;"></path><path d="M133.137,82.171c4.735,4.202,8.974,8.869,12.691,13.994-4.739-4.198-8.97-8.872-12.691-13.994h0Z" style="fill:#fff; opacity:.3;"></path><path d="M128.672,88.44c4.408,2.774,8.391,6.079,11.919,9.91-4.411-2.77-8.387-6.083-11.919-9.91h0Z" style="fill:#fff; opacity:.3;"></path><path d="M126.089,99.273c2.129,.743,3.873,2.045,5.176,3.887-2.132-.738-3.869-2.049-5.176-3.887h0Z" style="fill:#fff; opacity:.3;"></path></g><path d="M193.52,77.833c-1.801-8.682-7.5-16.478-15.226-20.828-10.285-5.792-23.162-5.267-34.338-1.468-7.556,2.569-14.742,6.634-20.048,12.597-5.305,5.962-8.579,13.953-7.912,21.906,.412,4.918,2.239,10.303,5.323,14.401-1.92-12.354-3.325-26.823,14.735-38.972,21.653-14.566,47.277-7.131,54.42,11.874,3.25,8.647-2.158,12.864-6.35,15.563,3.467-.581,6.748-2.229,8.481-5.213,1.696-2.92,1.601-6.553,.915-9.859Z" style="fill:#e6e6e6;"></path></g><g style="opacity:.2;"><path d="M188.271,84.825c.753-2.084,.49-4.428-.291-6.502-2.163-5.741-7.763-9.325-13.012-12.501-2.217-1.341-4.657-2.733-7.228-2.41-2.571,.323-4.857,3.327-3.478,5.521-1.914-2.681-3.973-5.482-6.988-6.809-3.015-1.327-7.247-.481-8.459,2.582-.878,2.219,.062,4.706,1.062,6.872,2.302,4.99,5.602,11.43,8.613,16.027,3.747,.498,6.736,.985,10.764,1.879,3.52,.782,6.93,1.397,10.519,1.063,3.59-.334,7.272-2.331,8.497-5.722Z" style="fill:#fff;"></path></g><g style="opacity:.2;"><path d="M155.046,89.183c-3.341-4.821-6.683-9.642-10.024-14.463-.679-.979-1.369-1.972-2.263-2.743-.894-.771-2.032-1.308-3.14-1.197-1.432,.143-2.502,1.293-3.369,2.441-.8,1.059-1.562,2.264-1.56,3.656,.003,1.577,.977,3.02,1.93,4.313,2.754,3.739,5.704,7.327,8.831,10.739,.662,.723,1.4,1.478,2.32,1.665,.774,.158,1.539-.12,2.229-.45,1.671-.798,3.805-2.568,5.046-3.962Z" style="fill:#fff;"></path></g></g><g><g><path d="M368.313,260.89c-7.407-2.972-11.768-12.152-12.435-20.105-.667-7.953,2.607-15.944,7.912-21.906s12.491-10.028,20.048-12.597c11.175-3.799,24.053-4.323,34.338,1.468,7.726,4.351,13.425,12.147,15.226,20.828,.686,3.306,.78,6.939-.915,9.859-2.275,3.918-7.219,5.538-11.749,5.455-4.53-.083-8.914-1.519-13.388-2.232s-9.406-.594-13.078,2.06c0,0-4.313,2.152-12.849,13.368-4.823,6.337-13.109,3.801-13.109,3.801Z" style="fill:#ebebeb;"></path><g><path d="M393.936,213.743c3.734,6.819,6.041,14.472,6.683,22.221-2.014-7.523-4.207-14.837-6.683-22.221h0Z" style="fill:#fff; opacity:.3;"></path><path d="M406.906,218.172c-.116,6.146-.906,12.215-2.385,18.182,.11-6.147,.911-12.214,2.385-18.182h0Z" style="fill:#fff; opacity:.3;"></path><path d="M415.654,223.56c-.793,4.859-2.238,9.53-4.344,13.981,.787-4.861,2.243-9.528,4.344-13.981h0Z" style="fill:#fff; opacity:.3;"></path><path d="M424.775,231.986c-2.656,2.849-4.959,5.609-7.299,8.723,1.065-3.729,3.82-7.013,7.299-8.723h0Z" style="fill:#fff; opacity:.3;"></path><path d="M377.925,220.425c5.256,5.998,9.97,12.404,14.119,19.215-5.261-5.994-9.966-12.407-14.119-19.215h0Z" style="fill:#fff; opacity:.3;"></path><path d="M386.252,218.785c3.334,5.2,6.065,10.711,8.167,16.521-3.339-5.198-6.06-10.713-8.167-16.521h0Z" style="fill:#fff; opacity:.3;"></path><path d="M373.017,232.918c4.735,4.202,8.974,8.869,12.691,13.994-4.739-4.198-8.97-8.872-12.691-13.994h0Z" style="fill:#fff; opacity:.3;"></path><path d="M368.553,239.187c4.408,2.774,8.391,6.079,11.919,9.91-4.411-2.77-8.387-6.083-11.919-9.91h0Z" style="fill:#fff; opacity:.3;"></path><path d="M365.97,250.02c2.129,.743,3.873,2.045,5.176,3.887-2.132-.738-3.869-2.049-5.176-3.887h0Z" style="fill:#fff; opacity:.3;"></path></g><path d="M433.401,228.579c-1.801-8.682-7.5-16.478-15.226-20.829-10.285-5.791-23.162-5.267-34.338-1.468-7.556,2.569-14.742,6.635-20.048,12.597-5.305,5.962-8.579,13.953-7.912,21.906,.412,4.918,2.239,10.303,5.323,14.401-1.92-12.354-3.325-26.823,14.735-38.972,21.653-14.566,47.277-7.131,54.42,11.874,3.25,8.647-2.158,12.864-6.35,15.563,3.467-.581,6.748-2.229,8.481-5.213,1.696-2.92,1.601-6.553,.915-9.859Z" style="fill:#e6e6e6;"></path></g><g style="opacity:.2;"><path d="M428.152,235.572c.753-2.084,.49-4.428-.291-6.502-2.163-5.741-7.763-9.325-13.012-12.501-2.217-1.341-4.657-2.733-7.228-2.411-2.571,.323-4.857,3.327-3.478,5.521-1.914-2.681-3.973-5.482-6.988-6.809-3.015-1.327-7.247-.481-8.459,2.582-.878,2.219,.062,4.706,1.062,6.872,2.302,4.99,5.602,11.43,8.613,16.027,3.747,.498,6.736,.985,10.764,1.879,3.52,.781,6.93,1.397,10.519,1.063,3.59-.334,7.272-2.331,8.497-5.722Z" style="fill:#fff;"></path></g><g style="opacity:.2;"><path d="M394.927,239.929c-3.341-4.821-6.683-9.642-10.024-14.463-.679-.979-1.369-1.972-2.263-2.743-.894-.771-2.032-1.308-3.14-1.197-1.431,.143-2.502,1.293-3.369,2.441-.8,1.059-1.562,2.264-1.56,3.656,.003,1.577,.977,3.02,1.93,4.313,2.754,3.739,5.704,7.327,8.831,10.739,.662,.723,1.4,1.478,2.32,1.665,.774,.158,1.539-.12,2.229-.45,1.671-.798,3.805-2.568,5.046-3.962Z" style="fill:#fff;"></path></g></g><g><g><path d="M79.438,184.527c.014,.444-4.57-2.518-11.875,2.306-7.305,4.823-9.042,15.844-1.499,25.978,8.207,11.026,19.642,14.083,33.371,6.819,13.729-7.263,12.595-18.904,12.533-21.729-.166-7.509-6.046-21.893-16.436-22.816-11.432-1.015-16.201,6.056-16.094,9.443Z" style="fill:#ebebeb;"></path><path d="M84.967,181.753c-.494,2.183-1.677,4.276-3.653,5.328-1.331,.708-2.852,.967-4.35,1.141-1.43,.166-2.867,.263-4.306,.291,0,0,4.772-2.361,6.651-2.875,1.878-.515,2.401-3.282,3.644-4.107,1.243-.825,2.315-1.104,2.015,.222Z" style="fill:#e0e0e0;"></path><g style="opacity:.3;"><path d="M67.171,192.147c-3.056,2.569-4.083,5.771-3.556,9.728,.527,3.958,3.219,9.136,8.215,12.39-1.907-3.636-3.181-10.885-1.759-14.738,1.422-3.852,4.531-7.047,8.343-8.573-6.456,1.112-8.031,.546-11.244,1.192Z" style="fill:#fff;"></path></g><path d="M95.532,175.084c-1.757-.156-3.356-.12-4.805,.063,.267,.038,.536,.06,.79,.078,6.04,.43,11.606,4.293,14.579,9.568s3.449,11.783,1.785,17.605c-2.602,9.101-10.514,16.469-19.778,18.415-5.351,1.124-11.015,.408-16.012-1.798,7.449,5.67,16.707,6.241,27.344,.614,13.729-7.263,12.595-18.904,12.533-21.729-.166-7.509-6.046-21.893-16.436-22.816Z" style="fill:#e0e0e0;"></path><g style="opacity:.3;"><path d="M94.871,178.373c-2.267-1.47-5.562-1.07-7.412,.899l.039,.523c-.048,1.398-.097,2.796-.145,4.195-.011,.322-.016,.668,.165,.935,.328,.486,1.049,.441,1.62,.31,2.096-.482,4.088-1.405,5.811-2.691,.597-.446,1.199-.996,1.328-1.73,.172-.981-.571-1.899-1.407-2.44Z" style="fill:#fff;"></path></g></g><path d="M70.98,193.116c-.363-.291-.819-.454-1.282-.501-3.239-.328-3.718,2.073-4.557,4.627-.784,2.388-.267,6.591,.773,6.715,1.039,.124,1.964-5.01,4.813-8.582,.937-1.175,.882-1.756,.254-2.259Z" style="fill:#fff; opacity:.5;"></path><path d="M84.897,219.645s8.579-.498,15.137-7.726c6.558-7.229,5.539-10.833,5.539-10.833,0,0-3.924,10.466-20.676,18.559Z" style="fill:#e0e0e0;"></path></g><g><g><path d="M238.403,207.162c-.298,.329-1.546-4.984-10.153-6.576-8.607-1.592-17.503,5.141-19.099,17.673-1.736,13.635,4.38,23.768,19.307,28.059,14.927,4.291,22.185-4.881,24.1-6.959,5.089-5.524,10.831-19.964,3.987-27.836-7.53-8.66-15.871-6.876-18.143-4.361Z" style="fill:#ebebeb;"></path><path d="M244.31,208.999c-1.87,1.23-4.174,1.917-6.327,1.304-1.45-.413-2.725-1.282-3.925-2.196-1.145-.872-2.247-1.799-3.304-2.777,0,0,5.075,1.61,6.785,2.542,1.71,.932,4.006-.699,5.473-.431,1.467,.268,2.433,.81,1.297,1.558Z" style="fill:#e0e0e0;"></path><g style="opacity:.3;"><path d="M224.281,204.142c-3.983-.269-6.944,1.325-9.309,4.541-2.365,3.216-4.018,8.814-2.677,14.622,1.148-3.942,5.259-10.047,8.955-11.836,3.696-1.789,8.152-1.933,11.956-.388-5.422-3.677-6.164-5.177-8.926-6.94Z" style="fill:#fff;"></path></g><path d="M256.546,211.523c-1.158-1.331-2.334-2.415-3.505-3.288,.166,.212,.344,.415,.514,.604,4.053,4.499,5.382,11.142,3.865,17.005-1.517,5.863-5.689,10.88-10.926,13.92-8.187,4.751-18.997,4.57-27.02-.453-4.634-2.901-8.218-7.346-10.287-12.402,1.433,9.251,7.705,16.084,19.271,19.409,14.927,4.291,22.185-4.881,24.1-6.959,5.089-5.524,10.831-19.964,3.987-27.836Z" style="fill:#e0e0e0;"></path><g style="opacity:.3;"><path d="M253.789,213.434c-.613-2.631-3.264-4.629-5.962-4.494l-.335,.404c-1.005,.974-2.009,1.947-3.014,2.921-.231,.224-.475,.47-.53,.788-.1,.578,.449,1.045,.952,1.347,1.844,1.106,3.919,1.824,6.053,2.093,.74,.093,1.555,.114,2.157-.325,.804-.587,.906-1.764,.679-2.733Z" style="fill:#fff;"></path></g></g><path d="M226.353,207.482c-.06-.462-.275-.895-.576-1.25-2.105-2.483-4.116-1.086-6.492,.172-2.221,1.176-4.764,4.562-4.101,5.373,.663,.81,4.89-2.247,9.42-2.844,1.49-.197,1.853-.653,1.75-1.451Z" style="fill:#fff; opacity:.5;"></path><path d="M217.976,236.245s6.525,5.592,16.263,4.934,11.504-3.961,11.504-3.961c0,0-10.086,4.817-27.767-.973Z" style="fill:#e0e0e0;"></path></g><g><path d="M353.715,83.944c-1.885-4.266-5.753-7.606-10.249-8.849,1.738,4.407,4.488,8.412,7.976,11.617-2.393-.387-4.807-.775-7.229-.662-2.422,.114-4.883,.768-6.786,2.271,6.109,1.952,12.91,1.649,18.821-.838,2.111-5.246,3.854-10.629,5.965-15.875-4.766,2.183-8.157,7.104-8.498,12.336Z" style="fill:#e0e0e0;"></path><g><path d="M379.16,79.336c-3.559-2.32-8.136-2.78-12.266-1.783-4.13,.997-9.094,3.777-11.87,8.931,.362-.141-11.728,3.758-14.376,11.037-2.253,6.191,.137,15.534,4.589,20.39,3.442,3.755,8.303,5.899,13.198,7.309,4.895,1.41,9.962,2.191,14.803,3.776,3.636,1.19,7.697,2.812,11.094,1.055,1.776-.919,3.024-2.658,3.721-4.533,.696-1.875,.896-3.894,1.016-5.891,.445-7.441-.151-14.914-1.245-22.288-.504-3.399-1.123-6.813-2.429-9.991s-3.355-6.136-6.234-8.012Z" style="fill:#e0e0e0;"></path><g style="opacity:.3;"><path d="M382.822,128.305c-2.214,.821-5.135-.155-7.961-1.099l-.937-.311c-2.814-.921-5.699-1.579-8.489-2.216-2.115-.483-4.301-.982-6.39-1.583-5.54-1.596-9.524-3.781-12.18-6.679-4.096-4.469-6.031-12.946-4.141-18.141,1.518-4.173,7.612-7.714,12.368-9.478,.291-.108,.486-.175,.559-.197l.923-.246,.396-.825c2.388-4.432,6.406-6.451,8.588-7.261,.615-.228,1.239-.419,1.854-.568,3.83-.925,7.671-.383,10.541,1.486,2.845,1.855,4.504,4.831,5.396,7.001,1.144,2.784,1.741,5.801,2.286,9.475,1.214,8.182,1.615,15.324,1.226,21.832-.123,2.06-.32,3.742-.881,5.253-.582,1.565-1.527,2.751-2.665,3.339-.159,.082-.325,.155-.493,.218h0Z" style="fill:#fff;"></path></g><g style="opacity:.3;"><path d="M383.026,99.89c-1.4,1.225-3.698,1.068-5.126-.126-1.427-1.194-2.014-3.201-1.779-5.047,.234-1.846,1.196-3.536,2.412-4.945-2.55,1.853-6.437,1.536-8.653-.706s-2.488-6.132-.605-8.661c-2.884,.708-5.934,.722-8.828,.058-2.102,1.463-4.036,3.446-5.423,6.021,.289-.113-7.39,2.363-11.829,7.086,1.707,1.588,2.59,4.02,2.615,6.383,.03,2.784-.96,5.481-2.189,7.979,1.838-2.244,5.482-2.718,7.833-1.019,2.351,1.7,3.043,5.308,1.489,7.757,1.397-1.785,3.586-3.316,5.793-2.798,2.006,.47,3.314,2.537,3.558,4.584,.244,2.046-.349,4.09-.936,6.065,1.432-2.869,4.565-5.022,7.746-4.619,3.181,.403,5.815,3.892,4.757,6.919,.563-1.923,2.374-3.386,4.361-3.638,1.497-.19,3.04,.285,4.237,1.206-1.098-1.358-1.651-3.163-1.422-4.899,.293-2.227,1.847-4.245,3.926-5.096-2.371-.532-3.822-3.112-3.878-5.542-.056-2.43,.953-4.742,1.942-6.962Z" style="fill:#fff;"></path></g><path d="M360.068,80.74c-1.955,1.434-3.742,3.324-5.045,5.743,.254-.099-5.647,1.802-10.095,5.47,2.897,3.814,24.008,29.189,29.659,26.045,5.989-3.332,8.05-8.264-.805-21.653-6.816-10.307-11.786-14.308-13.715-15.605Z" style="fill:#fff; opacity:.3;"></path><path d="M368.638,94.273c-4.761-7.198-9.143-10.472-10.834-11.562-1.053,1.083-2.004,2.332-2.78,3.774,.205-.08-3.597,1.141-7.409,3.542,3.588,4.197,22.185,24.549,25.94,22.459,4.119-2.292,1.173-9.005-4.916-18.212Z" style="fill:#fff;"></path></g></g></g><g id="freepik--Shadow--inject-21"><path d="M432.904,436.691c0,11.762-85.871,21.297-191.799,21.297s-191.799-9.535-191.799-21.297,85.871-21.297,191.799-21.297,191.799,9.535,191.799,21.297Z" style="fill:#f5f5f5;"></path></g><g id="freepik--Fruit_Salad--inject-21"><g><ellipse cx="254.906" cy="302.32" rx="158.876" ry="49.62" style="fill:#263238;"></ellipse><g><g><path d="M382.324,247.243c-.474,.102,1.812-5.402-4.796-12.308-6.608-6.906-18.788-6.621-28.202,3.462-10.244,10.971-11.294,23.853-.81,37.185,10.484,13.331,22.77,9.841,25.793,9.222,8.036-1.644,22.341-10.771,21.303-22.114-1.142-12.48-9.67-16.224-13.288-15.447Z" style="fill:#263238;"></path><g style="opacity:.3;"><path d="M386.384,252.642c-2.442-.104-4.922-.967-6.438-2.884-1.021-1.292-1.596-2.875-2.075-4.451-.457-1.504-.842-3.029-1.154-4.569,0,0,3.468,4.666,4.388,6.584,.92,1.918,3.995,1.939,5.124,3.112,1.129,1.174,1.638,2.271,.155,2.208Z"></path></g><g style="opacity:.3;"><path d="M371.741,235.551c-3.357-2.781-6.997-3.259-11.146-1.92-4.149,1.339-9.187,5.243-11.707,11.245,3.534-2.759,11.074-5.543,15.49-4.768,4.416,.775,8.456,3.492,10.84,7.29-2.455-6.719-2.155-8.521-3.477-11.847Z" style="fill:#fff;"></path></g><g style="opacity:.2;"><path d="M395.612,262.69c-.175-1.918-.526-3.63-1.006-5.15,.011,.294,.04,.588,.07,.864,.718,6.574-2.346,13.308-7.433,17.532-5.087,4.225-11.986,6.007-18.566,5.355-10.286-1.018-19.747-8.08-23.647-17.652-2.253-5.529-2.59-11.755-1.195-17.554-4.637,9.11-3.443,19.168,4.681,29.498,10.484,13.331,22.77,9.841,25.793,9.222,8.036-1.644,22.341-10.771,21.303-22.114Z"></path></g><g style="opacity:.3;"><path d="M391.95,262.622c1.136-2.722,.063-6.185-2.413-7.788l-.555,.144c-1.512,.221-3.023,.442-4.535,.663-.348,.051-.721,.114-.972,.36-.458,.448-.269,1.213-.016,1.801,.927,2.157,2.307,4.118,4.026,5.718,.596,.555,1.304,1.094,2.118,1.089,1.087-.006,1.928-.984,2.347-1.988Z" style="fill:#fff;"></path></g></g><path d="M371.444,239.834c.242-.447,.328-.968,.288-1.475-.28-3.544-2.953-3.59-5.861-3.993-2.719-.376-7.133,1.001-7.063,2.141,.07,1.141,5.767,1.132,10.161,3.495,1.446,.777,2.058,.605,2.476-.168Z" style="fill:#fff; opacity:.5;"></path><path d="M345.66,259.966s2.21,9.12,11.257,14.754c9.047,5.635,12.72,3.836,12.72,3.836,0,0-12.01-2.172-23.978-18.59Z" style="opacity:.1;"></path></g><g><path d="M185.105,286.706l2.353,13.18s-17.788,10.338-34.807,6.912c-17.019-3.425-39.631-34.647-39.631-34.647-4.131-20.681,14.743-43.958,14.743-43.958l57.343,58.513Z" style="fill:#263238;"></path><path d="M185.105,286.706l2.353,13.18s-17.788,10.338-34.807,6.912c-17.019-3.425-39.631-34.647-39.631-34.647-4.131-20.681,14.743-43.958,14.743-43.958l57.343,58.513Z" style="fill:#fff; opacity:.1;"></path><path d="M158.775,220.586l-31.012,7.607c-4.096,2.926-13.458,23.405-12.288,31.597,1.17,8.192,26.038,29.549,33.938,32.767,7.899,3.218,35.693-5.851,35.693-5.851l-18.214-45.737-8.117-20.383Z" style="fill:#263238;"></path><path d="M158.775,220.586l-31.012,7.607c-4.096,2.926-13.458,23.405-12.288,31.597,1.17,8.192,26.038,29.549,33.938,32.767,7.899,3.218,35.693-5.851,35.693-5.851l-18.214-45.737-8.117-20.383Z" style="fill:#fff; opacity:.3;"></path><path d="M166.194,239.218s1.726,3.366-8.046-5.478c-9.772-8.844-11.329-7.913-11.329-7.913,0,0,16.056,13.382,12.797,16.311-3.258,2.929-18.091-12.742-18.091-12.742,0,0,10.145,11.054,11.126,14.245,.98,3.191-22.671-6.021-22.671-6.021l20.795,9.93-1.953,1.552s-27.841-2.888-26.755-2.298c1.086,.591,23.847,3.469,24.802,4.668,.955,1.199-28.836,4.812-28.836,4.812,0,0,30.209-2.438,28.836,0-1.373,2.438-24.181,8.06-24.181,8.06,0,0,24.65-6.315,26.134-4.417,1.484,1.898-18.531,14.001-18.531,14.001,0,0,20.478-11.433,21.962-9.6,1.484,1.833-14.359,17.668-14.359,17.668,0,0,14.881-13.949,18.302-13.258,3.421,.691-10.537,19.31-9.376,19.31s13.308-19.544,14.976-17.843c1.668,1.701-2.489,21.102-1.714,21.102s3.32-20.016,5.617-20.636c2.297-.621,2.917,19.86,4.159,18.774s.776-21.086,2.793-20.706c2.017,.38,11.333,15.149,11.333,15.149l-17.788-44.667Z" style="fill:#fff; opacity:.3;"></path><path d="M150.175,252.615c.613-3.96,4.323-8.665,16.716-11.646l8.283,20.799s-10.916,2.686-19.359-.174c-3.772-1.278-6.249-5.044-5.64-8.98Z" style="fill:#fff;"></path><path d="M143.134,251.941c.897-5.8,3.923-10.999,22.075-15.366l13.577,34.261s-14.762,4.383-28.545-2.855c-5.164-2.712-7.998-10.276-7.106-16.04Z" style="fill:#fff; opacity:.3;"></path><path d="M153.498,251.309c0,.784-.423,1.743-1.654,1.743s-2.804-.959-2.804-1.743,.998-1.42,2.229-1.42,2.229,.636,2.229,1.42Z" style="fill:#263238;"></path><path d="M173.709,260.236c0,.784-.423,1.743-1.654,1.743s-2.804-.959-2.804-1.743,.998-1.42,2.229-1.42,2.229,.636,2.229,1.42Z" style="fill:#263238;"></path><path d="M145.983,253.932c0,.784-.423,1.744-1.654,1.744s-2.804-.959-2.804-1.744,.998-1.42,2.229-1.42,2.229,.636,2.229,1.42Z" style="fill:#263238;"></path><path d="M152.346,256.716c.431,.655,.552,1.724-.63,2.5-1.182,.776-3.218,.967-3.649,.312-.431-.655,.178-1.816,1.36-2.592,1.182-.776,2.489-.875,2.919-.219Z" style="fill:#263238;"></path><path d="M164.137,263.619c.959,.039,2.113,.572,2.056,1.985-.058,1.413-1.305,3.17-2.265,3.131-.96-.039-1.691-1.216-1.633-2.629,.058-1.413,.883-2.526,1.842-2.487Z" style="fill:#263238;"></path><path d="M163.64,240.224c.959,.039,2.113,.572,2.056,1.985s-1.305,3.17-2.265,3.131c-.96-.039-1.69-1.216-1.633-2.629,.058-1.413,.882-2.526,1.842-2.487Z" style="fill:#263238;"></path><path d="M157.616,247.83c-.743,.538-1.925,.821-2.717-.274s-.896-3.151-.152-3.69c.743-.538,1.988-.087,2.781,1.007,.792,1.094,.832,2.418,.089,2.956Z" style="fill:#263238;"></path><path d="M172.508,273.816c-.743,.538-1.925,.821-2.717-.273-.792-1.095-.896-3.151-.152-3.69,.743-.538,1.988-.087,2.781,1.007,.792,1.094,.832,2.418,.089,2.956Z" style="fill:#263238;"></path><path d="M158.219,240.505c-.743,.538-1.925,.821-2.717-.273-.792-1.094-.896-3.151-.152-3.69,.743-.538,1.988-.087,2.781,1.007,.792,1.094,.832,2.418,.089,2.956Z" style="fill:#263238;"></path><path d="M150.243,246.327c-.743,.538-1.925,.821-2.717-.274-.792-1.094-.896-3.151-.152-3.69,.743-.538,1.988-.087,2.781,1.007,.792,1.095,.832,2.418,.089,2.956Z" style="fill:#263238;"></path><path d="M149.808,264.781c.529,.75,.796,1.935-.309,2.713-1.105,.778-3.163,.855-3.691,.104-.528-.75-.061-1.989,1.043-2.767,1.105-.778,2.429-.801,2.957-.05Z" style="fill:#263238;"></path><path d="M160.204,262.231c.431,.655,.552,1.724-.63,2.5-1.182,.776-3.218,.967-3.649,.312-.431-.655,.178-1.816,1.36-2.593,1.182-.776,2.489-.875,2.919-.219Z" style="fill:#263238;"></path></g><g><path d="M234.902,262.087c2.088,4.551,6.361,7.889,11.105,9.493s11.441,1.955,17.449-1.436c-.45-.087,14.053,3.63,21.272-1.959,6.14-4.755,9.633-15.57,8.25-23.211-1.069-5.908-4.567-11.103-8.559-15.587-3.992-4.484-8.552-8.45-12.38-13.074-2.875-3.473-5.903-7.644-10.396-8.029-2.349-.201-4.686,.747-6.56,2.178-1.873,1.431-3.343,3.318-4.717,5.233-5.123,7.137-9.229,14.962-12.776,23-1.635,3.705-3.166,7.497-3.863,11.486-.697,3.99-.514,8.227,1.175,11.907Z" style="fill:#407BFF;"></path><g style="opacity:.3;"><path d="M251.785,215.691c1.051-1.453,2.387-3.033,4.18-3.05,1.229-.012,5.254,2.603,6.216,3.37,10.428,8.315,15.41,21.591,19.099,34.408,.995,3.457,1.938,6.974,2.026,10.57,.078,3.184-.573,6.472-2.28,9.135,1.349-.465,2.609-1.095,3.702-1.941,6.14-4.755,9.633-15.57,8.25-23.211-1.069-5.908-4.567-11.103-8.559-15.587-3.992-4.484-8.552-8.45-12.38-13.074-2.875-3.473-5.903-7.644-10.396-8.029-2.349-.201-4.686,.747-6.56,2.178-1.873,1.431-3.343,3.318-4.717,5.233-5.123,7.137-9.229,14.962-12.776,23-1.635,3.705-3.166,7.497-3.863,11.486-.096,.547-.173,1.099-.234,1.653,2.417-9.126,10.408-25.25,18.291-36.142Z" style="fill:#fff;"></path></g><path d="M258.173,232.556l.555,.178c.331-.677,.42-1.469,.246-2.202-.073-.31-.198-.617-.424-.841-.226-.224-.568-.35-.872-.254-.291,.092-.497,.37-.565,.668-.068,.297-.018,.61,.071,.902,.182,.593,.528,1.134,.989,1.549Z" style="fill:#fff;"></path><path d="M258.07,218.684l.555,.178c.331-.676,.42-1.469,.246-2.202-.073-.309-.198-.617-.424-.841-.226-.224-.568-.349-.872-.254-.291,.092-.497,.37-.565,.668-.069,.297-.018,.611,.071,.902,.182,.593,.528,1.134,.989,1.549Z" style="fill:#fff;"></path><path d="M269.19,224.075l.555,.178c.331-.677,.42-1.469,.246-2.202-.073-.31-.198-.617-.424-.841-.226-.224-.568-.35-.872-.254-.291,.092-.497,.37-.565,.668-.069,.297-.018,.61,.071,.902,.182,.593,.528,1.134,.989,1.549Z" style="fill:#fff;"></path><path d="M269.153,236.45l.555,.178c.331-.676,.42-1.469,.246-2.202-.073-.31-.198-.617-.424-.841-.226-.224-.568-.35-.872-.254-.291,.092-.497,.37-.565,.668-.069,.297-.018,.61,.071,.902,.182,.593,.528,1.134,.989,1.549Z" style="fill:#fff;"></path><path d="M281.373,236.193l.555,.178c.331-.676,.42-1.469,.246-2.202-.073-.309-.198-.617-.424-.841-.226-.224-.568-.349-.872-.254-.291,.092-.497,.37-.565,.668-.069,.298-.018,.611,.071,.902,.182,.593,.528,1.134,.989,1.549Z" style="fill:#fff;"></path><path d="M249.551,243.907l.555,.178c.331-.677,.42-1.469,.246-2.202-.073-.31-.198-.617-.424-.841-.226-.224-.568-.35-.872-.254-.291,.092-.497,.37-.565,.668-.069,.298-.018,.611,.071,.902,.182,.593,.527,1.134,.989,1.549Z" style="fill:#fff;"></path><path d="M240.24,243.133l.555,.178c.331-.676,.42-1.469,.246-2.202-.073-.31-.198-.617-.424-.841s-.568-.349-.872-.254c-.291,.092-.497,.37-.565,.668-.068,.297-.018,.61,.071,.902,.182,.593,.528,1.134,.989,1.549Z" style="fill:#fff;"></path><path d="M246.743,230.905l.405,.418c.611-.441,1.062-1.098,1.254-1.827,.081-.308,.116-.638,.022-.942-.093-.304-.337-.576-.649-.635-.3-.056-.613,.093-.813,.323-.2,.23-.304,.53-.362,.829-.119,.609-.069,1.249,.143,1.832Z" style="fill:#fff;"></path><path d="M275.539,246.668l.555,.178c.331-.677,.42-1.469,.246-2.202-.073-.31-.198-.617-.424-.841-.226-.224-.568-.35-.872-.254-.291,.091-.497,.37-.565,.668-.068,.297-.018,.611,.071,.902,.182,.593,.528,1.134,.989,1.549Z" style="fill:#fff;"></path><path d="M286.457,251.54l.555,.178c.331-.676,.42-1.469,.246-2.202-.073-.309-.198-.617-.424-.841-.226-.224-.568-.349-.872-.254-.291,.092-.497,.37-.565,.668-.069,.298-.018,.611,.071,.902,.182,.593,.528,1.134,.989,1.549Z" style="fill:#fff;"></path><path d="M261.353,245.711l.555,.178c.331-.676,.42-1.469,.246-2.202-.073-.31-.198-.617-.424-.841-.226-.224-.568-.35-.872-.254-.291,.092-.497,.37-.565,.668-.068,.297-.018,.61,.071,.902,.182,.593,.527,1.134,.989,1.549Z" style="fill:#fff;"></path><path d="M254.003,255.176l.555,.178c.331-.676,.42-1.469,.246-2.202-.073-.309-.198-.617-.424-.841-.226-.224-.568-.35-.872-.254-.291,.092-.497,.37-.565,.668-.069,.297-.018,.61,.071,.902,.182,.593,.527,1.134,.989,1.549Z" style="fill:#fff;"></path><path d="M238.963,254.556l.555,.178c.331-.677,.42-1.469,.246-2.202-.073-.309-.198-.617-.424-.841-.226-.224-.568-.35-.872-.254-.291,.092-.497,.37-.565,.668-.068,.297-.018,.61,.071,.902,.182,.593,.527,1.134,.989,1.549Z" style="fill:#fff;"></path><path d="M271.859,257.996l.511,.279c.452-.603,.687-1.364,.654-2.117-.014-.318-.079-.643-.259-.906-.18-.263-.493-.45-.809-.413-.303,.035-.557,.271-.68,.55-.123,.279-.132,.596-.099,.9,.068,.616,.306,1.213,.681,1.706Z" style="fill:#fff;"></path><path d="M261.641,264.388l.512,.279c.452-.603,.687-1.364,.654-2.117-.014-.318-.079-.643-.259-.906-.18-.263-.493-.45-.809-.413-.303,.035-.557,.271-.68,.55s-.132,.596-.099,.9c.068,.616,.306,1.213,.681,1.707Z" style="fill:#fff;"></path><path d="M247.37,265.859l.511,.279c.452-.602,.687-1.364,.654-2.117-.014-.318-.079-.643-.259-.906-.18-.263-.493-.45-.809-.413-.303,.035-.557,.271-.68,.55-.123,.279-.132,.596-.099,.9,.068,.616,.306,1.213,.681,1.707Z" style="fill:#fff;"></path><path d="M283.162,264.229l.512,.279c.452-.602,.687-1.364,.654-2.117-.014-.318-.079-.643-.259-.906-.18-.262-.493-.45-.809-.413-.303,.035-.557,.271-.68,.55-.123,.279-.132,.596-.099,.9,.068,.616,.306,1.213,.681,1.706Z" style="fill:#fff;"></path></g><g><g><path d="M207.16,262.048c-3.533,7.91-.003,18.362,5.481,25.067,5.484,6.706,14.07,10.466,22.709,11.111,8.639,.645,17.312-1.61,25.145-5.312,11.584-5.474,22.022-14.787,25.671-27.069,2.741-9.226,1.299-19.608-3.851-27.739-1.961-3.096-4.63-6.001-8.157-6.998-4.732-1.338-9.811,1.131-13.281,4.616-3.47,3.485-5.805,7.914-8.756,11.848-2.951,3.934-6.887,7.565-11.754,8.267,0,0-4.988,1.578-20.114-.725-8.545-1.301-13.092,6.932-13.092,6.932Z" style="fill:#407BFF;"></path><g><path d="M262.738,279.473c-3.462-7.405-7.53-15.266-11.565-22.375,5.295,6.57,9.27,14.253,11.565,22.375h0Z" style="fill:#fff; opacity:.3;"></path><path d="M269.509,266.227c-5.619-3.588-10.823-7.714-15.587-12.379,5.622,3.584,10.819,7.718,15.587,12.379h0Z" style="fill:#fff; opacity:.3;"></path><path d="M272.263,255.421c-4.973-1.939-9.63-4.479-13.943-7.624,4.975,1.934,9.627,4.484,13.943,7.624h0Z" style="fill:#fff; opacity:.3;"></path><path d="M273.015,241.963c-4.014,1.233-8.61,.755-12.278-1.292,4.156,.718,8.063,1.135,12.278,1.292h0Z" style="fill:#fff; opacity:.3;"></path><path d="M245.206,286.35c-1.836-8.421-3.012-17.039-3.497-25.644,1.837,8.422,3.011,17.038,3.497,25.644h0Z" style="fill:#fff; opacity:.3;"></path><path d="M252.938,281.341c-2.686-6.138-4.728-12.492-6.104-19.049,2.691,6.136,4.722,12.494,6.104,19.049h0Z" style="fill:#fff; opacity:.3;"></path><path d="M231.947,280.312c-.907-6.806-1.135-13.644-.668-20.495,.913,6.806,1.13,13.644,.668,20.495h0Z" style="fill:#fff; opacity:.3;"></path><path d="M223.732,278.793c-.076-5.646,.523-11.23,1.814-16.727,.082,5.646-.529,11.229-1.814,16.727h0Z" style="fill:#fff; opacity:.3;"></path><path d="M213.539,272.296c-.31-2.412,.055-4.743,1.102-6.939,.315,2.412-.06,4.742-1.102,6.939h0Z" style="fill:#fff; opacity:.3;"></path></g><path d="M282.313,238.108c5.15,8.131,6.591,18.513,3.85,27.739-3.648,12.281-14.087,21.595-25.67,27.069-7.832,3.701-16.506,5.956-25.145,5.312-8.639-.645-17.224-4.405-22.708-11.11-3.391-4.146-6.032-9.725-6.721-15.249,7.83,11.084,17.658,23.429,40.914,19.269,27.884-4.988,42.253-30.131,33.475-50.346-3.994-9.197-11.395-8.403-16.702-7.343,3.142-2.164,6.945-3.356,10.549-2.338,3.527,.997,6.196,3.902,8.157,6.998Z" style="opacity:.3;"></path></g><g style="opacity:.2;"><path d="M272.94,236.617c2.16,1.057,3.725,3.084,4.682,5.29,2.647,6.11,.986,13.133-.71,19.573-.716,2.72-1.568,5.648-3.817,7.337s-6.3,1.072-6.88-1.68c.531,3.536,1.041,7.275-.309,10.586-1.35,3.311-5.289,5.846-8.546,4.372-2.359-1.068-3.504-3.717-4.361-6.161-1.972-5.629-4.26-13.143-5.383-19.001,2.546-3.217,4.51-5.854,6.976-9.592,2.155-3.267,4.349-6.322,7.401-8.771s7.431-3.672,10.946-1.952Z" style="fill:#fff;"></path></g><g style="opacity:.2;"><path d="M243.74,258.303c1.034,6.282,2.068,12.565,3.102,18.847,.21,1.276,.421,2.571,.306,3.848s-.597,2.554-1.545,3.305c-1.224,.969-2.927,.88-4.471,.64-1.423-.222-2.927-.586-3.976-1.674-1.188-1.232-1.518-3.093-1.751-4.821-.675-4.995-1.083-10.02-1.221-15.042-.029-1.064-.024-2.209,.552-3.05,.485-.708,1.291-1.068,2.078-1.332,1.906-.639,4.906-.87,6.926-.72Z" style="fill:#fff;"></path></g></g><g><g><path d="M110.57,243.989c-7.986,1.503-14.159,9.81-16.398,17.622-2.239,7.812-.55,16.441,3.569,23.446,4.12,7.005,10.493,12.487,17.533,16.548,10.411,6.006,23.17,9.076,34.589,5.326,8.578-2.817,15.813-9.477,19.329-17.793,1.339-3.167,2.152-6.777,1.036-10.029-1.498-4.364-6.115-6.96-10.657-7.773-4.541-.813-9.204-.246-13.815-.419-4.61-.173-9.513-1.267-12.655-4.645,0,0-3.882-3.002-10.19-15.895-3.564-7.283-12.342-6.389-12.342-6.389Z" style="fill:#407BFF;"></path><g><path d="M126.837,296.151c3.944-6.879,7.583-13.753,11.071-20.874-2.186,7.609-6.003,14.793-11.071,20.874h0Z" style="fill:#fff; opacity:.3;"></path><path d="M140.669,294.293c-.278-6.252,.121-12.47,1.214-18.633,.284,6.252-.127,12.47-1.214,18.633h0Z" style="fill:#fff; opacity:.3;"></path><path d="M150.472,290.641c-1.205-4.865-1.736-9.815-1.573-14.825,1.21,4.864,1.73,9.815,1.573,14.825h0Z" style="fill:#fff; opacity:.3;"></path><path d="M161.25,284.029c-3.127-2.405-5.226-6.225-5.565-10.157,1.709,3.577,3.466,6.794,5.565,10.157h0Z" style="fill:#fff; opacity:.3;"></path><path d="M112.166,286.309c5.503-5.97,11.471-11.445,17.903-16.401-5.499,5.974-11.475,11.44-17.903,16.401h0Z" style="fill:#fff; opacity:.3;"></path><path d="M120.16,289.594c3.263-5.376,7.071-10.347,11.425-14.886-3.259,5.38-7.076,10.344-11.425,14.886h0Z" style="fill:#fff; opacity:.3;"></path><path d="M109.735,272.86c4.737-4.37,9.888-8.202,15.445-11.468-4.734,4.375-9.891,8.197-15.445,11.468h0Z" style="fill:#fff; opacity:.3;"></path><path d="M106.516,265.715c4.291-3.113,8.918-5.636,13.866-7.541-4.289,3.118-8.92,5.631-13.866,7.541h0Z" style="fill:#fff; opacity:.3;"></path><path d="M106.079,254.383c1.674-1.566,3.669-2.531,5.939-2.858-1.672,1.57-3.671,2.526-5.939,2.858h0Z" style="fill:#fff; opacity:.3;"></path></g><path d="M169.192,289.138c-3.516,8.316-10.751,14.975-19.329,17.793-11.419,3.75-24.178,.679-34.589-5.326-7.039-4.061-13.413-9.543-17.533-16.548-4.12-7.005-5.809-15.634-3.569-23.446,1.385-4.83,4.274-9.848,8.165-13.332-4.361,11.96-8.627,26.135,7.009,41.842,18.747,18.833,45.812,16.475,56.707-1.095,4.957-7.994,.389-13.276-3.264-16.801,3.348,1.266,6.299,3.561,7.44,6.884,1.116,3.252,.303,6.862-1.036,10.029Z" style="opacity:.3;"></path></g><g style="opacity:.2;"><path d="M165.332,281.115c.34,2.23-.387,4.52-1.577,6.437-3.296,5.307-9.599,7.779-15.47,9.913-2.479,.901-5.192,1.809-7.696,.978s-4.193-4.284-2.382-6.202c-2.442,2.299-5.052,4.69-8.327,5.419-3.274,.729-7.334-.953-7.938-4.253-.438-2.39,.993-4.688,2.42-6.655,3.286-4.529,7.857-10.308,11.773-14.304,3.841,.244,6.923,.349,11.123,.253,3.67-.084,7.198-.025,10.718,1.019,3.519,1.044,6.802,3.767,7.355,7.396Z" style="fill:#fff;"></path></g><g style="opacity:.2;"><path d="M133.007,270.19c-4.291,4.155-8.582,8.309-12.874,12.464-.872,.844-1.758,1.699-2.803,2.293-1.045,.594-2.288,.904-3.374,.575-1.402-.426-2.243-1.787-2.882-3.105-.59-1.216-1.112-2.57-.835-3.96,.315-1.574,1.573-2.823,2.781-3.926,3.49-3.19,7.147-6.19,10.945-8.98,.805-.591,1.691-1.199,2.647-1.204,.805-.004,1.513,.424,2.138,.89,1.511,1.128,3.293,3.317,4.257,4.955Z" style="fill:#fff;"></path></g></g><g><g><path d="M196.064,236.742c-.146,.463-3.801-4.245-13.07-1.913s-15.04,13.062-10.927,26.229c4.476,14.327,15.156,21.606,31.927,19.079,16.771-2.527,19.807-14.933,20.763-17.867,2.541-7.799,1.676-24.745-8.698-29.448-11.414-5.175-18.883,.389-19.995,3.919Z" style="fill:#263238;"></path><g style="opacity:.3;"><path d="M202.764,235.88c-1.297,2.072-3.272,3.801-5.689,4.171-1.628,.249-3.288-.033-4.895-.396-1.533-.346-3.049-.765-4.543-1.255,0,0,5.771-.709,7.892-.561,2.122,.148,3.66-2.515,5.238-2.916,1.578-.401,2.784-.302,1.996,.957Z"></path></g><g style="opacity:.3;"><path d="M180.67,240.164c-4.077,1.544-6.291,4.473-7.177,8.741-.886,4.269,.018,10.578,3.991,15.735-.652-4.436,.653-12.366,3.51-15.823,2.856-3.457,7.215-5.626,11.694-5.821-7.055-1.186-8.473-2.337-12.018-2.832Z" style="fill:#fff;"></path></g><g style="opacity:.2;"><path d="M216.06,232.823c-1.755-.795-3.415-1.336-4.975-1.671,.261,.135,.53,.256,.785,.366,6.07,2.624,10.41,8.615,11.569,15.126,1.159,6.51-.701,13.389-4.519,18.788-5.968,8.439-16.783,13.174-27.032,11.835-5.92-.774-11.499-3.558-15.852-7.636,5.628,8.533,14.963,12.465,27.957,10.508,16.771-2.527,19.807-14.933,20.763-17.867,2.541-7.799,1.676-24.745-8.698-29.448Z"></path></g><g style="opacity:.3;"><path d="M214.191,235.973c-1.805-2.333-5.345-3.111-7.963-1.751l-.149,.553c-.555,1.423-1.109,2.847-1.664,4.27-.128,.328-.257,.683-.168,1.023,.163,.619,.922,.834,1.558,.904,2.333,.26,4.72,.029,6.961-.674,.777-.244,1.595-.593,1.993-1.303,.532-.948,.097-2.163-.568-3.023Z" style="fill:#fff;"></path></g></g><path d="M184.246,242.539c-.269-.431-.68-.763-1.14-.979-3.219-1.508-4.581,.793-6.367,3.123-1.67,2.178-2.655,6.696-1.629,7.199,1.026,.503,3.834-4.454,8.059-7.106,1.39-.873,1.543-1.491,1.077-2.236Z" style="fill:#fff; opacity:.5;"></path><path d="M189.007,274.903s9.02,2.585,18.39-2.495c9.369-5.081,9.62-9.164,9.62-9.164,0,0-7.823,9.368-28.01,11.659Z" style="opacity:.1;"></path></g><g><path d="M187.169,259.443c-4.585,2.012-7.994,6.229-9.676,10.945-1.682,4.716-2.145,11.407,1.146,17.471,.094-.448-3.864,13.991,1.605,21.301,4.652,6.218,15.407,9.891,23.07,8.636,5.925-.971,11.177-4.381,15.727-8.298,4.55-3.917,8.591-8.41,13.279-12.161,3.52-2.817,7.741-5.775,8.201-10.261,.24-2.345-.669-4.698-2.068-6.595-1.4-1.897-3.262-3.398-5.153-4.804-7.051-5.242-14.806-9.477-22.784-13.158-3.677-1.697-7.443-3.29-11.421-4.054-3.977-.764-8.217-.651-11.925,.976Z" style="fill:#407BFF;"></path><g style="opacity:.3;"><path d="M233.277,277.096c1.435,1.076,2.993,2.437,2.98,4.23-.009,1.229-2.69,5.21-3.473,6.159-8.487,10.288-21.845,15.048-34.721,18.524-3.474,.938-7.005,1.821-10.603,1.85-3.184,.025-6.461-.681-9.096-2.432,.442,1.356,1.051,2.627,1.879,3.734,4.652,6.218,15.407,9.891,23.07,8.636,5.925-.971,11.177-4.381,15.727-8.298,4.55-3.917,8.591-8.41,13.279-12.161,3.52-2.817,7.741-5.775,8.201-10.261,.24-2.345-.669-4.698-2.068-6.595-1.4-1.897-3.262-3.398-5.153-4.804-7.051-5.242-14.806-9.477-22.784-13.158-3.677-1.697-7.443-3.29-11.421-4.054-.545-.105-1.096-.191-1.649-.261,9.084,2.568,25.073,10.827,35.832,18.891Z" style="fill:#fff;"></path></g><path d="M216.309,283.202l-.187,.552c.671,.343,1.462,.444,2.197,.283,.311-.068,.62-.188,.848-.409,.228-.222,.359-.562,.269-.867-.087-.293-.362-.503-.658-.576s-.61-.028-.903,.056c-.596,.172-1.143,.509-1.565,.963Z" style="fill:#fff;"></path><path d="M230.181,283.331l-.187,.552c.671,.343,1.462,.444,2.197,.283,.311-.068,.62-.188,.848-.41,.228-.222,.359-.562,.269-.867-.087-.293-.362-.503-.658-.576-.296-.073-.61-.029-.903,.056-.596,.172-1.143,.509-1.565,.963Z" style="fill:#fff;"></path><path d="M224.605,294.36l-.187,.552c.671,.343,1.462,.444,2.197,.283,.311-.068,.62-.188,.848-.41,.228-.222,.359-.562,.269-.867-.087-.293-.362-.503-.658-.576-.296-.073-.61-.029-.903,.056-.596,.172-1.143,.509-1.565,.963Z" style="fill:#fff;"></path><path d="M212.232,294.117l-.187,.552c.671,.343,1.462,.444,2.197,.282,.311-.068,.62-.188,.848-.41,.228-.222,.359-.562,.268-.867-.087-.293-.362-.503-.658-.576-.296-.073-.61-.029-.903,.056-.596,.172-1.143,.509-1.565,.963Z" style="fill:#fff;"></path><path d="M212.286,306.34l-.188,.552c.671,.343,1.462,.444,2.197,.282,.311-.068,.62-.188,.848-.41,.228-.222,.359-.562,.268-.867-.087-.293-.362-.503-.658-.576-.296-.073-.61-.029-.903,.056-.596,.172-1.143,.509-1.565,.963Z" style="fill:#fff;"></path><path d="M205.103,274.393l-.187,.552c.671,.343,1.462,.444,2.197,.283,.311-.068,.62-.188,.848-.41,.228-.222,.359-.562,.268-.867-.087-.293-.362-.503-.658-.576-.296-.073-.61-.028-.903,.056-.596,.172-1.143,.508-1.565,.963Z" style="fill:#fff;"></path><path d="M206.032,265.096l-.187,.552c.671,.343,1.462,.444,2.197,.283,.311-.068,.62-.188,.848-.41,.228-.222,.359-.562,.269-.867-.087-.293-.362-.503-.658-.576-.296-.074-.61-.029-.903,.056-.596,.172-1.143,.509-1.565,.963Z" style="fill:#fff;"></path><path d="M218.15,271.802l-.425,.398c.43,.618,1.08,1.08,1.805,1.284,.306,.086,.636,.127,.941,.038,.306-.088,.581-.327,.645-.639,.061-.299-.083-.614-.309-.818-.227-.204-.525-.312-.823-.376-.606-.129-1.248-.09-1.834,.112Z" style="fill:#fff;"></path><path d="M201.909,300.331l-.187,.552c.671,.342,1.462,.444,2.197,.283,.311-.068,.62-.188,.848-.41,.228-.222,.359-.562,.269-.867-.087-.292-.362-.503-.658-.576-.296-.074-.61-.029-.903,.056-.596,.172-1.143,.509-1.565,.963Z" style="fill:#fff;"></path><path d="M196.856,311.167l-.188,.552c.671,.343,1.462,.444,2.197,.283,.311-.068,.62-.188,.848-.41,.228-.222,.359-.562,.269-.867-.087-.293-.362-.503-.658-.576-.296-.074-.61-.029-.903,.056-.596,.172-1.143,.509-1.565,.963Z" style="fill:#fff;"></path><path d="M203.102,286.163l-.187,.552c.671,.342,1.462,.444,2.197,.282,.311-.068,.62-.188,.848-.41s.359-.562,.268-.867c-.087-.293-.362-.503-.658-.576-.296-.073-.61-.028-.903,.056-.596,.172-1.143,.509-1.565,.963Z" style="fill:#fff;"></path><path d="M193.761,278.657l-.187,.552c.671,.343,1.462,.444,2.197,.282,.311-.068,.62-.188,.848-.409,.228-.222,.359-.562,.269-.867-.087-.293-.362-.503-.658-.576-.296-.074-.61-.029-.903,.056-.596,.172-1.143,.509-1.565,.963Z" style="fill:#fff;"></path><path d="M194.631,263.629l-.187,.552c.671,.343,1.462,.444,2.197,.283,.311-.068,.62-.188,.848-.41s.359-.562,.268-.867c-.087-.293-.362-.503-.658-.576s-.61-.029-.903,.056c-.596,.172-1.143,.508-1.565,.963Z" style="fill:#fff;"></path><path d="M190.644,296.463l-.287,.507c.595,.462,1.353,.71,2.106,.689,.318-.009,.644-.068,.91-.244,.265-.175,.458-.485,.426-.802-.03-.304-.261-.562-.539-.689-.277-.128-.594-.142-.898-.114-.617,.058-1.218,.286-1.717,.653Z" style="fill:#fff;"></path><path d="M184.423,286.14l-.287,.507c.595,.462,1.353,.71,2.106,.689,.318-.009,.644-.068,.91-.244,.266-.175,.458-.485,.426-.802-.03-.304-.262-.562-.539-.689-.277-.128-.594-.142-.898-.114-.617,.057-1.218,.286-1.718,.653Z" style="fill:#fff;"></path><path d="M183.19,271.847l-.287,.507c.595,.462,1.353,.71,2.106,.689,.318-.009,.644-.068,.91-.244,.265-.175,.458-.485,.426-.802-.03-.304-.261-.562-.539-.689-.277-.128-.594-.142-.898-.114-.617,.057-1.218,.286-1.718,.653Z" style="fill:#fff;"></path><path d="M184.223,307.661l-.287,.507c.595,.462,1.353,.71,2.106,.689,.318-.009,.645-.068,.91-.244,.266-.175,.458-.485,.426-.802-.03-.304-.261-.562-.539-.689-.277-.128-.594-.142-.898-.114-.617,.057-1.218,.286-1.718,.653Z" style="fill:#fff;"></path></g><g><path d="M225.018,310.179c-3.248-13.306-15.008-22.695-28.688-23.369-6.177-.304-14.376-1.646-19.497-6.198-9.083-8.073-40.183-23.636-56.572,2.199-16.389,25.835,7.462,60.93,37.014,68.315,29.552,7.385,74.851-4.438,67.942-40.061,0,0-.06-.319-.199-.886Z" style="fill:#407BFF;"></path><path d="M225.018,310.179c-3.248-13.306-15.008-22.695-28.688-23.369-6.177-.304-14.376-1.646-19.497-6.198-9.083-8.073-40.183-23.636-56.572,2.199-16.389,25.835,7.462,60.93,37.014,68.315,29.552,7.385,74.851-4.438,67.942-40.061,0,0-.06-.319-.199-.886Z" style="opacity:.3;"></path><path d="M225.768,304.268c-3.248-13.306-15.008-22.694-28.688-23.368-6.177-.304-14.375-1.646-19.497-6.198-9.083-8.073-40.183-23.636-56.572,2.199-16.389,25.835,7.462,60.93,37.014,68.315,29.552,7.385,74.851-4.438,67.942-40.061,0,0-.06-.319-.199-.886Z" style="fill:#407BFF;"></path><path d="M225.768,304.268c-3.248-13.306-15.008-22.694-28.688-23.368-6.177-.304-14.375-1.646-19.497-6.198-9.083-8.073-40.183-23.636-56.572,2.199-16.389,25.835,7.462,60.93,37.014,68.315,29.552,7.385,74.851-4.438,67.942-40.061,0,0-.06-.319-.199-.886Z" style="fill:#fff; opacity:.3;"></path><path d="M221.722,305.192c-3.233-12.864-14.258-22.108-26.9-22.998-5.708-.402-13.302-1.838-18.111-6.31-8.529-7.931-37.518-23.459-52.194,1.117s6.097,56.007,33.513,63.637c27.416,7.63,70.899-.181,63.891-34.59,0,0-.062-.309-.199-.856Z" style="fill:#fff; opacity:.6;"></path><g style="opacity:.3;"><path d="M189.972,292.167c.463-.498,.837-1.091,1.093-1.728,.735-1.826,.02-3.94-1.575-5.092-3.846-2.777-8.271-4.002-12.98-5.329-2.085-.588-4.56-1.121-6.044,.933-.529,.732-.764,1.642-.769,2.546-.022,3.767,2.179,7.306,5.322,9.309,2.786,1.775,6.245,2.378,9.513,1.896,2.018-.298,4.052-1.042,5.441-2.535Z"></path></g><path d="M184.772,286.134c.182-.196,.329-.43,.43-.68,.289-.719,.008-1.551-.62-2.005-1.514-1.093-3.257-1.575-5.11-2.098-.821-.231-1.795-.441-2.38,.368-.208,.288-.301,.647-.303,1.002-.009,1.483,.858,2.876,2.095,3.665,1.097,.699,2.459,.936,3.745,.746,.794-.117,1.595-.41,2.142-.998Z" style="fill:#263238;"></path><path d="M172.309,353.173l7.28-5.943c-5.369,.434-10.786,.146-16.255-.924l-7.047,4.558s8.778,2.375,16.022,2.308Z" style="fill:#fff; opacity:.3;"></path></g><g><path d="M300.609,324.388c13.558-1.94,24.045-12.734,26.044-26.283,.903-6.118,3.034-14.148,8.062-18.803,8.917-8.256,27.426-37.697,3.305-56.518-24.121-18.821-61.366,1.51-71.586,30.206-10.22,28.696-2.852,74.928,33.274,71.511,0,0,.324-.029,.901-.112Z" style="fill:#407BFF;"></path><path d="M300.609,324.388c13.558-1.94,24.045-12.734,26.044-26.283,.903-6.118,3.034-14.148,8.062-18.803,8.917-8.256,27.426-37.697,3.305-56.518-24.121-18.821-61.366,1.51-71.586,30.206-10.22,28.696-2.852,74.928,33.274,71.511,0,0,.324-.029,.901-.112Z" style="opacity:.3;"></path><path d="M306.42,325.709c13.558-1.94,24.045-12.733,26.044-26.283,.903-6.118,3.034-14.148,8.062-18.803,8.917-8.256,27.426-37.698,3.305-56.518-24.121-18.821-61.366,1.51-71.586,30.206s-2.852,74.928,33.274,71.511c0,0,.324-.029,.901-.112Z" style="fill:#407BFF;"></path><path d="M306.42,325.709c13.558-1.94,24.045-12.733,26.044-26.283,.903-6.118,3.034-14.148,8.062-18.803,8.917-8.256,27.426-37.698,3.305-56.518-24.121-18.821-61.366,1.51-71.586,30.206s-2.852,74.928,33.274,71.511c0,0,.324-.029,.901-.112Z" style="fill:#fff; opacity:.3;"></path><path d="M305.908,321.433c13.117-1.969,23.388-12.043,25.502-24.54,.954-5.642,3.121-13.061,8.039-17.413,8.721-7.718,26.991-35.062,3.956-52.055-23.035-16.993-56.335,.63-66.591,27.175-10.256,26.546-6.704,70.582,28.222,66.948,0,0,.313-.031,.872-.115Z" style="fill:#fff; opacity:.6;"></path><g style="opacity:.3;"><path d="M321.939,291.256c.451,.509,1.005,.939,1.614,1.255,1.746,.908,3.919,.403,5.221-1.074,3.137-3.558,4.786-7.844,6.564-12.401,.787-2.019,1.558-4.429-.342-6.107-.677-.598-1.56-.92-2.459-1.013-3.747-.388-7.483,1.459-9.782,4.393-2.037,2.6-2.973,5.985-2.811,9.284,.1,2.037,.643,4.134,1.995,5.662Z"></path></g><path d="M328.449,286.667c.177,.201,.396,.37,.635,.494,.687,.358,1.543,.159,2.055-.423,1.235-1.401,1.884-3.088,2.584-4.882,.31-.795,.614-1.744-.135-2.404-.267-.235-.614-.362-.968-.399-1.475-.153-2.946,.574-3.851,1.73-.802,1.024-1.17,2.356-1.107,3.655,.039,.802,.253,1.628,.785,2.229Z" style="fill:#263238;"></path><path d="M262.937,267.753l5.207,7.822c.09-5.386,.902-10.749,2.498-16.088l-3.853-7.456s-3.216,8.506-3.853,15.722Z" style="fill:#fff; opacity:.3;"></path></g><g><g><path d="M263.613,283.349c-.474,.102,1.812-5.402-4.796-12.308-6.608-6.906-18.788-6.621-28.202,3.462-10.244,10.971-11.294,23.853-.81,37.184,10.484,13.331,22.77,9.84,25.793,9.222,8.036-1.645,22.341-10.771,21.303-22.114-1.142-12.48-9.67-16.224-13.288-15.447Z" style="fill:#263238;"></path><g style="opacity:.3;"><path d="M267.673,288.748c-2.442-.104-4.922-.967-6.438-2.884-1.021-1.292-1.596-2.875-2.075-4.451-.457-1.504-.842-3.029-1.154-4.569,0,0,3.468,4.666,4.388,6.584s3.995,1.939,5.124,3.113c1.129,1.174,1.638,2.271,.155,2.208Z"></path></g><g style="opacity:.3;"><path d="M253.03,271.657c-3.357-2.782-6.997-3.259-11.146-1.92-4.149,1.339-9.187,5.243-11.707,11.245,3.534-2.759,11.074-5.543,15.49-4.768,4.416,.775,8.456,3.492,10.84,7.29-2.455-6.719-2.155-8.521-3.477-11.847Z" style="fill:#fff;"></path></g><g style="opacity:.2;"><path d="M276.901,298.796c-.175-1.918-.526-3.63-1.006-5.15,.011,.294,.04,.587,.07,.864,.718,6.574-2.345,13.308-7.432,17.532-5.087,4.225-11.986,6.007-18.566,5.355-10.286-1.018-19.747-8.08-23.647-17.652-2.253-5.529-2.59-11.755-1.195-17.554-4.637,9.11-3.443,19.168,4.681,29.498,10.484,13.331,22.77,9.84,25.793,9.222,8.036-1.645,22.341-10.771,21.303-22.114Z"></path></g><g style="opacity:.3;"><path d="M273.238,298.728c1.136-2.722,.063-6.185-2.413-7.788l-.555,.144c-1.512,.221-3.023,.442-4.535,.664-.348,.051-.721,.114-.972,.36-.458,.448-.269,1.213-.016,1.801,.927,2.157,2.307,4.118,4.026,5.718,.596,.555,1.304,1.094,2.118,1.089,1.087-.006,1.928-.984,2.347-1.988Z" style="fill:#fff;"></path></g></g><path d="M252.733,275.939c.242-.447,.328-.968,.288-1.475-.28-3.544-2.953-3.59-5.861-3.993-2.719-.376-7.133,1.001-7.063,2.141,.07,1.141,5.767,1.132,10.161,3.495,1.446,.777,2.058,.605,2.476-.168Z" style="fill:#fff; opacity:.5;"></path><path d="M226.949,296.072s2.21,9.12,11.257,14.754c9.047,5.635,12.72,3.835,12.72,3.835,0,0-12.01-2.172-23.978-18.59Z" style="opacity:.1;"></path></g><g><path d="M318.108,351.198l-1.113,12.544s-18.695,4.998-33.3-2.307c-14.604-7.305-27.432-41.221-27.432-41.221,1.349-19.791,24.219-36.267,24.219-36.267l37.626,67.251Z" style="fill:#263238;"></path><path d="M318.108,351.198l-1.113,12.544s-18.695,4.998-33.3-2.307c-14.604-7.305-27.432-41.221-27.432-41.221,1.349-19.791,24.219-36.267,24.219-36.267l37.626,67.251Z" style="fill:#fff; opacity:.1;"></path><path d="M310.508,284.688l-30.026-.741c-4.439,1.646-17.986,17.928-18.944,25.652-.957,7.724,16.351,33.242,22.728,38.111,6.377,4.869,33.842,3.488,33.842,3.488l-5.257-46.007-2.343-20.503Z" style="fill:#263238;"></path><path d="M310.508,284.688l-30.026-.741c-4.439,1.646-17.986,17.928-18.944,25.652-.957,7.724,16.351,33.242,22.728,38.111,6.377,4.869,33.842,3.488,33.842,3.488l-5.257-46.007-2.343-20.503Z" style="fill:#fff; opacity:.3;"></path><path d="M312.65,303.43s.737,3.481-5.953-6.957c-6.69-10.437-8.333-9.976-8.333-9.976,0,0,11.275,16.105,7.595,17.961-3.68,1.856-13.28-16.026-13.28-16.026,0,0,6.484,12.535,6.587,15.673,.103,3.138-19.094-11.055-19.094-11.055l16.428,14.141-2.155,.927s-24.56-9.485-23.72-8.681c.84,.804,20.792,9.028,21.363,10.351,.571,1.323-27.362-2.741-27.362-2.741,0,0,28.023,5.235,26.175,7.109-1.847,1.875-23.937,1.355-23.937,1.355,0,0,23.932,.344,24.812,2.433s-20.273,8.14-20.273,8.14c0,0,21.407-5.33,22.303-3.3,.895,2.03-17.39,12.498-17.39,12.498,0,0,16.947-8.993,19.882-7.523,2.935,1.47-14.325,14.93-13.272,15.216,1.053,.286,16.899-14.46,17.993-12.505,1.095,1.955-7.462,18.541-6.758,18.732,.704,.191,7.948-17.35,10.186-17.347,2.238,.003-2.248,18.747-.854,18.067,1.394-.68,5.903-18.949,7.64-18.107,1.737,.842,6.552,16.546,6.552,16.546l-5.135-44.931Z" style="fill:#fff; opacity:.3;"></path><path d="M294.806,311.641c1.532-3.443,6.061-6.799,18.045-6.45l2.391,20.922s-10.571-.253-17.53-4.931c-3.109-2.09-4.429-6.119-2.906-9.541Z" style="fill:#fff;"></path><path d="M288.58,309.293c2.244-5.043,6.273-9.017,23.826-8.506l3.877,34.447s-14.48,.34-25.208-9.629c-4.019-3.735-4.727-11.3-2.496-16.312Z" style="fill:#fff; opacity:.3;"></path><path d="M298.144,311.275c-.193,.712-.813,1.478-1.931,1.175-1.117-.303-2.309-1.562-2.115-2.274s1.256-1.043,2.373-.74c1.117,.303,1.866,1.127,1.673,1.838Z" style="fill:#263238;"></path><path d="M314.29,324.361c-.193,.712-.813,1.478-1.931,1.175s-2.309-1.562-2.115-2.274c.193-.712,1.256-1.043,2.373-.739,1.117,.303,1.866,1.127,1.673,1.838Z" style="fill:#263238;"></path><path d="M290.676,311.803c-.193,.712-.813,1.478-1.931,1.175-1.117-.303-2.309-1.562-2.115-2.274,.193-.712,1.256-1.043,2.373-.739,1.117,.303,1.866,1.127,1.673,1.838Z" style="fill:#263238;"></path><path d="M295.765,315.899c.229,.701,.076,1.701-1.188,2.114s-3.16,.084-3.389-.617c-.229-.701,.609-1.605,1.873-2.018s2.475-.18,2.704,.521Z" style="fill:#263238;"></path><path d="M304.766,325.072c.861,.272,1.777,1.041,1.376,2.309s-1.966,2.556-2.828,2.284c-.861-.272-1.235-1.521-.834-2.789,.401-1.268,1.424-2.075,2.285-1.803Z" style="fill:#263238;"></path><path d="M310.083,303.713c.861,.272,1.777,1.041,1.376,2.309-.401,1.268-1.966,2.556-2.828,2.283-.861-.272-1.235-1.521-.834-2.789,.401-1.268,1.424-2.075,2.285-1.803Z" style="fill:#263238;"></path><path d="M302.739,309.132c-.807,.305-1.949,.271-2.399-.918s-.036-3.081,.771-3.387c.807-.305,1.826,.411,2.276,1.6,.449,1.189,.159,2.4-.648,2.705Z" style="fill:#263238;"></path><path d="M309.851,336.392c-.807,.305-1.949,.271-2.399-.918-.45-1.189-.036-3.082,.771-3.387,.807-.305,1.826,.411,2.276,1.6s.159,2.4-.648,2.705Z" style="fill:#263238;"></path><path d="M305.093,302.632c-.807,.305-1.949,.27-2.399-.918-.449-1.189-.036-3.081,.771-3.387,.807-.305,1.826,.411,2.276,1.6s.159,2.4-.648,2.705Z" style="fill:#263238;"></path><path d="M296.417,305.951c-.807,.305-1.949,.271-2.399-.918s-.036-3.081,.771-3.387c.807-.305,1.826,.411,2.276,1.6s.159,2.4-.648,2.705Z" style="fill:#263238;"></path><path d="M291.474,322.594c.295,.811,.245,1.953-.949,2.387-1.194,.434-3.082-.004-3.376-.815-.295-.811,.435-1.821,1.629-2.255,1.195-.434,2.402-.128,2.697,.683Z" style="fill:#263238;"></path><path d="M301.539,322.842c.229,.701,.076,1.701-1.188,2.114s-3.16,.084-3.389-.617c-.229-.701,.609-1.605,1.873-2.018s2.475-.18,2.704,.521Z" style="fill:#263238;"></path></g><g><path d="M262.723,350.217c3.525-3.557,5.145-8.731,4.977-13.736-.168-5.004-2.197-11.397-7.486-15.827,.077,.451-1.548-14.432-9.321-19.221-6.611-4.074-17.964-3.537-24.63,.447-5.153,3.08-8.785,8.182-11.577,13.497s-4.899,10.978-7.881,16.19c-2.239,3.914-5.077,8.216-3.857,12.556,.638,2.269,2.349,4.124,4.347,5.374,1.999,1.25,4.282,1.961,6.558,2.574,8.484,2.284,17.253,3.373,26.025,3.864,4.043,.226,8.132,.324,12.111-.427,3.98-.751,7.881-2.414,10.732-5.29Z" style="fill:#407BFF;"></path><g style="opacity:.3;"><path d="M213.353,350.743c-1.73-.473-3.679-1.167-4.326-2.839-.444-1.147,.587-5.835,.967-7.004,4.113-12.687,14.786-22.023,25.484-29.987,2.886-2.148,5.845-4.268,9.181-5.617,2.952-1.194,6.259-1.741,9.353-1.081-.91-1.099-1.943-2.057-3.119-2.782-6.611-4.074-17.964-3.537-24.63,.447-5.153,3.08-8.785,8.182-11.577,13.497s-4.899,10.978-7.881,16.19c-2.239,3.914-5.077,8.216-3.857,12.556,.638,2.269,2.349,4.124,4.347,5.374,1.999,1.25,4.282,1.961,6.558,2.574,8.484,2.284,17.253,3.373,26.025,3.864,4.043,.226,8.132,.324,12.111-.427,.546-.103,1.089-.225,1.63-.363-9.393,.95-27.297-.855-40.267-4.401Z" style="fill:#fff;"></path></g><path d="M226.89,338.828l-.028-.582c-.75-.072-1.523,.124-2.147,.545-.264,.178-.508,.403-.638,.693-.13,.29-.127,.655,.069,.905,.188,.24,.521,.335,.824,.294s.578-.198,.819-.384c.491-.379,.876-.893,1.102-1.471Z" style="fill:#fff;"></path><path d="M213.942,343.807l-.028-.582c-.75-.072-1.522,.124-2.147,.545-.264,.178-.508,.403-.638,.693-.13,.29-.127,.655,.069,.905,.188,.24,.521,.334,.824,.294,.302-.041,.578-.198,.819-.384,.491-.379,.876-.893,1.102-1.471Z" style="fill:#fff;"></path><path d="M215.075,331.501l-.028-.582c-.75-.072-1.523,.124-2.147,.545-.264,.178-.508,.403-.638,.693-.13,.29-.127,.655,.069,.905,.188,.24,.521,.335,.824,.294,.302-.041,.578-.198,.82-.384,.491-.379,.876-.893,1.102-1.471Z" style="fill:#fff;"></path><path d="M226.671,327.18l-.028-.582c-.75-.072-1.523,.124-2.147,.545-.264,.178-.508,.403-.638,.693-.13,.29-.127,.655,.069,.905,.188,.24,.521,.335,.824,.294,.302-.04,.578-.198,.819-.384,.491-.379,.876-.893,1.102-1.471Z" style="fill:#fff;"></path><path d="M222.129,315.832l-.028-.582c-.75-.072-1.523,.124-2.147,.545-.264,.178-.508,.403-.638,.693-.13,.29-.127,.655,.069,.905,.188,.24,.521,.335,.824,.294,.302-.041,.578-.198,.819-.384,.491-.379,.876-.893,1.102-1.471Z" style="fill:#fff;"></path><path d="M240.549,342.903l-.028-.582c-.75-.072-1.523,.124-2.148,.545-.264,.178-.508,.403-.638,.693-.13,.29-.127,.655,.069,.905,.188,.24,.521,.335,.824,.294,.302-.04,.578-.198,.819-.384,.491-.379,.876-.893,1.102-1.471Z" style="fill:#fff;"></path><path d="M243.102,351.891l-.028-.582c-.75-.072-1.523,.124-2.147,.545-.264,.178-.508,.403-.638,.693-.13,.29-.127,.655,.069,.905,.188,.24,.521,.335,.824,.294,.302-.04,.578-.198,.819-.384,.491-.379,.876-.893,1.102-1.471Z" style="fill:#fff;"></path><path d="M229.368,350.108l.249-.527c-.628-.417-1.402-.608-2.151-.531-.316,.033-.638,.116-.889,.31-.252,.195-.421,.518-.366,.831,.053,.301,.302,.541,.588,.647,.286,.107,.603,.098,.904,.047,.611-.103,1.193-.375,1.664-.778Z" style="fill:#fff;"></path><path d="M233.988,317.606l-.028-.582c-.75-.072-1.523,.124-2.147,.545-.264,.178-.508,.403-.638,.693-.13,.29-.127,.655,.069,.905,.188,.24,.522,.335,.824,.294,.303-.041,.578-.198,.82-.384,.491-.379,.876-.893,1.102-1.471Z" style="fill:#fff;"></path><path d="M234.706,305.672l-.028-.582c-.75-.072-1.523,.124-2.147,.545-.264,.178-.508,.402-.638,.693-.13,.29-.127,.655,.069,.905,.188,.24,.522,.335,.824,.294,.303-.041,.578-.198,.82-.384,.491-.379,.876-.893,1.102-1.471Z" style="fill:#fff;"></path><path d="M238.085,331.221l-.028-.582c-.75-.072-1.523,.124-2.147,.545-.264,.178-.508,.403-.638,.693-.13,.29-.127,.655,.069,.905,.188,.24,.522,.335,.824,.294,.303-.04,.578-.198,.82-.384,.491-.379,.876-.893,1.102-1.471Z" style="fill:#fff;"></path><path d="M249.53,334.77l-.028-.582c-.75-.072-1.523,.124-2.147,.545-.264,.178-.508,.403-.638,.693-.13,.29-.127,.655,.069,.905,.188,.24,.522,.335,.824,.294,.303-.04,.578-.198,.82-.384,.491-.379,.876-.893,1.102-1.471Z" style="fill:#fff;"></path><path d="M254.244,349.066l-.028-.582c-.75-.072-1.523,.124-2.148,.545-.264,.178-.508,.402-.638,.693-.13,.29-.127,.655,.069,.905,.188,.24,.521,.335,.824,.294,.303-.04,.578-.198,.819-.384,.491-.379,.876-.893,1.102-1.471Z" style="fill:#fff;"></path><path d="M245.886,317.064l.081-.577c-.723-.211-1.519-.163-2.211,.133-.292,.125-.574,.3-.757,.561-.182,.261-.247,.619-.102,.902,.14,.271,.45,.426,.754,.443,.305,.017,.605-.086,.877-.224,.553-.28,1.028-.713,1.357-1.238Z" style="fill:#fff;"></path><path d="M255.465,324.379l.081-.577c-.723-.211-1.519-.163-2.212,.133-.292,.125-.574,.3-.757,.561-.182,.261-.248,.62-.102,.902,.14,.271,.45,.426,.754,.443,.305,.017,.605-.086,.877-.224,.553-.28,1.028-.713,1.357-1.238Z" style="fill:#fff;"></path><path d="M261.865,337.219l.081-.577c-.723-.211-1.519-.163-2.212,.133-.292,.125-.574,.3-.757,.561-.182,.261-.247,.62-.102,.902,.14,.271,.45,.426,.754,.443,.305,.017,.605-.086,.877-.224,.553-.28,1.028-.713,1.357-1.238Z" style="fill:#fff;"></path><path d="M247.742,304.29l.081-.577c-.723-.211-1.519-.163-2.211,.133-.292,.125-.574,.3-.757,.561-.182,.261-.248,.619-.102,.902,.14,.271,.45,.426,.754,.443,.305,.017,.605-.086,.877-.224,.553-.28,1.028-.713,1.357-1.238Z" style="fill:#fff;"></path></g><g><path d="M290.528,203.946c-.337-5.524-3.263-10.836-7.752-14.074,.116,5.62,1.523,11.211,4.081,16.216-2.503-1.418-5.029-2.846-7.77-3.719-2.741-.873-5.75-1.16-8.487-.273,5.991,4.692,13.684,7.161,21.286,6.832,4.513-4.966,8.673-10.236,13.186-15.201-6.204,.462-12.006,4.539-14.544,10.219Z" style="fill:#263238;"></path><g><path d="M320.739,209.316c-3.003-4.05-7.905-6.45-12.912-7.045s-11.677,.451-16.892,5.039c.461-.008-14.598-.657-20.548,6.348-5.061,5.959-6.256,17.339-3.307,24.58,2.28,5.598,6.805,9.989,11.669,13.577s10.179,6.548,14.912,10.309c3.554,2.824,7.403,6.304,11.909,5.751,2.356-.29,4.462-1.709,6.01-3.508,1.548-1.799,2.604-3.963,3.561-6.135,3.565-8.095,5.985-16.656,7.809-25.312,.841-3.99,1.561-8.043,1.42-12.118s-1.202-8.211-3.63-11.486Z" style="fill:#407BFF;"></path><g style="opacity:.3;"><path d="M304.611,265.31c-2.802,0-5.65-2.291-8.404-4.507l-.914-.732c-2.751-2.185-5.689-4.108-8.53-5.968-2.154-1.409-4.381-2.867-6.456-4.398-5.505-4.061-9.037-8.136-10.797-12.456-2.714-6.662-1.37-16.892,2.877-21.892,3.411-4.017,11.651-5.442,17.671-5.442,.369,0,.613,.006,.703,.011l1.128,.107,.781-.754c4.486-3.946,9.789-4.535,12.551-4.535,.778,0,1.551,.045,2.297,.133,4.643,.551,8.693,2.739,11.114,6.003,2.4,3.237,3.019,7.233,3.115,10.015,.124,3.569-.456,7.172-1.365,11.485-2.025,9.605-4.525,17.715-7.643,24.796-.987,2.241-1.9,4.031-3.148,5.481-1.293,1.502-2.834,2.43-4.342,2.616-.211,.026-.425,.039-.638,.039h0Z" style="fill:#fff;"></path></g><g style="opacity:.3;"><path d="M316.561,233.78c-2.064,.786-4.555-.338-5.651-2.255-1.096-1.917-.92-4.392,.102-6.35s2.79-3.441,4.723-4.507c-3.601,1.01-7.796-.947-9.336-4.355-1.54-3.408-.238-7.849,2.899-9.886-3.501-.403-6.9-1.645-9.846-3.578-2.943,.761-5.912,2.169-8.517,4.461,.369-.007-9.197-.419-16.085,3.004,1.244,2.471,1.223,5.541,.276,8.181-1.115,3.109-3.33,5.702-5.727,7.974,2.971-1.739,7.22-.763,9.135,2.098,1.914,2.861,1.196,7.161-1.544,9.245,2.291-1.41,5.357-2.21,7.6-.724,2.039,1.351,2.64,4.19,2.067,6.567-.573,2.377-2.076,4.406-3.544,6.362,2.777-2.602,7.152-3.704,10.524-1.943,3.373,1.761,4.864,6.729,2.438,9.66,1.42-1.907,4.038-2.788,6.353-2.248,1.744,.407,3.264,1.572,4.217,3.09-.661-1.965-.531-4.201,.439-6.038,1.245-2.357,3.807-3.961,6.471-4.05-2.419-1.571-2.968-5.04-2.028-7.766,.94-2.726,3.016-4.883,5.033-6.944Z" style="fill:#fff;"></path></g><path d="M298.918,203.002c-2.766,.789-5.535,2.155-7.982,4.308,.324-.006-7.027-.325-13.488,1.921,1.65,5.438,14.669,42.38,22.254,41.214,8.038-1.237,12.366-5.874,8.038-24.423-3.332-14.279-7.211-20.781-8.821-23.02Z" style="fill:#fff; opacity:.3;"></path><path d="M302.87,221.594c-2.327-9.973-5.852-15.423-7.284-17.334-1.618,.771-3.192,1.768-4.65,3.051,.261-.005-4.473-.214-9.705,.884,2.261,6.15,14.556,36.466,19.595,35.69,5.528-.85,5.02-9.535,2.044-22.291Z" style="fill:#fff;"></path></g></g><g><path d="M343.332,296.427c-5.509,.528-10.717,3.636-13.797,8.235,5.613-.311,11.151-1.91,16.065-4.641-1.33,2.551-2.67,5.124-3.448,7.894-.777,2.77-.96,5.787,.021,8.491,4.482-6.15,6.683-13.924,6.091-21.51-5.119-4.338-10.53-8.313-15.649-12.651,.677,6.184,4.952,11.842,10.716,14.182Z" style="fill:#263238;"></path><g><path d="M347.653,266.048c-3.943,3.141-6.173,8.124-6.593,13.148-.421,5.024,.855,11.654,5.621,16.707-.024-.46-.151,14.612,7.056,20.316,6.131,4.852,17.545,5.652,24.679,2.453,5.515-2.473,9.747-7.147,13.165-12.132,3.418-4.985,6.191-10.4,9.786-15.26,2.699-3.65,6.044-7.617,5.334-12.101-.371-2.344-1.863-4.4-3.714-5.885-1.851-1.485-4.051-2.465-6.255-3.346-8.214-3.282-16.854-5.404-25.567-6.928-4.016-.702-8.092-1.282-12.16-.999-4.068,.283-8.164,1.486-11.354,4.026Z" style="fill:#407BFF;"></path><g style="opacity:.3;"><path d="M404.172,280.227c.097,2.8-2.094,5.726-4.213,8.555l-.7,.939c-2.089,2.825-3.909,5.828-5.669,8.732-1.334,2.201-2.713,4.478-4.172,6.604-3.868,5.643-7.818,9.313-12.074,11.222-6.564,2.943-16.834,1.954-21.979-2.117-4.133-3.27-5.843-11.456-6.051-17.472-.013-.369-.015-.613-.013-.703l.068-1.131-.781-.755c-4.099-4.346-4.871-9.626-4.967-12.386-.027-.778-.009-1.551,.054-2.3,.39-4.659,2.436-8.783,5.614-11.316,3.152-2.51,7.124-3.267,9.901-3.46,3.563-.247,7.184,.207,11.525,.967,9.669,1.691,17.861,3.909,25.046,6.78,2.274,.909,4.094,1.759,5.586,2.956,1.546,1.24,2.527,2.748,2.765,4.249,.033,.21,.053,.424,.061,.636h0Z" style="fill:#fff;"></path></g><g style="opacity:.3;"><path d="M372.246,269.377c.857,2.035-.18,4.564-2.058,5.726-1.878,1.162-4.358,1.071-6.349,.118-1.991-.954-3.536-2.669-4.668-4.565,1.134,3.564-.676,7.824-4.029,9.482-3.353,1.658-7.836,.51-9.98-2.555-.281,3.513-1.405,6.953-3.234,9.964,.862,2.915,2.372,5.833,4.754,8.358-.019-.368-.1,9.206,3.559,15.971,2.426-1.329,5.495-1.414,8.167-.559,3.146,1.007,5.814,3.13,8.168,5.448-1.84-2.909-1.012-7.19,1.781-9.202s7.116-1.443,9.293,1.223c-1.488-2.241-2.394-5.277-.986-7.57,1.279-2.084,4.096-2.784,6.492-2.293,2.396,.49,4.475,1.922,6.481,3.321-2.696-2.685-3.95-7.019-2.306-10.451,1.643-3.432,6.557-5.095,9.57-2.771-1.955-1.353-2.926-3.939-2.467-6.271,.346-1.757,1.458-3.317,2.942-4.322-1.94,.729-4.18,.677-6.049-.229-2.399-1.163-4.09-3.667-4.272-6.327-1.486,2.471-4.934,3.141-7.691,2.296s-4.984-2.846-7.115-4.789Z" style="fill:#fff;"></path></g><path d="M342.098,288.075c.885,2.737,2.345,5.457,4.582,7.828-.017-.324-.081,7.034,2.387,13.413,5.378-1.837,41.847-16.128,40.418-23.668-1.514-7.99-6.299-12.155-24.687-7.187-14.155,3.824-20.519,7.926-22.701,9.613Z" style="fill:#fff; opacity:.3;"></path><path d="M360.542,283.481c-9.886,2.671-15.211,6.383-17.072,7.88,.826,1.59,1.877,3.129,3.211,4.542-.014-.261-.059,4.477,1.219,9.668,6.068-2.472,35.94-15.81,34.99-20.82-1.041-5.495-9.703-4.687-22.348-1.271Z" style="fill:#fff;"></path></g></g><g><g><path d="M362.671,342.856c-7.501,6.075-19.767,5.277-28.562,1.298-8.794-3.978-15.308-12.142-18.483-21.257-3.175-9.115-3.238-19.101-1.503-28.596,2.567-14.043,9.596-27.956,21.77-35.411,9.145-5.6,20.737-7.03,30.969-3.821,3.897,1.222,7.79,3.261,9.876,6.772,2.799,4.711,1.6,10.888-1.156,15.624-2.755,4.736-6.854,8.522-10.241,12.83-3.387,4.307-6.166,9.587-5.524,15.029,0,0-.266,5.823,6.556,21.446,3.854,8.826-3.703,16.086-3.703,16.086Z" style="fill:#407BFF;"></path><g><path d="M327.951,288.026c9.397,.217,18.787,2.285,27.41,6.025l-3.41-.877c-7.917-2.117-15.927-3.733-23.999-5.148h0Z" style="fill:#fff; opacity:.3;"></path><path d="M340.267,276.933c6.34,3.857,12.283,8.265,17.804,13.225-6.344-3.852-12.28-8.269-17.804-13.225h0Z" style="fill:#fff; opacity:.3;"></path><path d="M351.109,270.864c4.564,3.799,8.644,8.074,12.212,12.821-4.568-3.795-8.64-8.078-12.212-12.821h0Z" style="fill:#fff; opacity:.3;"></path><path d="M365.382,266.19c1.301,4.503,2.884,8.625,4.918,12.847-3.192-3.408-5.013-8.18-4.918-12.847h0Z" style="fill:#fff; opacity:.3;"></path><path d="M325.582,308.876c9.417-1.872,19.024-3.082,28.613-3.601-9.419,1.873-19.024,3.081-28.613,3.601h0Z" style="fill:#fff; opacity:.3;"></path><path d="M328.753,299.113c7.451-.317,14.878,.044,22.261,1.1-7.452,.323-14.878-.05-22.261-1.1h0Z" style="fill:#fff; opacity:.3;"></path><path d="M335.89,321.416c7.261-2.389,14.685-4.118,22.257-5.167-7.26,2.394-14.686,4.112-22.257,5.167h0Z" style="fill:#fff; opacity:.3;"></path><path d="M339.884,329.824c5.579-2.89,11.413-5.149,17.487-6.757-5.577,2.895-11.415,5.144-17.487,6.757h0Z" style="fill:#fff; opacity:.3;"></path><path d="M349.807,338.932c2.099-1.682,4.497-2.754,7.154-3.18-2.097,1.687-4.499,2.749-7.154,3.18h0Z" style="fill:#fff; opacity:.3;"></path></g><path d="M366.862,255.072c-10.232-3.21-21.824-1.779-30.969,3.821-12.174,7.455-19.203,21.368-21.77,35.411-1.736,9.495-1.672,19.481,1.503,28.596,3.175,9.115,9.689,17.279,18.483,21.257,5.438,2.46,12.202,3.702,18.347,2.857-14.181-5.246-30.294-12.282-32.494-38.514-2.638-31.452,20.305-54.143,44.588-50.498,11.049,1.658,12.319,9.854,12.702,15.872,1.428-4.004,1.619-8.441-.513-12.029-2.086-3.511-5.98-5.55-9.876-6.772Z" style="opacity:.3;"></path></g><g style="opacity:.2;"><path d="M371.158,264.735c-1.758-2.022-4.39-3.125-7.04-3.521-7.338-1.095-14.422,2.71-20.868,6.385-2.722,1.552-5.63,3.31-6.802,6.216-1.173,2.906,.655,7.09,3.784,6.925-3.959,.443-8.131,.969-11.308,3.372-3.177,2.404-4.775,7.373-2.253,10.457,1.827,2.234,5.008,2.705,7.885,2.925,6.627,.507,15.373,.812,22.002,.338,2.732-3.665,5.007-6.537,8.323-10.265,2.898-3.258,5.556-6.498,7.317-10.487,1.761-3.989,1.819-9.055-1.042-12.346Z" style="fill:#fff;"></path></g><g style="opacity:.2;"><path d="M356.198,302.399c-7.06,.691-14.121,1.382-21.181,2.073-1.434,.14-2.889,.285-4.23,.775-1.341,.49-2.578,1.377-3.114,2.612-.692,1.596-.107,3.404,.595,4.997,.647,1.469,1.472,2.983,2.944,3.801,1.667,.925,3.766,.746,5.693,.501,5.571-.708,11.098-1.712,16.545-3.005,1.154-.274,2.385-.609,3.125-1.471,.623-.725,.779-1.696,.837-2.62,.141-2.236-.472-5.532-1.214-7.664Z" style="fill:#fff;"></path></g></g><g><ellipse cx="256.536" cy="431.166" rx="54.838" ry="12.139" style="fill:#263238;"></ellipse><path d="M392.562,304.305c-15.308,16.575-71.556,28.872-138.615,28.872s-123.308-12.297-138.615-28.872h-19.302c0,70.615,71.1,127.86,158.806,127.86s158.805-57.245,158.805-127.86h-21.079Z" style="fill:#263238;"></path><path d="M413.781,302.128c-.573,20.126-34.192,31.682-50.441,36.563-64.806,18.175-152.037,18.186-216.87,.001-16.356-4.912-49.856-16.46-50.441-36.564,.071,7.515,5.402,13.613,11.011,18.028,50.703,36.368,174.653,35.983,234.887,23.151,20.118-4.172,70.762-16.486,71.854-41.179h0Z" style="fill:#fff; opacity:.3;"></path></g></g></g><g id="freepik--Clementine_slice--inject-21"><g><g><path d="M275.376,172.892c-4.391-7.946-1.633-19.173,3.498-26.662,5.132-7.489,13.763-12.177,22.726-13.617,8.963-1.44,18.22,.145,26.727,3.315,12.581,4.688,24.308,13.486,29.208,25.987,3.681,9.39,3.097,20.36-1.559,29.307-1.773,3.407-4.302,6.677-7.896,8.031-4.823,1.817-10.345-.31-14.278-3.641-3.932-3.331-6.764-7.749-10.195-11.595-3.431-3.846-7.863-7.288-13.007-7.589,0,0-5.348-1.205-20.938,2.542-8.807,2.117-14.286-6.077-14.286-6.077Z" style="fill:#407BFF;"></path><g><path d="M331.863,149.765c-1.708,8.676-5.173,17.042-10.09,24.39,3.611-7.768,7.162-16.34,10.09-24.39h0Z" style="fill:#fff; opacity:.3;"></path><path d="M340.109,162.996c-4.587,5.266-9.647,10.044-15.177,14.31,4.583-5.27,9.65-10.04,15.177-14.31h0Z" style="fill:#fff; opacity:.3;"></path><path d="M343.944,174.035c-4.246,3.635-8.877,6.71-13.883,9.199,4.243-3.639,8.88-6.705,13.883-9.199h0Z" style="fill:#fff; opacity:.3;"></path><path d="M345.924,188.021c-4.386,.505-8.444,1.289-12.706,2.439,3.663-2.433,8.403-3.337,12.706-2.439h0Z" style="fill:#fff; opacity:.3;"></path><path d="M312.946,144.14c.224,9.029-.237,18.128-1.375,27.088-.225-9.03,.237-18.128,1.375-27.088h0Z" style="fill:#fff; opacity:.3;"></path><path d="M321.465,148.684c-.893,6.961-2.45,13.779-4.683,20.433,.887-6.962,2.455-13.778,4.683-20.433h0Z" style="fill:#fff; opacity:.3;"></path><path d="M299.637,151.622c1.057,7.115,1.437,14.274,1.122,21.46-1.063-7.114-1.432-14.274-1.122-21.46h0Z" style="fill:#fff; opacity:.3;"></path><path d="M291.194,153.936c1.797,5.634,2.93,11.408,3.379,17.305-1.803-5.633-2.925-11.409-3.379-17.305h0Z" style="fill:#fff; opacity:.3;"></path><path d="M281.127,161.626c1.252,2.21,1.85,4.608,1.767,7.148-1.257-2.209-1.845-4.609-1.767-7.148h0Z" style="fill:#fff; opacity:.3;"></path></g><path d="M355.976,191.221c4.656-8.947,5.239-19.916,1.559-29.307-4.9-12.501-16.626-21.299-29.208-25.987-8.507-3.17-17.764-4.754-26.727-3.315s-17.595,6.128-22.726,13.617c-3.173,4.631-5.436,10.69-5.665,16.52,7.192-12.269,16.359-26.031,41.012-23.752,29.559,2.733,46.795,27.713,39.424,49.6-3.354,9.958-11.153,9.786-16.788,9.15,3.473,1.981,7.55,2.888,11.223,1.505,3.594-1.354,6.123-4.624,7.896-8.031Z" style="opacity:.2;"></path></g><g style="opacity:.2;"><path d="M346.32,193.609c2.162-1.295,3.616-3.551,4.419-5.94,2.222-6.615-.136-13.801-2.478-20.375-.989-2.776-2.139-5.758-4.636-7.322s-6.673-.56-7.035,2.365c.241-3.739,.441-7.688-1.262-11.026-1.703-3.337-6.041-5.635-9.312-3.807-2.369,1.324-3.329,4.192-4.006,6.82-1.56,6.053-3.282,14.102-3.934,20.319,2.944,3.133,5.229,5.712,8.136,9.397,2.54,3.22,5.103,6.215,8.507,8.502,3.404,2.287,8.086,3.175,11.604,1.067Z" style="fill:#fff;"></path></g><g style="opacity:.2;"><path d="M313.905,173.557c.522-6.652,1.044-13.304,1.566-19.956,.106-1.351,.211-2.722-.022-4.045-.233-1.323-.85-2.614-1.907-3.314-1.364-.904-3.135-.659-4.725-.271-1.467,.358-3.005,.872-4.004,2.101-1.131,1.392-1.31,3.364-1.401,5.189-.261,5.276-.241,10.559,.06,15.815,.064,1.114,.171,2.309,.847,3.136,.569,.696,1.442,1.001,2.288,1.207,2.047,.498,5.2,.474,7.296,.137Z" style="fill:#fff;"></path></g></g></g><g id="freepik--Cherries--inject-21"><g><g><path d="M242.308,92.15c-.133,.424-3.481-3.887-11.969-1.751-8.489,2.136-13.773,11.962-10.006,24.02,4.099,13.12,13.879,19.786,29.237,17.472,15.358-2.314,18.139-13.675,19.014-16.362,2.327-7.142,1.535-22.661-7.965-26.968-10.453-4.739-17.292,.357-18.311,3.589Z" style="fill:#263238;"></path><g style="opacity:.3;"><path d="M248.444,91.361c-1.188,1.897-2.997,3.481-5.21,3.82-1.491,.228-3.011-.03-4.483-.362-1.404-.317-2.793-.7-4.16-1.149,0,0,5.284-.65,7.227-.514,1.943,.136,3.351-2.303,4.797-2.671,1.445-.368,2.55-.276,1.828,.876Z"></path></g><g style="opacity:.3;"><path d="M228.211,95.285c-3.734,1.414-5.761,4.096-6.573,8.005-.811,3.909,.016,9.686,3.655,14.409-.597-4.063,.598-11.325,3.214-14.49s6.607-5.152,10.709-5.331c-6.46-1.086-7.759-2.14-11.005-2.593Z" style="fill:#fff;"></path></g><g style="opacity:.2;"><path d="M260.619,88.562c-1.607-.728-3.128-1.224-4.556-1.53,.239,.124,.486,.234,.719,.335,5.558,2.403,9.533,7.89,10.595,13.851s-.642,12.261-4.138,17.205c-5.465,7.729-15.369,12.065-24.755,10.838-5.421-.709-10.53-3.258-14.516-6.993,5.154,7.814,13.703,11.415,25.602,9.623,15.358-2.314,18.139-13.675,19.014-16.362,2.327-7.142,1.535-22.661-7.965-26.968Z"></path></g><g style="opacity:.3;"><path d="M258.908,91.447c-1.653-2.136-4.895-2.849-7.292-1.603l-.136,.507c-.508,1.303-1.016,2.607-1.524,3.911-.117,.3-.236,.625-.154,.937,.149,.567,.844,.763,1.427,.828,2.137,.238,4.323,.026,6.374-.617,.711-.223,1.461-.543,1.826-1.194,.487-.868,.089-1.98-.52-2.768Z" style="fill:#fff;"></path></g></g><path d="M231.486,97.459c-.247-.395-.623-.699-1.044-.897-2.948-1.381-4.195,.727-5.831,2.86-1.53,1.994-2.431,6.132-1.492,6.592,.94,.461,3.511-4.079,7.381-6.508,1.273-.799,1.413-1.365,.986-2.048Z" style="fill:#fff; opacity:.5;"></path><path d="M235.845,127.098s8.261,2.368,16.841-2.285c8.58-4.653,8.81-8.392,8.81-8.392,0,0-7.164,8.579-25.651,10.677Z" style="opacity:.1;"></path></g><g><g><path d="M122.216,407.441c-.015,.445-4.407-2.817-12.03,1.53-7.622,4.347-10.081,15.258-3.198,25.888,7.489,11.567,18.727,15.372,32.935,9.004,14.208-6.368,13.836-18.087,13.958-20.917,.325-7.523-4.616-22.296-14.949-23.898-11.369-1.763-16.603,4.998-16.716,8.393Z" style="fill:#263238;"></path><g style="opacity:.3;"><path d="M127.928,405.028c-.637,2.152-1.957,4.168-4.003,5.091-1.378,.622-2.916,.781-4.426,.857-1.441,.072-2.885,.075-4.326,.01,0,0,4.928-2.049,6.841-2.441,1.913-.392,2.616-3.126,3.913-3.87,1.297-.744,2.388-.953,2.001,.354Z"></path></g><g style="opacity:.3;"><path d="M109.446,414.262c-3.225,2.37-4.461,5.506-4.193,9.499,.268,3.993,2.623,9.35,7.407,12.931-1.67-3.762-2.47-11.097-.795-14.857,1.674-3.761,4.993-6.753,8.907-8.03-6.531,.69-8.069,.021-11.326,.458Z" style="fill:#fff;"></path></g><g style="opacity:.2;"><path d="M138.932,399.048c-1.748-.271-3.35-.34-4.811-.251,.264,.055,.532,.095,.785,.13,6.014,.825,11.329,5.053,13.958,10.525,2.629,5.471,2.679,12.012,.634,17.728-3.197,8.934-11.595,15.787-20.988,17.128-5.426,.775-11.046-.312-15.9-2.846,7.08,6.159,16.304,7.336,27.313,2.402,14.208-6.368,13.836-18.087,13.958-20.917,.325-7.523-4.616-22.296-14.949-23.898Z"></path></g><g style="opacity:.3;"><path d="M138.056,402.294c-2.171-1.618-5.494-1.434-7.473,.414l.005,.526c-.14,1.395-.279,2.791-.419,4.186-.032,.321-.059,.667,.104,.946,.297,.507,1.02,.51,1.601,.416,2.128-.345,4.181-1.138,5.989-2.312,.627-.407,1.265-.918,1.442-1.644,.237-.97-.447-1.937-1.247-2.533Z" style="fill:#fff;"></path></g></g><path d="M113.193,415.48c-.344-.315-.789-.508-1.25-.585-3.219-.54-3.855,1.831-4.861,4.331-.941,2.337-.698,6.576,.333,6.767s2.293-4.883,5.376-8.27c1.014-1.114,.997-1.698,.402-2.243Z" style="fill:#fff; opacity:.5;"></path><path d="M125.38,442.927s8.614,.063,15.647-6.739c7.033-6.802,6.249-10.474,6.249-10.474,0,0-4.609,10.212-21.897,17.213Z" style="opacity:.1;"></path></g></g><g id="freepik--Strawberries--inject-21"><g><path d="M202.394,152.85c4.687-2.944,7.946-8.058,8.635-13.549-4.877,2.796-9.109,6.71-12.275,11.355,.045-2.876,.087-5.778-.461-8.602-.548-2.824-1.738-5.603-3.828-7.579-1.246,7.507,.275,15.442,4.208,21.957,6.521,1.581,13.14,2.705,19.662,4.286-3.38-5.223-9.739-8.361-15.94-7.866Z" style="fill:#263238;"></path><g><path d="M212.162,181.938c2.115-4.576,1.872-10.03-.006-14.708-1.878-4.678-5.993-10.032-12.52-12.409,.228,.4-6.421-13.127-15.421-14.991-7.656-1.585-18.216,2.821-23.157,8.88-3.819,4.685-5.505,10.76-6.322,16.749-.818,5.989-.867,12.072-1.899,18.028-.775,4.473-1.984,9.519,.662,13.208,1.383,1.929,3.639,3.096,5.96,3.593,2.321,.497,4.726,.386,7.091,.184,8.814-.752,17.487-2.732,25.958-5.279,3.905-1.174,7.807-2.485,11.316-4.563,3.508-2.078,6.63-4.991,8.34-8.692Z" style="fill:#407BFF;"></path><g style="opacity:.3;"><path d="M155.29,194.625c-1.343-2.459-.697-6.057-.073-9.536l.204-1.154c.599-3.462,.879-6.962,1.149-10.347,.205-2.566,.416-5.219,.765-7.774,.925-6.779,2.808-11.831,5.756-15.446,4.546-5.575,14.168-9.299,20.592-7.969,5.16,1.068,10.361,7.617,13.247,12.9,.177,.324,.288,.541,.327,.622l.447,1.041,1.037,.324c5.613,2.045,8.672,6.417,9.996,8.841,.373,.683,.704,1.382,.984,2.08,1.742,4.339,1.763,8.943,.06,12.631-1.691,3.658-4.901,6.117-7.296,7.535-3.073,1.819-6.513,3.038-10.734,4.307-9.4,2.827-17.717,4.52-25.425,5.178-2.44,.208-4.449,.265-6.319-.135-1.938-.415-3.492-1.323-4.377-2.557-.124-.173-.238-.355-.34-.541h0Z" style="fill:#fff;"></path></g><g style="opacity:.3;"><path d="M188.69,189.998c-1.679-1.435-1.887-4.16-.73-6.04,1.157-1.881,3.414-2.913,5.622-2.954,2.208-.041,4.357,.799,6.22,1.985-2.612-2.677-2.906-7.296-.653-10.282,2.253-2.986,6.775-3.972,10.066-2.194-1.325-3.266-1.864-6.844-1.58-10.356-2.078-2.218-4.737-4.149-7.998-5.336,.183,.32-4.041-8.273-10.346-12.676-1.572,2.276-4.277,3.729-7.048,4.164-3.263,.512-6.6-.189-9.744-1.204,2.95,1.774,4.13,5.971,2.537,9.023-1.593,3.052-5.712,4.482-8.854,3.076,2.336,1.335,4.507,3.642,4.278,6.323-.208,2.437-2.412,4.325-4.773,4.962-2.361,.637-4.862,.29-7.282-.06,3.614,1.19,6.679,4.501,6.75,8.305,.071,3.804-3.574,7.495-7.309,6.77,2.354,.332,4.382,2.207,5.018,4.498,.479,1.726,.185,3.618-.69,5.182,1.407-1.522,3.432-2.48,5.509-2.509,2.665-.037,5.301,1.442,6.656,3.738,.219-2.875,3-5.021,5.843-5.503,2.843-.482,5.731,.307,8.507,1.088Z" style="fill:#fff;"></path></g><path d="M207.244,159.761c-2.019-2.05-4.544-3.825-7.608-4.94,.16,.282-3.083-6.323-8.151-10.917-3.982,4.055-30.163,33.189-25.503,39.286,4.938,6.461,11.083,8.037,25.287-4.653,10.935-9.769,14.782-16.29,15.975-18.776Z" style="fill:#fff; opacity:.3;"></path><path d="M192.822,172.141c7.637-6.823,10.73-12.529,11.721-14.702-1.452-1.051-3.082-1.954-4.907-2.619,.129,.227-1.956-4.028-5.427-8.093-4.314,4.932-25.026,30.254-21.93,34.305,3.396,4.444,10.774-.164,20.543-8.891Z" style="fill:#fff;"></path></g></g><g><path d="M213.286,450.99c4.163-4.556,5.901-11.01,5.443-17.164-.458-6.155-3.275-13.926-10.01-19.119,.118,.552-2.627-17.696-12.439-23.206-8.346-4.686-22.3-3.459-30.311,1.781-6.193,4.051-10.41,10.515-13.584,17.2s-5.486,13.765-8.897,20.332c-2.562,4.932-5.842,10.372-4.122,15.656,.899,2.763,3.098,4.961,5.622,6.401,2.524,1.439,5.371,2.201,8.206,2.842,10.562,2.389,21.416,3.292,32.244,3.459,4.991,.077,10.031-.007,14.894-1.131,4.864-1.124,9.586-3.367,12.953-7.051Z" style="fill:#407BFF;"></path><g style="opacity:.3;"><path d="M152.512,454.105c-2.154-.496-4.589-1.253-5.469-3.28-.604-1.39,.432-7.215,.841-8.675,4.431-15.83,17.11-27.861,29.887-38.204,3.447-2.79,6.986-5.549,11.026-7.376,3.576-1.618,7.622-2.457,11.465-1.798-1.176-1.308-2.496-2.436-3.981-3.27-8.346-4.686-22.3-3.459-30.311,1.781-6.193,4.051-10.41,10.515-13.584,17.2s-5.486,13.765-8.897,20.332c-2.562,4.932-5.842,10.372-4.122,15.656,.899,2.763,3.098,4.961,5.622,6.401,2.524,1.439,5.371,2.201,8.206,2.842,10.562,2.389,21.416,3.292,32.244,3.459,4.991,.077,10.031-.007,14.894-1.131,.667-.154,1.33-.331,1.989-.529-11.52,1.639-33.661,.31-49.811-3.409Z" style="fill:#fff;"></path></g><path d="M168.588,438.755l-.064-.715c-.927-.051-1.869,.229-2.618,.778-.316,.232-.606,.521-.752,.885-.146,.364-.124,.813,.13,1.112,.244,.287,.659,.386,1.03,.321,.371-.065,.702-.272,.99-.514,.586-.491,1.034-1.144,1.283-1.866Z" style="fill:#fff;"></path><path d="M152.891,445.533l-.064-.715c-.927-.051-1.869,.229-2.617,.778-.316,.232-.606,.521-.751,.885-.146,.364-.124,.813,.13,1.112,.244,.286,.659,.386,1.03,.321,.37-.065,.702-.272,.99-.514,.585-.491,1.034-1.144,1.283-1.866Z" style="fill:#fff;"></path><path d="M153.671,430.321l-.064-.715c-.927-.051-1.869,.229-2.617,.778-.316,.232-.606,.521-.751,.885-.146,.364-.124,.813,.13,1.112,.244,.287,.659,.386,1.03,.321,.37-.065,.702-.272,.99-.514,.585-.491,1.034-1.144,1.283-1.866Z" style="fill:#fff;"></path><path d="M167.736,424.42l-.064-.715c-.927-.051-1.869,.229-2.618,.778-.316,.232-.605,.521-.751,.885-.146,.364-.124,.813,.13,1.112,.244,.287,.659,.386,1.03,.321,.37-.065,.702-.272,.99-.514,.585-.491,1.034-1.144,1.283-1.866Z" style="fill:#fff;"></path><path d="M161.576,410.672l-.064-.715c-.927-.051-1.869,.229-2.618,.778-.316,.232-.606,.521-.751,.885-.146,.364-.124,.813,.13,1.112,.244,.287,.659,.386,1.029,.321,.371-.065,.702-.272,.99-.514,.586-.491,1.034-1.144,1.283-1.866Z" style="fill:#fff;"></path><path d="M185.614,443.091l-.064-.715c-.927-.051-1.869,.229-2.618,.778-.316,.232-.605,.521-.751,.885-.146,.364-.124,.813,.13,1.111,.244,.287,.659,.386,1.029,.321,.371-.065,.702-.272,.99-.514,.586-.491,1.034-1.144,1.283-1.866Z" style="fill:#fff;"></path><path d="M189.207,454.032l-.064-.715c-.927-.051-1.869,.229-2.617,.778-.316,.232-.606,.521-.751,.885-.146,.364-.124,.813,.13,1.112,.244,.287,.659,.386,1.029,.321,.37-.065,.702-.272,.99-.514,.585-.491,1.034-1.144,1.283-1.866Z" style="fill:#fff;"></path><path d="M172.203,452.522l.28-.661c-.794-.482-1.756-.678-2.675-.546-.388,.056-.78,.174-1.08,.427-.3,.252-.492,.659-.409,1.042,.08,.368,.399,.651,.757,.768,.357,.117,.747,.09,1.115,.013,.748-.157,1.451-.522,2.011-1.042Z" style="fill:#fff;"></path><path d="M176.269,412.265l-.064-.715c-.927-.051-1.869,.229-2.617,.778-.316,.232-.605,.521-.751,.885-.146,.364-.124,.813,.13,1.112,.244,.287,.659,.386,1.03,.321,.37-.065,.702-.272,.99-.514,.586-.491,1.034-1.144,1.283-1.866Z" style="fill:#fff;"></path><path d="M176.557,397.531l-.064-.715c-.927-.051-1.869,.229-2.617,.778-.316,.232-.606,.521-.751,.885-.146,.364-.124,.813,.13,1.112,.244,.287,.659,.386,1.029,.321,.371-.065,.702-.272,.99-.514,.585-.491,1.034-1.144,1.283-1.866Z" style="fill:#fff;"></path><path d="M181.995,428.828l-.064-.715c-.927-.051-1.869,.229-2.617,.778-.316,.232-.606,.521-.751,.885-.146,.364-.124,.813,.13,1.111,.244,.287,.659,.386,1.03,.321,.37-.065,.702-.272,.99-.514,.585-.491,1.034-1.144,1.283-1.866Z" style="fill:#fff;"></path><path d="M196.268,432.626l-.064-.715c-.927-.051-1.869,.229-2.617,.778-.316,.232-.606,.521-.752,.885s-.124,.813,.13,1.112c.244,.287,.659,.386,1.029,.321,.371-.065,.702-.272,.99-.514,.586-.491,1.034-1.144,1.283-1.866Z" style="fill:#fff;"></path><path d="M202.787,449.997l-.064-.715c-.927-.051-1.869,.229-2.618,.778-.316,.232-.605,.521-.751,.885-.146,.364-.124,.813,.13,1.111,.244,.287,.659,.386,1.029,.321,.371-.065,.702-.272,.99-.514,.586-.491,1.034-1.144,1.283-1.866Z" style="fill:#fff;"></path><path d="M190.896,411.003l.071-.715c-.901-.224-1.879-.125-2.717,.274-.354,.169-.692,.398-.904,.728-.212,.33-.274,.775-.08,1.116,.186,.327,.575,.503,.951,.508,.376,.005,.74-.136,1.069-.32,.667-.373,1.23-.93,1.61-1.593Z" style="fill:#fff;"></path><path d="M203.058,419.532l.071-.715c-.901-.224-1.879-.125-2.717,.274-.354,.169-.692,.398-.904,.728-.212,.33-.274,.775-.08,1.116,.186,.327,.575,.503,.951,.508,.376,.005,.74-.136,1.069-.32,.667-.373,1.23-.93,1.61-1.593Z" style="fill:#fff;"></path><path d="M211.58,435.026l.071-.715c-.901-.224-1.879-.125-2.717,.274-.354,.169-.692,.398-.904,.729-.212,.33-.274,.775-.08,1.116,.186,.327,.575,.502,.951,.508s.74-.136,1.069-.32c.667-.373,1.23-.93,1.61-1.593Z" style="fill:#fff;"></path><path d="M192.544,395.178l.071-.715c-.901-.224-1.879-.125-2.717,.274-.354,.169-.692,.399-.904,.729-.212,.33-.274,.775-.08,1.116,.186,.327,.575,.503,.951,.508,.376,.006,.74-.136,1.069-.32,.667-.373,1.23-.93,1.61-1.593Z" style="fill:#fff;"></path></g></g></svg>
