<svg xmlns="http://www.w3.org/2000/svg" viewBox="0 0 500 500"><g id="freepik--background-complete--inject-24"><g><g><g><path d="M443.92,320.96h-180.746c-3.232,0-5.862-2.63-5.862-5.862V51.824c0-3.232,2.63-5.862,5.862-5.862h180.746c3.232,0,5.862,2.629,5.862,5.862V315.097c0,3.233-2.63,5.862-5.862,5.862ZM263.174,46.212c-3.095,0-5.612,2.518-5.612,5.612V315.097c0,3.095,2.518,5.612,5.612,5.612h180.746c3.095,0,5.612-2.517,5.612-5.612V51.824c0-3.094-2.518-5.612-5.612-5.612h-180.746Z" style="fill:#e0e0e0;"></path><path d="M235.493,320.96H54.746c-3.232,0-5.862-2.63-5.862-5.862V51.824c0-3.232,2.629-5.862,5.862-5.862H235.493c3.232,0,5.862,2.629,5.862,5.862V315.097c0,3.233-2.63,5.862-5.862,5.862ZM54.746,46.212c-3.094,0-5.612,2.518-5.612,5.612V315.097c0,3.095,2.518,5.612,5.612,5.612H235.493c3.095,0,5.612-2.517,5.612-5.612V51.824c0-3.094-2.518-5.612-5.612-5.612H54.746Z" style="fill:#e0e0e0;"></path></g><rect x="0" y="382.029" width="500" height=".25" style="fill:#e0e0e0;"></rect></g><rect x="51.672" y="396.294" width="16.06" height=".25" style="fill:#e0e0e0;"></rect><rect x="170.352" y="393.584" width="53.53" height=".25" style="fill:#e0e0e0;"></rect><rect x="68.732" y="405.584" width="36.25" height=".25" style="fill:#e0e0e0;"></rect><rect x="378.352" y="393.454" width="43.19" height=".25" style="fill:#e0e0e0;"></rect><rect x="430.452" y="393.454" width="6.33" height=".25" style="fill:#e0e0e0;"></rect><rect x="316.212" y="399.684" width="53.89" height=".25" style="fill:#e0e0e0;"></rect></g><g><g><path d="M423.621,102.071c.756,5.339,.358,10.57-1.595,15.644-3.055,7.932-8.165,13.991-15.154,18.296-3.071,1.892-4.907,2.048-8.406,3.025-3.997,1.116-8.019,1.306-12.038,.749-3.619-.502-5.914-2.985-8.949-5.168-1.046-.753-3.149-.118-4.452,.026-1.039,.115-2.221,.053-3.163-.365-1.606-.713-2.33-3.28-1.462-5.159,.685-1.485,2.064-4.01,1.547-5.409-1.29-3.49-2.47-7.65-2.051-11.302,.562-4.895,2.414-8.528,5.197-12.541,3.153-4.547,4.559-6.378,9.436-9.726,3.599-2.47,7.507-4.223,11.735-5.319,3.602-.933,7.189-1.224,10.834-.798,4.231,.495,8.071,2.113,11.359,4.986,0,0,3.197,3.69,4.82,6.288,1.624,2.598,2.342,6.773,2.342,6.773Z" style="fill:#ebebeb;"></path><path d="M429.525,86.453c-4.262,.136-14.197,9.686-14.467,10.142l1.023,.861s8.467-6.525,10.721-7.193c2.254-.668,4.298,.979,4.298,.979,0,0-.492-4.824-1.575-4.789Z" style="fill:#e0e0e0;"></path><path d="M418.356,98.898c-1.093,0-2.196-.396-3.055-1.1-.901-.74-1.55-1.835-1.779-3.006l.98-.192c.187,.946,.709,1.831,1.434,2.425,.719,.591,1.65,.903,2.564,.87l.041,.999c-.062,.002-.124,.004-.186,.004Z" style="fill:#e0e0e0;"></path></g><path d="M423.951,105.729c-.027,.062-.053,.125-.079,.186-5.797,14.007-20.339,26.382-35.483,27.046-6.81,.298-13.601-1.442-19.885-.064,.316,.621,.779,1.123,1.359,1.38,.943,.418,2.124,.48,3.163,.365,1.302-.144,3.406-.778,4.452-.026,3.035,2.183,5.33,4.667,8.949,5.168,4.019,.557,8.042,.367,12.038-.749,3.499-.977,5.335-1.133,8.406-3.025,6.989-4.305,12.099-10.364,15.154-18.296,1.505-3.909,2.084-7.912,1.926-11.986Z" style="fill:#e0e0e0;"></path></g><g><g><path d="M52.713,204.244c.667,5.351,2.418,10.296,5.631,14.682,5.023,6.858,11.539,11.369,19.411,13.697,3.458,1.023,5.272,.694,8.904,.722,4.149,.032,8.081-.837,11.815-2.425,3.362-1.43,4.928-4.428,7.286-7.329,.813-1,3.009-.937,4.304-1.139,1.033-.161,2.157-.529,2.958-1.18,1.364-1.108,1.391-3.775,.062-5.362-1.05-1.254-3.041-3.33-2.908-4.816,.332-3.706,.384-8.029-.976-11.445-1.822-4.578-4.56-7.6-8.296-10.745-4.232-3.564-6.068-4.964-11.651-6.92-4.12-1.443-8.35-2.113-12.718-2.065-3.721,.041-7.259,.699-10.666,2.063-3.954,1.584-7.237,4.15-9.66,7.783,0,0-2.121,4.397-3.008,7.33-.888,2.932-.489,7.149-.489,7.149Z" style="fill:#ebebeb;"></path><path d="M42.93,190.713c4.15-.983,16.236,5.637,16.615,6.006l-.762,1.098s-9.878-4.084-12.229-4.139c-2.35-.055-3.892,2.069-3.892,2.069,0,0-.787-4.784,.268-5.034Z" style="fill:#e0e0e0;"></path><path d="M56.784,199.85l-.222-.976c.889-.201,1.708-.751,2.248-1.51,.544-.764,.817-1.754,.75-2.716l.997-.07c.084,1.19-.255,2.417-.932,3.367-.68,.956-1.716,1.65-2.84,1.905Z" style="fill:#e0e0e0;"></path></g><path d="M53.351,207.861c.042,.053,.084,.107,.125,.159,9.258,12.003,26.53,20.145,41.321,16.826,6.651-1.493,12.75-4.949,19.176-5.262-.143,.682-.458,1.287-.951,1.688-.8,.65-1.925,1.019-2.958,1.18-1.295,.202-3.491,.139-4.304,1.139-2.358,2.901-3.924,5.898-7.286,7.328-3.734,1.589-7.666,2.457-11.815,2.425-3.632-.028-5.446,.301-8.904-.722-7.872-2.328-14.388-6.839-19.411-13.697-2.475-3.38-4.08-7.092-4.993-11.065Z" style="fill:#e0e0e0;"></path></g><g id="freepik--freepik--Apple--inject-2--inject-24"><path d="M282.453,63.34s23.256-23.179,36.072,3.48c0,0-19.151,6.719-36.072-3.48Z" style="fill:#ebebeb;"></path><path d="M278.318,65.626s9.52-10.532,5.05-19.704c0,0,2.605-1.42,6.218,2.255-1.164,7.047-4.192,13.509-8.828,18.841l-2.44-1.393Z" style="fill:#e0e0e0;"></path><path d="M298.623,68.619c-4.741-2.831-11.484-3.967-17.793-3.2-3.397-6.319-8.586-11.993-13.441-14.624-15.321-8.354-27.587,5.827-30.752,17.581-2.744,10.477-5.19,30.805,5.722,38.381,2.766,1.926,8.263,2.129,13.974,1.021,1.298,5.122,3.756,9.459,6.767,10.816,12.104,5.517,28.367-6.883,35.956-14.597,8.601-8.609,14.553-26.436-.433-35.377Z" style="fill:#f0f0f0;"></path><path d="M289.586,48.177c-3.613-3.675-6.218-2.255-6.218-2.255,0,0,3.981,4.928,6.218,2.255Z" style="fill:#e0e0e0;"></path></g><g><path d="M115.006,65.525c-1.071,1.482-1.871,3.14-2.665,4.787,.218-2.854-.259-5.759-1.379-8.394-1.881,2.905-2.501,6.597-1.67,9.957-1.978-2.779-4.531-5.146-7.45-6.91,.074,3.636,1.981,7.188,4.971,9.26-3.159-.553-6.318-1.106-9.477-1.659-.365-.064-.788-.112-1.06,.139-.355,.328-.201,.917,.023,1.346,1.272,2.433,3.904,3.921,6.593,4.476,2.689,.555,5.471,.306,8.205,.055l2.745-2.088c3.845-3.688,5.853-9.206,5.276-14.503-1.673,.739-3.041,2.052-4.112,3.535Z" style="fill:#e0e0e0;"></path><path d="M130.605,74.015c-2.349-2.089-5.648-2.93-8.78-2.655-3.132,.275-7.071,1.763-9.669,5.229,.28-.064-8.996,1.459-11.735,6.494-2.33,4.283-1.61,11.382,1.114,15.426,2.105,3.127,5.427,5.231,8.854,6.802,3.427,1.571,7.049,2.7,10.417,4.393,2.529,1.271,5.323,2.905,8.003,1.993,1.401-.477,2.506-1.612,3.222-2.907,.716-1.296,1.085-2.751,1.392-4.199,1.145-5.396,1.531-10.931,1.542-16.447,.005-2.543-.072-5.109-.678-7.579-.606-2.47-1.78-4.859-3.68-6.549Z" style="fill:#ebebeb;"></path><path d="M132.606,104.949c-.238,1.1-.607,2.346-1.633,2.808-.704,.317-3.678-.171-4.424-.369-8.093-2.149-14.308-8.525-19.663-14.962-1.445-1.736-2.874-3.52-3.832-5.566-.848-1.81-1.303-3.865-.994-5.827-.658,.608-1.224,1.288-1.638,2.05-2.33,4.283-1.61,11.382,1.114,15.426,2.105,3.127,5.427,5.231,8.854,6.802,3.427,1.571,7.049,2.7,10.417,4.393,2.529,1.271,5.323,2.905,8.003,1.993,1.401-.477,2.506-1.612,3.222-2.907,.716-1.296,1.085-2.751,1.392-4.199,1.145-5.396,1.531-10.931,1.542-16.447,.005-2.543-.072-5.109-.678-7.579-.083-.339-.178-.675-.283-1.009,.913,5.856,.388,17.143-1.396,25.394Z" style="fill:#f5f5f5;"></path><path d="M124.679,96.865l-.364,.038c-.02,.473,.129,.95,.414,1.328,.12,.159,.269,.305,.456,.377,.186,.072,.415,.058,.565-.074,.144-.126,.192-.338,.156-.527-.036-.188-.144-.356-.269-.501-.254-.295-.589-.519-.959-.641Z" style="fill:#fff;"></path><path d="M128.238,104.814l-.364,.037c-.02,.473,.129,.95,.414,1.328,.12,.16,.27,.305,.456,.377,.186,.072,.415,.058,.565-.074,.144-.126,.192-.338,.157-.526-.036-.188-.144-.356-.269-.501-.254-.295-.59-.519-.959-.641Z" style="fill:#fff;"></path><path d="M120.484,104.521l-.364,.038c-.02,.472,.129,.95,.414,1.328,.12,.159,.269,.305,.456,.377,.186,.072,.415,.058,.565-.074,.144-.126,.192-.338,.156-.526-.036-.188-.143-.356-.269-.501-.254-.295-.589-.519-.959-.641Z" style="fill:#fff;"></path><path d="M117.383,97.397l-.364,.037c-.02,.473,.129,.95,.414,1.328,.12,.159,.27,.305,.456,.377s.415,.058,.565-.074c.144-.126,.192-.338,.156-.527-.036-.188-.143-.356-.269-.501-.254-.295-.59-.519-.959-.641Z" style="fill:#fff;"></path><path d="M110.422,100.628l-.364,.037c-.02,.473,.129,.95,.414,1.328,.12,.159,.27,.305,.456,.377,.186,.072,.415,.058,.565-.074,.144-.126,.192-.338,.156-.526-.036-.188-.144-.356-.269-.501-.254-.295-.589-.519-.959-.641Z" style="fill:#fff;"></path><path d="M126.771,88.163l-.364,.037c-.02,.473,.129,.95,.414,1.328,.12,.159,.27,.305,.456,.377,.186,.072,.415,.057,.565-.074,.144-.126,.192-.338,.156-.527s-.143-.356-.269-.501c-.254-.295-.59-.519-.959-.641Z" style="fill:#fff;"></path><path d="M132.319,86.259l-.364,.037c-.02,.472,.129,.95,.414,1.328,.12,.159,.27,.305,.456,.377,.186,.072,.415,.057,.565-.074,.144-.126,.192-.338,.156-.527-.036-.188-.143-.356-.269-.501-.254-.295-.59-.519-.959-.641Z" style="fill:#fff;"></path><path d="M131.666,94.93l-.339-.138c-.24,.408-.334,.899-.26,1.367,.031,.197,.094,.396,.225,.547,.131,.151,.339,.246,.533,.201,.187-.043,.329-.208,.386-.391,.057-.183,.041-.381-.001-.568-.085-.38-.276-.736-.544-1.017Z" style="fill:#fff;"></path><path d="M111.133,93.134l-.364,.037c-.02,.473,.129,.95,.414,1.328,.12,.159,.269,.305,.456,.377,.186,.072,.415,.058,.565-.074,.144-.126,.192-.338,.156-.527-.036-.188-.143-.355-.269-.501-.254-.295-.589-.519-.959-.641Z" style="fill:#fff;"></path><path d="M103.627,93.087l-.364,.037c-.02,.473,.129,.95,.414,1.328,.12,.159,.269,.305,.456,.377,.186,.072,.415,.057,.565-.074,.144-.126,.192-.338,.156-.527-.036-.188-.143-.356-.269-.501-.254-.295-.589-.519-.959-.641Z" style="fill:#fff;"></path><path d="M119.531,90.104l-.364,.038c-.02,.473,.129,.95,.414,1.328,.12,.159,.269,.305,.456,.377,.186,.072,.415,.058,.565-.074,.144-.126,.192-.338,.156-.527-.036-.188-.143-.356-.269-.501-.254-.295-.59-.519-.959-.641Z" style="fill:#fff;"></path><path d="M121.368,82.808l-.364,.037c-.02,.473,.129,.95,.414,1.328,.12,.159,.269,.305,.456,.377s.415,.057,.565-.074c.144-.126,.192-.338,.156-.527-.036-.188-.143-.356-.269-.501-.254-.295-.59-.519-.959-.641Z" style="fill:#fff;"></path><path d="M130.171,79.369l-.364,.037c-.02,.472,.129,.95,.414,1.328,.12,.159,.27,.305,.456,.377s.415,.057,.565-.074c.144-.126,.192-.338,.156-.527-.036-.188-.143-.356-.269-.501-.254-.295-.59-.519-.959-.641Z" style="fill:#fff;"></path><path d="M110.391,85.692l-.364-.031c-.108,.46-.051,.958,.158,1.382,.088,.179,.208,.35,.377,.456s.397,.134,.569,.033c.165-.097,.252-.296,.252-.488,0-.192-.074-.376-.17-.542-.194-.337-.482-.62-.822-.809Z" style="fill:#fff;"></path><path d="M114.652,79.439l-.364-.031c-.108,.46-.051,.958,.158,1.382,.088,.179,.208,.35,.377,.455,.17,.106,.397,.134,.569,.033,.165-.097,.252-.296,.252-.488,0-.192-.074-.376-.17-.542-.194-.337-.482-.62-.822-.809Z" style="fill:#fff;"></path><path d="M122.486,74.993l-.364-.031c-.108,.461-.051,.958,.158,1.382,.088,.179,.208,.35,.377,.455,.17,.106,.397,.134,.569,.033,.165-.097,.252-.296,.252-.488,0-.192-.074-.376-.17-.542-.194-.337-.482-.62-.822-.809Z" style="fill:#fff;"></path><path d="M102.319,84.961l-.364-.031c-.108,.46-.051,.958,.158,1.382,.088,.179,.208,.35,.377,.455,.17,.106,.397,.134,.569,.033,.165-.097,.252-.296,.252-.488,0-.192-.074-.376-.17-.542-.194-.337-.482-.62-.822-.809Z" style="fill:#fff;"></path></g><g><path d="M426.365,199.142c-1.722,.074-3.415,.449-5.097,.824,2.239-1.505,4.109-3.555,5.403-5.922-3.247,.304-6.34,2.002-8.34,4.579,.9-3.086,1.161-6.356,.761-9.546-2.646,2.178-4.16,5.663-3.946,9.084-1.436-2.66-2.871-5.319-4.307-7.979-.166-.307-.378-.648-.722-.702-.45-.071-.796,.387-.982,.803-1.057,2.362-.621,5.177,.539,7.49s2.968,4.225,4.751,6.101l3.147,.811c4.973,.69,10.227-1.047,13.808-4.566-1.523-.806-3.293-1.051-5.015-.977Z" style="fill:#e0e0e0;"></path><path d="M429.194,215.638c.174-2.958-1.131-5.889-3.163-8.045-2.032-2.156-5.433-4.2-9.514-4.099,.211,.17-6.332-5.802-11.656-4.888-4.528,.777-9.359,5.456-10.76,9.832-1.083,3.383-.7,7.069,.139,10.52,.839,3.452,2.119,6.79,2.833,10.27,.537,2.613,.959,5.633,3.199,7.083,1.171,.758,2.656,.912,4.032,.685,1.376-.227,2.668-.804,3.918-1.422,4.66-2.304,8.979-5.251,13.065-8.464,1.884-1.481,3.737-3.036,5.21-4.926s2.555-4.154,2.695-6.546Z" style="fill:#ebebeb;"></path><path d="M407.482,235.182c-.953,.467-2.089,.921-3.031,.432-.646-.336-2.021-2.82-2.311-3.488-3.136-7.241-2.049-15.561-.415-23.281,.441-2.083,.926-4.181,1.879-6.085,.844-1.685,2.098-3.221,3.73-4.138-.834-.132-1.667-.153-2.473-.015-4.528,.777-9.359,5.456-10.76,9.832-1.083,3.383-.7,7.069,.139,10.52,.839,3.452,2.119,6.79,2.833,10.27,.537,2.613,.959,5.633,3.199,7.083,1.171,.758,2.656,.912,4.032,.685,1.376-.227,2.668-.804,3.918-1.422,4.66-2.304,8.979-5.251,13.065-8.464,1.884-1.481,3.737-3.036,5.21-4.926,.202-.259,.396-.526,.581-.799-3.798,4.095-12.453,10.297-19.598,13.796Z" style="fill:#f5f5f5;"></path><path d="M408.832,224.597l-.24-.247c-.361,.261-.627,.651-.74,1.082-.048,.182-.068,.377-.012,.557,.056,.18,.2,.341,.385,.375,.178,.033,.362-.055,.481-.192,.118-.136,.179-.314,.214-.491,.07-.36,.04-.739-.086-1.084Z" style="fill:#fff;"></path><path d="M405.031,231.872l-.24-.247c-.361,.261-.628,.651-.74,1.082-.048,.182-.068,.377-.012,.557,.056,.18,.2,.341,.385,.375,.177,.033,.362-.056,.481-.192,.118-.136,.179-.314,.214-.491,.07-.36,.04-.739-.086-1.084Z" style="fill:#fff;"></path><path d="M400.72,225.966l-.24-.247c-.361,.261-.627,.65-.74,1.082-.048,.182-.068,.377-.012,.557,.056,.18,.2,.34,.385,.375,.177,.033,.362-.055,.481-.192,.118-.136,.179-.314,.213-.491,.07-.36,.04-.739-.086-1.084Z" style="fill:#fff;"></path><path d="M404.178,219.511l-.24-.247c-.361,.261-.627,.651-.74,1.082-.048,.182-.068,.377-.012,.557,.056,.18,.2,.341,.385,.375,.177,.033,.362-.055,.481-.192,.118-.136,.179-.314,.214-.491,.07-.36,.04-.739-.086-1.084Z" style="fill:#fff;"></path><path d="M397.723,216.25l-.24-.247c-.361,.261-.627,.65-.74,1.082-.048,.182-.068,.378-.013,.557,.056,.18,.2,.341,.385,.375,.178,.033,.362-.055,.481-.192s.179-.314,.213-.491c.07-.36,.04-.739-.086-1.084Z" style="fill:#fff;"></path><path d="M416.49,221.064l-.24-.247c-.361,.261-.627,.651-.74,1.082-.048,.182-.068,.377-.012,.557,.056,.18,.2,.341,.385,.375,.177,.033,.362-.055,.481-.192,.118-.136,.179-.314,.214-.491,.07-.36,.04-.739-.086-1.084Z" style="fill:#fff;"></path><path d="M421.138,224.056l-.24-.247c-.361,.261-.627,.651-.74,1.082-.048,.182-.068,.377-.012,.557,.056,.18,.2,.341,.385,.375,.177,.033,.362-.055,.481-.192,.118-.136,.179-.314,.213-.491,.07-.36,.04-.739-.086-1.084Z" style="fill:#fff;"></path><path d="M414.343,228.636l-.095-.331c-.442,.06-.86,.278-1.163,.606-.128,.138-.238,.301-.273,.486-.036,.185,.016,.394,.163,.512,.141,.113,.346,.122,.514,.057s.306-.192,.42-.333c.231-.285,.383-.633,.434-.997Z" style="fill:#fff;"></path><path d="M403.682,212.4l-.24-.247c-.361,.261-.627,.651-.74,1.082-.048,.182-.068,.378-.012,.557,.056,.18,.2,.341,.385,.375,.177,.033,.362-.055,.481-.192s.179-.314,.214-.491c.07-.36,.04-.739-.086-1.084Z" style="fill:#fff;"></path><path d="M399.333,206.82l-.24-.247c-.361,.261-.628,.651-.74,1.082-.048,.182-.068,.377-.012,.557s.2,.34,.385,.375c.178,.033,.362-.055,.481-.192,.118-.136,.179-.314,.213-.491,.07-.36,.04-.739-.086-1.084Z" style="fill:#fff;"></path><path d="M410.826,216.842l-.24-.247c-.361,.261-.627,.65-.74,1.082-.048,.182-.068,.378-.013,.557,.056,.18,.2,.341,.385,.375,.178,.033,.362-.056,.481-.192,.118-.136,.179-.314,.214-.491,.07-.36,.04-.739-.086-1.084Z" style="fill:#fff;"></path><path d="M417.296,213.94l-.24-.247c-.361,.261-.627,.651-.74,1.082-.048,.182-.068,.377-.012,.557,.056,.18,.2,.34,.385,.375,.177,.033,.362-.055,.481-.192,.118-.136,.179-.314,.214-.491,.07-.36,.04-.739-.086-1.084Z" style="fill:#fff;"></path><path d="M424.98,218.444l-.24-.247c-.361,.261-.627,.651-.74,1.082-.048,.182-.068,.377-.012,.557,.056,.18,.2,.34,.385,.375,.177,.033,.362-.056,.481-.192s.179-.314,.214-.491c.07-.36,.04-.739-.086-1.084Z" style="fill:#fff;"></path><path d="M408.753,207.505l-.19-.288c-.404,.189-.738,.521-.93,.924-.081,.17-.137,.358-.116,.545,.021,.187,.132,.372,.308,.44,.168,.066,.366,.013,.508-.098,.142-.112,.235-.275,.302-.442,.136-.341,.177-.719,.118-1.081Z" style="fill:#fff;"></path><path d="M415.866,207.006l-.19-.288c-.404,.189-.738,.522-.93,.924-.081,.17-.137,.358-.116,.545,.021,.187,.132,.372,.308,.44,.168,.066,.366,.013,.508-.098,.142-.112,.235-.275,.302-.442,.136-.341,.177-.719,.118-1.081Z" style="fill:#fff;"></path><path d="M423.73,210.203l-.19-.288c-.404,.189-.738,.522-.93,.924-.081,.17-.138,.358-.117,.545,.021,.187,.132,.372,.308,.44,.168,.066,.366,.013,.508-.098,.142-.112,.235-.275,.302-.442,.136-.341,.177-.719,.118-1.081Z" style="fill:#fff;"></path><path d="M404.581,201.108l-.19-.288c-.404,.189-.738,.522-.93,.924-.081,.17-.137,.358-.116,.545,.021,.187,.132,.372,.308,.44,.168,.066,.366,.013,.508-.098,.142-.112,.235-.275,.302-.443,.136-.341,.177-.719,.118-1.081Z" style="fill:#fff;"></path></g></g><g id="freepik--Shadow--inject-24"><path d="M452.816,427.671c0,16.531-89.799,29.932-200.572,29.932s-200.572-13.401-200.572-29.932,89.799-29.932,200.572-29.932,200.572,13.401,200.572,29.932Z" style="fill:#f5f5f5;"></path></g><g id="freepik--Bananas--inject-24"><g><g><g><path d="M451.434,399.568s-37.681,7.129-73.195-27.368c0,0-15.807-17.002-21.424-39.439l3.724-3.826s23.651,17.176,50.677,32.854c22.926,13.3,44.045,25.478,44.045,25.478l1.429,2.007,6.098,3.652-4.775,8.45-6.578-1.807Z" style="fill:#407BFF;"></path><path d="M456.69,389.274l-1.884,3.691s-61.189-27.748-78.621-45.941l-18.007-15.663,2.361-2.426c22.168,15.912,48.262,31.614,77.236,48.234,5.728,3.285,11.584,6.795,17.486,10.098l1.429,2.007Z" style="opacity:.3;"></path><path d="M452.816,391.634c-17.481-6.502-33.96-15.461-49.727-25.37-15.658-10.082-30.756-21.212-44.053-34.29,13.431,12.929,28.494,24.062,44.187,34.08,15.724,9.969,32.192,18.895,49.594,25.581h0Z" style="fill:#263238;"></path><polygon points="462.787 392.925 458.013 401.375 451.434 399.568 456.69 389.274 462.787 392.925" style="fill:#263238;"></polygon></g><g><path d="M417.314,430.356s-37.771-6.634-58.818-51.449c0,0-8.786-21.488-6.119-44.463l4.835-2.264s16.063,24.421,35.813,48.631c16.753,20.538,32.212,39.388,32.212,39.388l.628,2.382,4.416,5.57-7.451,6.22-5.516-4.014Z" style="fill:#407BFF;"></path><path d="M425.866,422.581l-3.066,2.788s-47.45-47.566-57.336-70.742l-11.317-21.012,3.065-1.436c15.122,22.714,33.992,46.618,55.231,72.398,4.199,5.096,8.439,10.447,12.794,15.622l.628,2.382Z" style="opacity:.3;"></path><path d="M421.408,423.421c-14.06-12.255-26.314-26.456-37.567-41.294-11.09-14.961-21.285-30.705-29.108-47.636,8.001,16.838,18.163,32.572,29.308,47.486,11.191,14.879,23.447,29.044,37.367,41.444h0Z" style="fill:#263238;"></path><polygon points="430.282 428.15 422.831 434.37 417.314 430.356 425.866 422.581 430.282 428.15" style="fill:#263238;"></polygon></g></g><g><path d="M360.421,332.83l-.945-16.469s-22.951,7.668-22.357,7.621,9.143,12.635,9.143,12.635l14.158-3.787Z" style="fill:#407BFF;"></path><path d="M360.421,332.83l-.945-16.469s-22.951,7.668-22.357,7.621,9.143,12.635,9.143,12.635l14.158-3.787Z" style="opacity:.3;"></path></g></g></g><g id="freepik--Orange--inject-24"><g id="freepik--freepik--Orange--inject-2--inject-24"><path d="M79.925,394.559c8.141,22.259,25.681,25.805,43.36,19.339,17.68-6.466,28.785-20.488,20.645-42.747-8.141-22.259-26.107-26.97-43.778-20.508-17.671,6.463-28.368,21.656-20.227,43.915Z" style="fill:#407BFF;"></path><path d="M122.151,379.116c-7.42-20.29-15.131-28.877-26.511-26.55,1.445-.707,2.951-1.352,4.512-1.923,17.671-6.463,35.637-1.752,43.778,20.508,8.141,22.259-2.973,36.284-20.644,42.747-1.562,.571-3.122,1.068-4.678,1.47,10.26-5.388,10.964-15.962,3.543-36.252Z" style="fill:#407BFF;"></path><path d="M86.59,371.498c2.647,2.66,5.334,1.824,7.364-.492,2.031-2.315,2.631-5.251-.007-7.913-2.639-2.663-5.471-1.962-7.502,.353s-2.503,5.392,.145,8.052Z" style="fill:#fff; isolation:isolate; opacity:.2;"></path><path d="M83.518,379.018c1.334,.781,2.323,.115,2.903-1.061,.58-1.177,.499-2.478-.844-3.256-1.202-.577-2.56-.029-3.035,1.224-.423,1.116-.004,2.44,.987,3.122l-.01-.028Z" style="fill:#fff; isolation:isolate; opacity:.2;"></path><path d="M79.466,393.197c7.776,19.499,25.928,20.483,35.307,17.053,1.197-.438,3.346-1.612,4.967-2.205,1.621-.593,4.87-1.393,6.066-1.831,9.557-3.495,22.28-16.043,14.758-36.61-7.441-20.345-24.231-24.605-41.016-18.718l.611-.224c17.671-6.463,35.637-1.752,43.778,20.508,8.141,22.259-2.973,36.284-20.645,42.747-17.671,6.463-35.22,2.92-43.36-19.339-.173-.472-.318-.922-.467-1.381Z" style="fill:#407BFF;"></path><path d="M79.466,393.197c7.776,19.499,25.928,20.483,35.307,17.053,1.197-.438,3.346-1.612,4.967-2.205,1.621-.593,4.87-1.393,6.066-1.831,9.557-3.495,22.28-16.043,14.758-36.61-7.441-20.345-24.231-24.605-41.016-18.718l.611-.224c17.671-6.463,35.637-1.752,43.778,20.508,8.141,22.259-2.973,36.284-20.645,42.747-17.671,6.463-35.22,2.92-43.36-19.339-.173-.472-.318-.922-.467-1.381Z" style="fill:#fff; isolation:isolate; opacity:.2;"></path><path d="M113.38,396.101c-.358-.058-.916,.89-.772,1.257,.144,.367,1.24,1.234,1.577,.944,.336-.291-.264-2.116-.805-2.201Z" style="fill:#fff; isolation:isolate; opacity:.2;"></path><path d="M114.432,404.398c-.423,.238-.304,1.799,.099,2.113,.403,.314,2.239,.387,2.388-.234,.148-.62-1.837-2.233-2.487-1.879Z" style="fill:#fff; isolation:isolate; opacity:.2;"></path><path d="M106.621,400.932c-.354-.153-1.15,.62-1.108,1.024,.042,.404,.958,1.568,1.369,1.376,.411-.192,.262-2.151-.262-2.4Z" style="fill:#fff; isolation:isolate; opacity:.2;"></path><path d="M110.298,405.092c-.31-.138-1.029,.555-.983,.915,.045,.361,.855,1.417,1.223,1.241,.368-.177,.242-1.944-.24-2.156Z" style="fill:#fff; isolation:isolate; opacity:.2;"></path><path d="M101.236,401.863c-.314-.147-1.037,.558-.992,.918,.045,.361,.864,1.414,1.223,1.24,.36-.173,.242-1.944-.231-2.159Z" style="fill:#fff; isolation:isolate; opacity:.2;"></path><path d="M105.038,404.866c-.424,.103-.662,1.479-.357,1.84s1.904,.866,2.166,.371c.262-.494-1.137-2.32-1.809-2.211Z" style="fill:#fff; isolation:isolate; opacity:.2;"></path><path d="M102.669,351.579l3.738-4.513s1.804-15.171,21.655-11.621c0,0,1.996,9.377-9.291,12.09-11.287,2.712-12.209-.389-15.938,5.965l-.338-.925c-.108-.352-.042-.728,.174-.997Z" style="fill:#407BFF;"></path><path d="M114.046,342.166c-4.801,5.289-7.624,4.938-7.624,4.938,0,0,1.804-15.17,21.655-11.621,0,0-9.232,1.384-14.03,6.683Z" style="fill:#fff; isolation:isolate; opacity:.2;"></path><path d="M103.019,351.378l4.413-.22c-.573,.909-1.232,1.751-1.968,2.513-1.468,.915-3.101,1.512-4.812,1.76-.934-.097-1.863-.291-2.772-.58l2.032-2.337s.642-3.139,.255-4.119c-.387-.98-1.92-2.276-3.118-3.263-.586-.474-.727-1.345-.314-1.946,.081-.117,.179-.219,.292-.3h0c.522-.385,1.253-.279,1.707,.246,1.291,1.428,2.454,2.979,3.474,4.632,.372,1.182,.644,2.391,.812,3.614Z" style="fill:#263238;"></path></g></g><g id="freepik--Fruit_basket--inject-24"><path d="M115.04,300.81c-3.443-17.482-4.882-35.441-3.034-53.204,1.469-14.118,5.445-28.758,11.643-41.393,5.985-12.202,13.608-22.623,23.119-32.121,2.301-2.298,4.685-4.511,7.142-6.641,2.442-2.117,5.097-4.259,7.328-5.939,5.235-3.942,10.719-7.549,16.38-10.848,14.761-8.602,31.077-14.106,47.983-16.512s34.499-1.566,51.188,2.302c16.866,3.909,32.942,10.925,47.069,20.964,13.499,9.593,24.939,22.04,33.778,36.017,8.914,14.096,15.242,29.728,18.732,46.034,3.446,16.096,4.074,33.086,1.402,49.329-.665,4.044-1.529,8.051-2.576,12.013-.988,3.737,4.798,5.331,5.786,1.595,4.42-16.716,5.49-34.28,3.36-51.429-2.154-17.342-7.318-34.202-15.328-49.742-7.897-15.322-18.599-29.329-31.587-40.686-13.516-11.818-29.391-20.68-46.416-26.332-16.972-5.634-35.084-8.069-52.943-7.214-18.016,.863-35.795,5.044-52.19,12.587-13.069,6.013-25.346,14.203-36.209,23.618-10.336,8.959-19.384,19.469-26.429,31.209-7.573,12.619-12.764,26.635-15.483,41.087-3.238,17.213-3.197,34.863-.913,52.192,.649,4.929,1.451,9.832,2.412,14.709,.313,1.591,2.211,2.502,3.69,2.095,1.66-.456,2.409-2.095,2.095-3.69h0Z" style="fill:#b97964;"></path><g><g id="freepik--freepik--Apple--inject-2-2--inject-24"><path d="M177.635,241.333s9.069-32.966,34.419-15.47c0,0-13.852,15.961-34.419,15.47Z" style="fill:#407BFF;"></path><path d="M177.635,241.333s9.069-32.966,34.419-15.47c0,0-13.852,15.961-34.419,15.47Z" style="fill:#fff; isolation:isolate; opacity:.4;"></path><path d="M198.377,225.762c9.025-1.862,12.404-.641,13.355-.101-25.13-17.017-34.097,15.671-34.097,15.671,0,0,9.581-13.294,20.742-15.571Z" style="fill:#fff; isolation:isolate; opacity:.3;"></path><path d="M175.076,245.533s3.174-14.439-5.602-20.426c0,0,1.623-2.629,6.787-1.169,2.584,6.974,3.181,14.381,1.741,21.595h-2.925Z" style="fill:#263238;"></path><path d="M175.076,245.533s3.174-14.439-5.602-20.426c0,0,1.623-2.629,6.787-1.169,2.584,6.974,3.181,14.381,1.741,21.595h-2.925Z" style="fill:#fff; isolation:isolate; opacity:.4;"></path><path d="M194.984,237.761c-5.749-.113-12.433,2.339-17.743,6.289-6.334-3.962-13.955-6.414-19.703-6.289-18.167,.352-21.941,19.508-18.738,31.771,2.925,10.892,11.205,30.538,24.984,31.758,3.496,.315,8.572-2.339,13.165-6.289,3.818,3.962,8.279,6.616,11.702,6.289,13.794-1.258,22.102-20.866,24.984-31.758,3.335-12.226-.483-31.419-18.65-31.771Z" style="fill:#407BFF;"></path><path d="M214.76,260.752c-.073,10.666-11.19,23.772-21.152,23.772s-8.777-8.603-15.856-8.603-6.582,13.219-13.896,13.219-9.742-10.062-13.896-9.647c-2.618,.264-4.271,3.308-5.12,5.509,4.388,8.15,10.649,15.558,18.943,16.288,3.496,.315,8.572-2.339,13.165-6.289,3.818,3.962,8.279,6.616,11.702,6.289,13.794-1.258,22.102-20.866,24.984-31.758,.774-2.879,1.152-5.825,1.127-8.779Z" style="isolation:isolate; opacity:.1;"></path><path d="M142.719,263.356s.98-20.199,10.239-19.96c9.259,.239-5.427,6.955-10.239,19.96Z" style="fill:#fff; isolation:isolate; opacity:.2;"></path><path d="M176.26,223.938c-5.164-1.459-6.787,1.169-6.787,1.169,0,0,6.143,2.402,6.787-1.169Z" style="fill:#263238;"></path><path d="M194.984,237.761c-5.749-.113-12.433,2.339-17.743,6.289-6.334-3.962-13.955-6.414-19.703-6.289-18.167,.352-21.941,19.508-18.738,31.771,2.925,10.892,11.205,30.538,24.984,31.758,3.496,.315,8.572-2.339,13.165-6.289,3.818,3.962,8.279,6.616,11.702,6.289,13.794-1.258,22.102-20.866,24.984-31.758,3.335-12.226-.483-31.419-18.65-31.771Z" style="isolation:isolate; opacity:.1;"></path><path d="M194.984,237.761c-5.749-.113-12.433,2.339-17.743,6.289-6.334-3.962-13.955-6.414-19.703-6.289-18.167,.352-21.941,19.508-18.738,31.771,2.925,10.892,11.205,30.538,24.984,31.758,3.496,.315,8.572-2.339,13.165-6.289,3.818,3.962,8.279,6.616,11.702,6.289,13.794-1.258,22.102-20.866,24.984-31.758,3.335-12.226-.483-31.419-18.65-31.771Z" style="fill:#fff; isolation:isolate; opacity:.3;"></path></g><g id="freepik--freepik--Apple--inject-2-3--inject-24"><path d="M317.617,216.183s19.194-28.294,37.566-3.573c0,0-18.251,10.655-37.566,3.573Z" style="fill:#407BFF;"></path><path d="M317.617,216.183s19.194-28.294,37.566-3.573c0,0-18.251,10.655-37.566,3.573Z" style="fill:#fff; isolation:isolate; opacity:.4;"></path><path d="M342.266,208.114c9.144,1.141,11.951,3.384,12.677,4.202-18.318-24.198-37.326,3.867-37.326,3.867,0,0,13.349-9.505,24.649-8.069Z" style="fill:#fff; isolation:isolate; opacity:.3;"></path><path d="M313.841,219.337s7.651-12.65,1.268-21.142c0,0,2.383-1.967,6.803,1.076,.203,7.435-1.615,14.64-5.3,21.007l-2.77-.941Z" style="fill:#263238;"></path><path d="M313.841,219.337s7.651-12.65,1.268-21.142c0,0,2.383-1.967,6.803,1.076,.203,7.435-1.615,14.64-5.3,21.007l-2.77-.941Z" style="fill:#fff; isolation:isolate; opacity:.4;"></path><path d="M335.192,218.383c-5.406-1.957-12.525-1.786-18.823,.245-4.722-5.789-11.149-10.564-16.632-12.294-17.315-5.512-27.051,11.411-27.964,24.052-.735,11.254,.783,32.519,13.437,38.108,3.209,1.423,8.869,.543,14.488-1.719,2.34,4.98,5.71,8.928,9.056,9.72,13.465,3.247,27.641-12.645,33.874-22.03,7.092-10.502,9.652-29.903-7.436-36.082Z" style="fill:#407BFF;"></path><path d="M346.519,246.516c-3.501,10.075-18.244,18.907-27.676,15.702-9.432-3.205-5.542-10.97-12.245-13.248-6.703-2.278-10.486,10.398-17.411,8.045-6.925-2.353-5.986-12.661-10.053-13.605-2.564-.593-5.108,1.758-6.62,3.569,1.533,9.129,5.077,18.158,12.695,21.517,3.209,1.423,8.869,.543,14.488-1.719,2.34,4.98,5.71,8.928,9.056,9.72,13.465,3.247,27.641-12.645,33.874-22.03,1.659-2.476,2.965-5.145,3.892-7.95Z" style="isolation:isolate; opacity:.1;"></path><path d="M277.471,225.801s7.427-18.81,16.117-15.604c8.69,3.206-7.376,4.839-16.117,15.604Z" style="fill:#fff; isolation:isolate; opacity:.2;"></path><path d="M321.912,199.271c-4.42-3.043-6.803-1.076-6.803-1.076,0,0,5.044,4.251,6.803,1.076Z" style="fill:#263238;"></path><path d="M335.192,218.383c-5.406-1.957-12.525-1.786-18.823,.245-4.722-5.789-11.149-10.564-16.632-12.294-17.315-5.512-27.051,11.411-27.964,24.052-.735,11.254,.783,32.519,13.437,38.108,3.209,1.423,8.869,.543,14.488-1.719,2.34,4.98,5.71,8.928,9.056,9.72,13.465,3.247,27.641-12.645,33.874-22.03,7.092-10.502,9.652-29.903-7.436-36.082Z" style="isolation:isolate; opacity:.1;"></path><path d="M335.192,218.383c-5.406-1.957-12.525-1.786-18.823,.245-4.722-5.789-11.149-10.564-16.632-12.294-17.315-5.512-27.051,11.411-27.964,24.052-.735,11.254,.783,32.519,13.437,38.108,3.209,1.423,8.869,.543,14.488-1.719,2.34,4.98,5.71,8.928,9.056,9.72,13.465,3.247,27.641-12.645,33.874-22.03,7.092-10.502,9.652-29.903-7.436-36.082Z" style="fill:#fff; isolation:isolate; opacity:.3;"></path></g><g><g><path d="M265.429,217.402s-15.689-16.697-22.891-10.375c-7.203,6.322-6.191,25.606-5.763,25.988,.428,.382,9.496,15.22,21.56,9.809,6.388-2.865,10.217-14.128,7.094-25.421Z" style="fill:#407BFF;"></path><path d="M231.796,227.018s-12.166-19.414-20.455-14.604c-8.289,4.811-10.017,21.075-9.67,21.532,.346,.457,5.37,19.62,18.252,16.642,6.821-1.577,12.755-11.887,11.873-23.571Z" style="fill:#407BFF;"></path><g style="opacity:.3;"><path d="M266.118,216.148s-11.67-8.131-13.144,1.99c-1.473,10.121,6.09,19.78,6.702,19.794,.612,.014,13.825,14.628,19.878,1.881,3.204-6.749-3.081-16.656-13.436-23.665Z"></path></g><path d="M269.31,214.586s-12.314-8.58-13.868,2.099c-1.554,10.679,6.425,20.871,7.071,20.886,.646,.014,14.588,15.434,20.973,1.985,3.381-7.121-3.25-17.574-14.176-24.97Z" style="fill:#407BFF;"></path><path d="M247.272,166.948c11.605-29.276,31.412-50.752,51.082-75.345-38.783,9.979-61.918,43.147-71.31,79.004l7.494,38.945,12.733-42.604Z" style="fill:#263238;"></path><g style="opacity:.3;"><path d="M247.272,166.948c11.605-29.276,31.412-50.752,51.082-75.345-38.783,9.979-61.918,43.147-71.31,79.004l7.494,38.945,12.733-42.604Z" style="fill:#fff;"></path></g><path d="M252.434,158.402c-13.786,14.944-22.519,34.47-24.466,54.709l1.021,1.345c9.035-4.032,16.273-11.296,22.16-19.25,5.886-7.953,10.611-16.695,16.062-24.953,10.237-15.508,23.37-21.415,38.094-32.75-19.127,2.224-39.084,5.955-52.871,20.899Z" style="fill:#263238;"></path><g style="opacity:.2;"><path d="M252.434,158.402c-13.786,14.944-22.519,34.47-24.466,54.709l1.021,1.345c9.035-4.032,16.273-11.296,22.16-19.25,5.886-7.953,10.611-16.695,16.062-24.953,10.237-15.508,23.37-21.415,38.094-32.75-19.127,2.224-39.084,5.955-52.871,20.899Z" style="fill:#fff;"></path></g><path d="M213.329,198.54c-22.258-26.429-45.085-73.386-53.513-94.986-2.815-7.216-5.492-14.545-6.756-22.186-1.263-7.642-1.048-15.678,1.795-22.883,10.706,21.649,36.148,33.331,45.974,55.393,8.754,19.656,7.847,63.654,12.5,84.662" style="fill:#263238;"></path><g style="opacity:.3;"><path d="M213.329,198.54c-22.258-26.429-45.085-73.386-53.513-94.986-2.815-7.216-5.492-14.545-6.756-22.186-1.263-7.642-1.048-15.678,1.795-22.883,10.706,21.649,36.148,33.331,45.974,55.393,8.754,19.656,7.847,63.654,12.5,84.662" style="fill:#fff;"></path></g><path d="M185.567,171.219c-26.02-12.359-47.361-34.512-75.209-41.879,24.908-8.735,54.683-1.303,72.565,18.111,0,0,15.715,22.078,20.213,32.511,4.499,10.433,7.446,21.65,7.446,21.65,0,0-20.202-27.974-25.015-30.394" style="fill:#263238;"></path><g style="opacity:.2;"><path d="M185.567,171.219c-26.02-12.359-47.361-34.512-75.209-41.879,24.908-8.735,54.683-1.303,72.565,18.111,0,0,15.715,22.078,20.213,32.511,4.499,10.433,7.446,21.65,7.446,21.65,0,0-20.202-27.974-25.015-30.394" style="fill:#fff;"></path></g><path d="M206.927,189.411c-7.863-9.606-17.928-17.886-29.88-21.239-18.933-5.312-39.451,2.351-58.694-1.697,10.956,13.504,28.747,21.15,46.085,19.805,0,0,15.477-.222,27.738,1.777,12.262,1.999,24.343,16.913,24.343,16.913l-9.591-15.559" style="fill:#263238;"></path><g style="opacity:.3;"><path d="M206.927,189.411c-7.863-9.606-17.928-17.886-29.88-21.239-18.933-5.312-39.451,2.351-58.694-1.697,10.956,13.504,28.747,21.15,46.085,19.805,0,0,15.477-.222,27.738,1.777,12.262,1.999,24.343,16.913,24.343,16.913l-9.591-15.559" style="fill:#fff;"></path></g><path d="M215.406,201.904c15.599-15.217,21.298-37.923,23.134-59.637,1.382-16.351,.966-32.853-1.238-49.113-2.204-16.265-6.07-33.513,.52-48.546-9.28,7.135-13.805,18.888-15.944,30.396-2.139,11.508-2.338,23.354-5.15,34.716-3.343,13.51-22.491,22.215-20.227,35.947,.268,1.624,18.904,56.236,18.904,56.236" style="fill:#263238;"></path><g style="opacity:.2;"><path d="M215.406,201.904c15.599-15.217,21.298-37.923,23.134-59.637,1.382-16.351,.966-32.853-1.238-49.113-2.204-16.265-6.07-33.513,.52-48.546-9.28,7.135-13.805,18.888-15.944,30.396-2.139,11.508-2.338,23.354-5.15,34.716-3.343,13.51-22.491,22.215-20.227,35.947,.268,1.624,18.904,56.236,18.904,56.236" style="fill:#fff;"></path></g><path d="M164.725,186.666c-16.206,3.152-30.985,11.393-44.55,20.804,13.249-.366,26.445-2.57,39.093-6.528,5.761-1.803,11.641-3.998,17.65-3.415,7.047,.684,13.096,5.053,19.041,8.899,5.944,3.846,12.784,7.431,19.769,6.273l10.932-4.431c-19.967-25.522-45.729-24.754-61.935-21.602Z" style="fill:#263238;"></path><g style="opacity:.2;"><path d="M164.725,186.666c-16.206,3.152-30.985,11.393-44.55,20.804,13.249-.366,26.445-2.57,39.093-6.528,5.761-1.803,11.641-3.998,17.65-3.415,7.047,.684,13.096,5.053,19.041,8.899,5.944,3.846,12.784,7.431,19.769,6.273l10.932-4.431c-19.967-25.522-45.729-24.754-61.935-21.602Z" style="fill:#fff;"></path></g><path d="M243.173,187.798s22.724-12.092,18.112-8.119c-.381,.328-16.085,14.178-16.085,14.178l-3.411,2.373" style="opacity:.3;"></path><path d="M289.686,174.739c-3.136-1.053-6.552-.836-9.826-.353-21.796,3.21-50.787,18.199-50.899,49.664l18.708-18.767c12.714-13.222,30.199-21.756,48.445-23.645-.481-3.274-3.292-5.846-6.428-6.899Z" style="fill:#263238;"></path><g style="opacity:.3;"><path d="M289.686,174.739c-3.136-1.053-6.552-.836-9.826-.353-21.796,3.21-50.787,18.199-50.899,49.664l18.708-18.767c12.714-13.222,30.199-21.756,48.445-23.645-.481-3.274-3.292-5.846-6.428-6.899Z" style="fill:#fff;"></path></g><path d="M227.866,200.661c1.007-1.957,4.327-39.968-4.653-55.507-7.461-12.91-13.176-12.542-15.138-12.328-1.961,.214-17.758,8.187-18.994,8.547-1.236,.359,8.497,14.782,10.746,31.538,2.249,16.755,6.297,25.516,6.297,25.516l21.743,2.235Z" style="fill:#263238;"></path><path d="M227.866,200.661c1.007-1.957,4.327-39.968-4.653-55.507-7.461-12.91-13.176-12.542-15.138-12.328-1.961,.214-17.758,8.187-18.994,8.547-1.236,.359,8.497,14.782,10.746,31.538,2.249,16.755,6.297,25.516,6.297,25.516l21.743,2.235Z" style="fill:#fff; opacity:.3;"></path><path d="M208.074,132.545s-20.944,6.663-24.903,5.51c-3.96-1.153-2.144,18.022,1.679,26.793,3.823,8.772,10.998,20.138,10.844,19.569-.153-.568,.385-11.544,7.384-23.467,6.998-11.923,4.996-28.406,4.996-28.406Z" style="fill:#263238;"></path><path d="M208.074,132.545s-20.944,6.663-24.903,5.51c-3.96-1.153-2.144,18.022,1.679,26.793,3.823,8.772,10.998,20.138,10.844,19.569-.153-.568,.385-11.544,7.384-23.467,6.998-11.923,4.996-28.406,4.996-28.406Z" style="fill:#fff; opacity:.4;"></path><path d="M215.978,206.024c-.498-.437-2.851-21.127,.977-23.875,3.828-2.747,12.776-3.414,18.988-5.129,3.542-.977,3.1-1.154,3.1-1.154,0,0-10.442,30.365-5.115,47.967l-17.949-17.81Z" style="fill:#263238;"></path><path d="M215.978,206.024c-.498-.437-2.851-21.127,.977-23.875,3.828-2.747,12.949-2.881,18.988-5.129l3.1-1.154s-10.442,30.365-5.115,47.967l-17.949-17.81Z" style="fill:#fff; opacity:.2;"></path><path d="M237.233,176.242l-18.662,4.807c16.46,.314,22.211,26.462,22.211,26.462,0,0-.114-6.062,1.945-16.766,.923-4.796,.712-8.412,.198-10.941-.528-2.599-3.124-4.224-5.692-3.562Z" style="fill:#263238;"></path><path d="M237.233,176.242l-18.662,4.807c16.46,.314,22.211,26.462,22.211,26.462,0,0-.114-6.062,1.945-16.766,.923-4.796,.712-8.412,.198-10.941-.528-2.599-3.124-4.224-5.692-3.562Z" style="fill:#fff; opacity:.4;"></path><path d="M196.674,191.201c.09,.334,4.419-2.624,15.503,3.088,11.084,5.712,17.404,15.477,18.866,23.288l1.462,7.811-28.689-28.721-7.142-5.465Z" style="opacity:.3;"></path><path d="M154.95,241.06c.128,.538,10.683-20.083,23.496-27.652,12.814-7.568,26.077,11.206,39.137,12.261,13.06,1.055,14.921-.281,14.921-.281,0,0-7.241-20.123-17.054-26.637-9.813-6.514-18.705-10.639-32.386-4.999-13.681,5.639-31.362,33.743-28.115,47.308Z" style="fill:#263238;"></path><path d="M154.95,241.06c.128,.538,10.683-20.083,23.496-27.652,12.814-7.568,26.077,11.206,39.137,12.261,13.06,1.055,14.921-.281,14.921-.281,0,0-7.241-20.123-17.054-26.637-9.813-6.514-18.705-10.639-32.386-4.999-13.681,5.639-31.362,33.743-28.115,47.308Z" style="fill:#fff; opacity:.3;"></path><path d="M238.666,140.706s3.128,13.639-5.382,30.316c0,0,2.327-9.167,3.59-15.673,1.337-6.886,1.792-14.644,1.792-14.644Z" style="opacity:.3;"></path><g><path d="M257.858,194.615c-8.413,2.401-21.72,4.441-26.233,30.945h0c10.145-1.284,17.976-9.162,25.369-16.226,7.393-7.064,16.399-14.167,26.586-13.276-8.092-3.327-17.308-3.844-25.721-1.443Z" style="fill:#263238;"></path><g style="opacity:.2;"><path d="M257.858,194.615c-8.413,2.401-21.72,4.441-26.233,30.945h0c10.145-1.284,17.976-9.162,25.369-16.226,7.393-7.064,16.399-14.167,26.586-13.276-8.092-3.327-17.308-3.844-25.721-1.443Z" style="fill:#fff;"></path></g></g><path d="M240.867,216.453c-2.486-1.479-5.797-1.939-8.229-.372-2.491,1.604-3.388,4.757-4.095,7.634-.345,1.402-1.259,4.904-1.227,7.057l10.903,10.368,11.69-6.292-2.93-12.306c-1.783-2.278-3.625-4.608-6.111-6.088Z" style="fill:#407BFF;"></path><g style="opacity:.3;"><path d="M270.486,230.703s-15.056-17.181-21.634-11.262c-6.578,5.92-4.836,22.066-4.427,22.462,.409,.395,8.9,18.381,20.041,13.577,5.899-2.543,9.207-13.49,6.019-24.777Z"></path></g><path d="M271.048,232.781s-15.056-17.182-21.634-11.262c-6.578,5.92-4.836,22.065-4.427,22.461,.409,.396,8.899,18.381,20.041,13.578,5.899-2.543,9.207-13.49,6.019-24.777Z" style="fill:#407BFF;"></path><g style="opacity:.3;"><path d="M195.847,247.234s4.357-22.425,13.021-20.622c8.664,1.802,15.288,16.63,15.134,17.178-.154,.548,1.566,20.362-10.479,21.822-6.377,.773-14.748-7.02-17.676-18.377Z"></path></g><path d="M192.813,246.685s1.953-18.047,9.382-20.767c8.31-3.043,16.484,16.328,16.331,16.877-.154,.548,1.566,20.362-10.479,21.821-6.377,.773-12.305-6.574-15.233-17.931Z" style="fill:#407BFF;"></path><g style="opacity:.3;"><path d="M207.053,250.079s.711-24.921,11.14-24.977c10.429-.056,21.016,14.251,20.944,14.87-.073,.62,5.778,21.368-7.95,25.676-7.268,2.281-18.52-4.121-24.133-15.569Z"></path></g><path d="M207.769,252.729s.711-24.922,11.14-24.978c10.429-.056,21.016,14.251,20.943,14.871-.073,.62,5.778,21.368-7.95,25.676-7.269,2.281-18.52-4.121-24.133-15.569Z" style="fill:#407BFF;"></path><g style="opacity:.3;"><path d="M294.183,262.283c5.003-9.407,2.581-21.033-5.41-28.079-4.978-4.388-11.221-8.201-15.622-5.025-8.456,6.103-8.573,23.901-8.149,24.358,.424,.458,7.931,20.666,21.559,16.053,3.007-1.018,5.683-3.661,7.622-7.307Z"></path></g><path d="M295.906,262.768c5.003-9.407,1.023-18.538-4.491-26.701-3.714-5.499-12.141-9.579-16.541-6.403-8.456,6.103-8.573,23.901-8.149,24.359,.424,.458,7.931,20.666,21.559,16.052,3.007-1.017,5.683-3.661,7.622-7.306Z" style="fill:#407BFF;"></path><g style="opacity:.3;"><path d="M259.376,262.892c3.459-5.808,3.049-13.138-.726-18.744-4.202-6.242-11.494-14.761-18.285-11.368-8.573,4.284-11.453,22.252-9.427,27.135,.219,.53,5.125,14.017,18.008,11.04,3.837-.886,7.828-3.695,10.429-8.062Z"></path></g><path d="M260.383,250.567s-9.374-19.764-19.625-14.924c-9.3,4.391-9.69,21.288-9.246,22.91,.151,.553,4.946,18.242,17.828,15.265,6.821-1.576,11.925-11.567,11.043-23.251Z" style="fill:#407BFF;"></path><g style="opacity:.3;"><path d="M280.683,263.984s-12.575-19.328-21.555-14.365c-8.98,4.963-11.2,21.338-10.84,21.792,.36,.454,5.299,19.639,19.152,16.449,7.335-1.69,13.92-12.144,13.242-23.876Z"></path></g><path d="M280.074,266.191s-12.095-19.458-20.401-14.677c-8.306,4.781-10.092,21.039-9.748,21.497,.345,.458,5.299,19.639,18.193,16.708,6.826-1.552,12.798-11.841,11.957-23.528Z" style="fill:#407BFF;"></path><g style="opacity:.3;"><path d="M301.816,280.406c1.772-7.314,.499-14.945-3.525-21.22-2.831-4.415-8.296-8.015-12.953-5.439-9.302,5.146-13.304,16.818-11.963,24.519,.552,3.171,3.908,18.473,18.261,15.169,4.987-1.148,8.532-6.23,10.179-13.028Z"></path></g><path d="M303.215,282.902c1.818-7.504,.512-15.332-3.616-21.77-2.904-4.53-8.511-8.223-13.288-5.58-9.543,5.279-13.649,17.254-12.273,25.154,.567,3.253,5.036,26.151,19.761,22.762,5.116-1.178,7.727-13.591,9.417-20.566Z" style="fill:#407BFF;"></path><g style="opacity:.3;"><path d="M304.831,290.486s-.874-14.982-10.227-9.599c-9.352,5.383-12.426,17.958-12.038,18.474,.388,.516-3.106,21.008,11.412,17.708,7.686-1.747,11.799-13.423,10.853-26.583Z"></path></g><path d="M305.345,292.388s-.875-14.982-10.227-9.599c-9.352,5.384-12.426,17.958-12.038,18.474,.388,.516-3.106,21.008,11.412,17.708,7.687-1.747,11.8-13.423,10.853-26.583Z" style="fill:#407BFF;"></path><g><g style="opacity:.3;"><path d="M189.07,254.702s1.935-14.883,10.883-8.849c8.947,6.033,11.12,18.794,10.697,19.282-.424,.487,1.607,21.176-12.64,16.854-7.543-2.288-10.817-14.227-8.94-27.286Z"></path></g><path d="M186.62,255.925s1.935-14.883,10.882-8.85c8.947,6.033,11.12,18.794,10.697,19.282-.423,.487,1.607,21.176-12.639,16.853-7.543-2.288-10.817-14.226-8.94-27.285Z" style="fill:#407BFF;"></path></g><g style="opacity:.3;"><path d="M196.275,273.686s.656-22.993,10.278-23.045c9.622-.051,19.39,13.148,19.323,13.72-.067,.572,5.331,19.714-7.335,23.689-6.706,2.105-17.087-3.802-22.266-14.365Z"></path></g><path d="M196.721,275.336s.656-22.993,10.278-23.044c9.622-.052,19.39,13.148,19.322,13.72-.067,.572,5.331,19.714-7.335,23.689-6.706,2.105-17.087-3.802-22.266-14.365Z" style="fill:#407BFF;"></path><g style="opacity:.3;"><path d="M220.45,285.467s4.249-28.947,14.978-27.789c10.729,1.157,22.281,20.898,22.134,21.527-.146,.629,1.119,18.844-13.498,21.675-7.739,1.498-19.176-2.988-23.615-15.413Z"></path></g><path d="M221.869,285.035s3.634-25.54,14.363-24.383c10.729,1.157,19.948,17.1,19.801,17.729-.147,.629,3.452,22.643-11.165,25.474-7.739,1.499-18.561-6.394-22.999-18.819Z" style="fill:#407BFF;"></path><g style="opacity:.3;"><path d="M196.019,306.126c-5.399-5.959-8.319-13.823-8.137-21.862,.128-5.655,1.605-11.325,7.008-11.354,10.791-.058,25.142,12.916,25.067,13.557-.075,.641,5.979,22.11-8.226,26.568-4.936,1.549-10.694-1.371-15.712-6.91Z"></path></g><path d="M194.996,308.644c-5.398-5.959-8.318-13.823-8.136-21.861,.128-5.656,1.605-11.325,7.008-11.355,10.791-.057,25.142,12.916,25.067,13.557-.075,.641,5.979,22.11-8.226,26.569-4.936,1.549-10.694-1.371-15.712-6.91Z" style="fill:#407BFF;"></path><g style="opacity:.3;"><path d="M201.13,318.498s-6.788-13.385,4.003-13.443c10.791-.058,19.778,9.259,19.703,9.9-.075,.641,13.261,16.587-.944,21.046-7.521,2.36-16.954-5.657-22.762-17.503Z"></path></g><path d="M200.445,320.724s-6.788-13.385,4.003-13.443c10.791-.058,19.778,9.259,19.703,9.9-.075,.641,13.261,16.587-.944,21.046-7.521,2.36-16.953-5.657-22.762-17.503Z" style="fill:#407BFF;"></path><g style="opacity:.3;"><path d="M213.083,314.399c-1.043-1.656-2.86-5.575-2.658-7.526,.681-6.603,3.342-22.603,11.992-22.766,10.983-.205,22.511,14.668,22.426,15.291-.086,.623,4.348,20.071-10.17,24.592-7.068,2.202-15.476,.118-21.59-9.593Z"></path></g><path d="M213.395,313.117c-1.013-1.664-1.442-3.621-1.278-5.562,.558-6.57,2.744-22.037,10.957-22.081,10.429-.056,21.016,14.251,20.943,14.871-.073,.62,5.778,21.367-7.95,25.676-6.684,2.098-16.734-3.146-22.673-12.904Z" style="fill:#407BFF;"></path><g style="opacity:.3;"><path d="M278.469,287.076c-2.834-3.533-5.968-6.853-9.574-9.595-2.066-1.571-4.505-3.005-7.088-2.74-2.144,.219-4.012,1.593-5.444,3.204-2.869,3.228-4.352,7.427-5.674,11.538-.537,1.668-1.064,3.403-.861,5.143l-1.6,7.001c-.239,3.262,3.66,5.682,6.195,7.915,2.534,2.233,5.059,4.56,8.098,6.034,3.039,1.474,6.745,1.986,9.77,.486,2.748-1.363,4.491-4.106,6.096-6.72,2.606-4.242,5.316-8.973,4.512-13.887-.515-3.154-2.429-5.887-4.43-8.38Z"></path></g><path d="M278.39,289.756c-2.835-3.533-5.969-6.853-9.574-9.595-2.066-1.571-4.505-3.005-7.088-2.741-2.145,.219-4.012,1.593-5.444,3.205-2.869,3.227-4.352,7.427-5.675,11.538l-2.46,12.144c-.239,3.262,3.66,5.683,6.194,7.916,2.534,2.233,5.059,4.56,8.098,6.034,3.039,1.474,6.745,1.987,9.771,.486,2.747-1.363,4.491-4.106,6.096-6.72,2.605-4.242,5.315-8.973,4.512-13.886-.516-3.155-2.429-5.887-4.43-8.38Z" style="fill:#407BFF;"></path><g style="opacity:.3;"><path d="M261.252,310.258c-2.446-3.288-5.17-6.393-8.338-8.991-1.816-1.489-3.974-2.865-6.318-2.712-1.946,.127-3.68,1.307-5.028,2.717-2.701,2.823-4.18,6.571-5.511,10.243-.54,1.49-1.17,3.334-1.382,5.152l-.829,4.34c-.766,3.244,2.707,6.664,4.924,8.766,2.217,2.102,4.422,4.29,7.121,5.723,2.699,1.433,6.032,2.019,8.817,.762,2.529-1.141,4.196-3.564,5.733-5.873,2.496-3.749,5.103-7.936,4.539-12.405-.362-2.868-2.002-5.402-3.728-7.722Z"></path></g><path d="M262.805,313.103c-2.578-3.466-5.45-6.74-8.79-9.479-1.915-1.569-4.189-3.021-6.66-2.859-2.052,.134-3.88,1.379-5.301,2.865-2.847,2.977-4.407,6.927-5.81,10.799-.569,1.571-.852,2.801-1,4.872l-1.332,5.135c-.808,3.42,2.854,7.026,5.191,9.242,2.338,2.216,4.663,4.523,7.508,6.033,2.845,1.511,6.359,2.128,9.295,.803,2.666-1.203,4.424-3.757,6.044-6.192,2.631-3.953,5.379-8.367,4.785-13.077-.381-3.024-2.11-5.696-3.93-8.142Z" style="fill:#407BFF;"></path><g style="opacity:.3;"><path d="M300.397,311.327c.102-1.708-.443-3.359-1.499-4.718-3.576-4.602-12.755-15.025-19.946-11.196-9.131,4.861-11.648,20.43-11.293,20.854,.355,.425,5,18.536,19.011,15.272,6.82-1.589,13.13-10.196,13.727-20.212Z"></path></g><path d="M300.809,313.397c.102-1.708-.443-3.359-1.499-4.718-3.576-4.601-12.755-15.025-19.946-11.196-9.131,4.861-11.648,20.43-11.293,20.854,.355,.425,5,18.536,19.01,15.272,6.821-1.589,13.13-10.196,13.728-20.212Z" style="fill:#407BFF;"></path><g style="opacity:.3;"><path d="M260.281,332.566c-1.97-2.6,2.033-11.313,5.559-15.757,1.756-2.211,4.277-4.27,7.081-3.931,1.691,.204,3.148,1.253,4.475,2.322,2.505,2.019,4.849,4.238,7.002,6.628,2.068,2.294,4.074,5.155,3.566,8.202-.336,2.013-1.724,3.68-3.178,5.113-2.403,2.368-5.17,4.418-8.301,5.674-3.131,1.256-4.625-.046-7.892-.889-3.267-.843-6.855-4.319-8.312-7.362"></path></g><path d="M259.228,336.192c-1.969-2.6,3.469-13.192,6.997-17.636,1.756-2.212,4.277-4.271,7.081-3.932,1.691,.204,3.148,1.254,4.475,2.323,2.505,2.019,4.849,4.238,7.002,6.628,2.068,2.294,4.074,5.155,3.565,8.202-.336,2.013-1.724,3.681-3.178,5.113-2.403,2.368-5.17,4.418-8.301,5.673-3.131,1.256-4.626-.045-7.892-.889-3.266-.843-6.854-4.318-8.312-7.361" style="fill:#407BFF;"></path><g style="opacity:.3;"><path d="M248.373,335.449c-1.347-3.143-3.814-5.704-6.603-7.683-2.789-1.978-5.911-3.428-9.014-4.866-1.65-.765-3.407-1.549-5.213-1.343-1.516,.173-2.887,1.043-3.923,2.162-1.036,1.12-1.772,2.48-2.438,3.853-1.363,2.813-2.491,5.958-1.838,9.014,.485,2.269,1.925,4.248,3.68,5.765,1.755,1.518,3.822,2.625,5.891,3.676,3.148,1.599,6.604,3.139,10.087,2.559,2.88-.48,5.396-2.419,6.96-4.884,1.564-2.465,2.246-5.411,2.366-8.329"></path></g><path d="M247.773,336.492c-1.347-3.143-3.813-5.704-6.602-7.682-2.789-1.978-5.911-3.428-9.014-4.866-1.65-.765-3.406-1.548-5.213-1.343-1.516,.173-2.887,1.043-3.923,2.162-1.036,1.12-1.773,2.48-2.438,3.853-1.362,2.812-2.491,5.958-1.838,9.014,.485,2.269,1.925,4.248,3.68,5.765,1.755,1.518,3.822,2.624,5.891,3.675,3.148,1.599,6.605,3.139,10.088,2.559,2.88-.48,5.396-2.419,6.96-4.884,1.564-2.465,2.246-5.412,2.366-8.329" style="fill:#407BFF;"></path><g style="opacity:.3;"><path d="M274.815,343.539c-.041-1.314,.043-.979-.84-1.922-.883-.943-1.963-1.628-3.03-2.303-2.419-1.529-4.839-3.058-7.258-4.588-2.255-1.425-4.655-2.895-7.207-2.886-3.502,.013-6.301,2.763-8.754,5.354-1.661,1.754-3.334,3.523-4.645,5.604-1.31,2.081-2.543,3.437-2.574,6.013,0,0,6.356,2.139,17.889-.753,8.685-2.179,16.419-4.521,16.419-4.521Z"></path></g><path d="M274.892,343.819c-.01-1.201,.064-.896-.791-1.737-.856-.842-1.913-1.444-2.958-2.035-2.369-1.342-4.738-2.685-7.107-4.028-2.207-1.251-4.559-2.54-7.095-2.472-3.48,.093-6.325,2.672-8.823,5.098-1.692,1.643-3.395,3.299-4.745,5.233-1.351,1.933-2.607,3.202-2.697,5.558,0,0,6.267,1.81,17.794-1.102,8.682-2.193,16.422-4.513,16.422-4.513Z" style="fill:#407BFF;"></path><g style="opacity:.2;"><path d="M251.262,316.993c-.981-.74-1.631-1.931-2.214-3.29,.213,2.302-.799,5.158-2.401,6.719,1.27-.4,2.684-.932,3.499-2.249,2.019,1.268,2.199,.747,3.584,.372-1.029-.449-1.486-.812-2.468-1.553Z"></path></g><g style="opacity:.2;"><path d="M287.513,311.202c-.982-.74-1.631-1.931-2.214-3.289,.213,2.302-.799,5.158-2.401,6.719,1.269-.4,2.684-.932,3.499-2.249,2.019,1.268,2.199,.747,3.584,.372-1.028-.449-1.485-.812-2.467-1.553Z"></path></g><g style="opacity:.2;"><path d="M291.633,273.01c-.671-1.03-.876-2.371-.961-3.847-.584,2.237-2.508,4.578-4.546,5.5,1.33,.057,2.841,.039,4.056-.923,1.466,1.88,1.813,1.451,3.243,1.571-.814-.773-1.12-1.27-1.791-2.301Z"></path></g><g style="opacity:.2;"><path d="M240.406,279.892c-1.037-.661-1.778-1.797-2.466-3.105,.393,2.278-.391,5.205-1.866,6.887,1.234-.498,2.602-1.14,3.311-2.517,2.113,1.105,2.251,.571,3.603,.09-1.061-.367-1.545-.693-2.582-1.354Z"></path></g><g style="opacity:.2;"><path d="M223.153,245.231c-1.037-.661-1.778-1.796-2.465-3.105,.393,2.278-.391,5.205-1.866,6.887,1.234-.498,2.603-1.14,3.311-2.518,2.112,1.106,2.25,.572,3.602,.09-1.06-.367-1.545-.694-2.582-1.354Z"></path></g><g style="opacity:.2;"><path d="M202.473,240.061c-.445-.672-.588-1.549-.651-2.516-.371,1.469-1.619,3.014-2.95,3.629,.872,.03,1.862,.01,2.653-.627,.971,1.224,1.196,.941,2.134,1.011-.538-.501-.741-.826-1.186-1.497Z"></path></g><g style="opacity:.2;"><path d="M193.502,261.304c-.611-.526-.986-1.332-1.309-2.245,.042,1.515-.74,3.341-1.854,4.293,.847-.208,1.795-.496,2.384-1.323,1.267,.915,1.407,.581,2.329,.395-.654-.337-.938-.594-1.548-1.12Z"></path></g><g style="opacity:.2;"><path d="M261.889,234.708c-1.037-.661-1.778-1.797-2.466-3.105,.393,2.278-.391,5.205-1.866,6.887,1.234-.498,2.603-1.14,3.311-2.517,2.112,1.105,2.251,.571,3.602,.09-1.06-.367-1.545-.693-2.582-1.354Z"></path></g><g style="opacity:.2;"><path d="M240.262,226.172c-1.037-.661-1.778-1.797-2.466-3.105,.393,2.278-.391,5.205-1.866,6.887,1.234-.498,2.603-1.14,3.312-2.517,2.112,1.106,2.25,.571,3.602,.09-1.061-.366-1.545-.693-2.582-1.354Z"></path></g><g style="opacity:.2;"><path d="M270.881,219.658c-1.202-.259-2.292-1.066-3.392-2.053,1.161,1.999,1.446,5.016,.648,7.106,.983-.897,2.043-1.975,2.228-3.513,2.365,.301,2.308-.248,3.408-1.17-1.122,.026-1.69-.112-2.892-.37Z"></path></g><g style="opacity:.2;"><path d="M201.09,293.686c-1.098-.554-1.949-1.61-2.764-2.843,.619,2.227,.132,5.218-1.167,7.039,1.178-.62,2.475-1.395,3.043-2.836,2.212,.888,2.296,.344,3.593-.272-1.092-.259-1.607-.535-2.704-1.089Z"></path></g><g style="opacity:.2;"><path d="M226.704,302.612c-1.037-.661-1.778-1.797-2.466-3.105,.393,2.278-.391,5.205-1.866,6.887,1.234-.498,2.602-1.14,3.311-2.517,2.112,1.106,2.251,.572,3.602,.09-1.06-.366-1.545-.693-2.582-1.354Z"></path></g><g style="opacity:.2;"><path d="M212.422,322.555c-1.229-.016-2.457-.591-3.731-1.342,1.533,1.73,2.407,4.631,2.039,6.838,.787-1.073,1.613-2.34,1.49-3.884,2.378-.172,2.215-.699,3.11-1.82-1.095,.247-1.679,.224-2.908,.208Z"></path></g><g style="opacity:.2;"><path d="M266.481,265.241c-1.037-.661-1.778-1.797-2.466-3.105,.393,2.278-.391,5.206-1.866,6.887,1.234-.498,2.603-1.14,3.311-2.517,2.112,1.105,2.25,.571,3.602,.09-1.06-.366-1.545-.693-2.582-1.354Z"></path></g><g style="opacity:.2;"><path d="M283.744,244.813c-1.037-.661-1.778-1.797-2.465-3.105,.393,2.278-.391,5.205-1.866,6.887,1.234-.498,2.603-1.14,3.311-2.517,2.112,1.105,2.25,.571,3.602,.09-1.06-.366-1.545-.693-2.582-1.354Z"></path></g><g style="opacity:.2;"><path d="M247.197,251.08c-1.037-.661-1.778-1.797-2.466-3.105,.393,2.278-.391,5.205-1.866,6.887,1.234-.498,2.603-1.14,3.311-2.517,2.112,1.106,2.251,.571,3.602,.09-1.06-.367-1.545-.693-2.582-1.354Z"></path></g><g style="opacity:.2;"><path d="M212.481,269.174c-1.037-.661-1.778-1.796-2.466-3.105,.393,2.278-.391,5.206-1.866,6.888,1.234-.498,2.603-1.14,3.312-2.518,2.112,1.106,2.25,.572,3.602,.09-1.061-.367-1.545-.694-2.582-1.355Z"></path></g><g style="opacity:.2;"><path d="M274.186,329.877c-.982-.741-1.632-1.931-2.214-3.29,.212,2.302-.799,5.159-2.402,6.72,1.27-.4,2.684-.932,3.5-2.249,2.019,1.268,2.198,.746,3.584,.372-1.029-.449-1.486-.812-2.467-1.553Z"></path></g><g style="opacity:.2;"><path d="M265.55,295.317c-.982-.74-1.631-1.931-2.214-3.289,.213,2.302-.799,5.159-2.401,6.719,1.269-.4,2.684-.932,3.499-2.25,2.019,1.268,2.199,.747,3.584,.373-1.028-.449-1.486-.813-2.467-1.553Z"></path></g><g style="opacity:.2;"><path d="M301.403,297.23c-.281-1.08-.164-2.414,.067-3.867-.867,2.127-2.726,4.211-4.385,4.894,.952,.198,2.051,.342,3.122-.468,.689,1.996,1.025,1.614,2.037,1.884-.436-.843-.559-1.362-.841-2.443Z"></path></g><g style="opacity:.2;"><path d="M232.771,337.124c-.982-.74-1.631-1.931-2.214-3.289,.213,2.302-.799,5.158-2.401,6.719,1.269-.4,2.684-.932,3.499-2.249,2.019,1.268,2.199,.747,3.584,.372-1.028-.449-1.486-.812-2.468-1.553Z"></path></g><g style="opacity:.2;"><path d="M258.171,342.708c-.982-.741-1.631-1.931-2.214-3.29,.213,2.302-.799,5.159-2.401,6.719,1.269-.4,2.684-.932,3.499-2.249,2.019,1.268,2.199,.746,3.584,.372-1.028-.449-1.485-.812-2.467-1.553Z"></path></g><g style="opacity:.3;"><path d="M252.155,306.14c-.672-1.174-1.854-1.995-3.154-2.307-.758-.181-1.554-.126-2.305,.088h0c-.735,.209-1.425,.573-1.97,1.108-2.385,2.34-3.587,5.727-4.669,8.941-.203,.603-.408,1.228-.349,1.861,.06,.633,.459,1.281,1.08,1.421,.553,.124,1.111-.173,1.559-.52,1.385-1.073,2.254-2.657,3.237-4.107,.983-1.45,2.226-2.877,3.919-3.324,1.025-.271,2.269-.222,2.781-1.303,.28-.591,.195-1.291-.129-1.857Z" style="fill:#fff;"></path></g><g style="opacity:.3;"><path d="M266.665,281.136c-.672-1.173-1.854-1.995-3.154-2.306-.758-.182-1.555-.127-2.305,.087h0c-.735,.209-1.425,.573-1.97,1.108-2.385,2.34-3.587,5.726-4.669,8.941-.203,.603-.409,1.227-.349,1.861,.059,.633,.459,1.281,1.08,1.42,.553,.125,1.111-.173,1.559-.52,1.384-1.073,2.254-2.657,3.236-4.107,.983-1.45,2.226-2.877,3.919-3.324,1.025-.27,2.269-.222,2.782-1.303,.28-.59,.195-1.291-.129-1.857Z" style="fill:#fff;"></path></g><g style="opacity:.3;"><path d="M282.883,233.483c-.672-1.174-1.854-1.995-3.154-2.307-.758-.182-1.554-.126-2.304,.088h0c-.735,.209-1.425,.573-1.97,1.108-2.385,2.339-3.587,5.726-4.669,8.941-.203,.602-.408,1.227-.349,1.861,.06,.633,.459,1.281,1.08,1.42,.553,.125,1.111-.173,1.559-.52,1.385-1.072,2.254-2.657,3.237-4.106,.983-1.45,2.226-2.877,3.919-3.324,1.026-.271,2.27-.222,2.782-1.303,.28-.59,.195-1.29-.13-1.857Z" style="fill:#fff;"></path></g><g style="opacity:.2;"><path d="M227.352,290.047c-.672-1.174-1.854-1.995-3.154-2.307-.758-.182-1.554-.126-2.305,.088h0c-.735,.209-1.425,.573-1.97,1.108-2.385,2.339-3.587,5.727-4.669,8.941-.203,.603-.408,1.228-.349,1.861,.059,.633,.459,1.281,1.08,1.42,.553,.124,1.111-.173,1.559-.52,1.385-1.073,2.254-2.657,3.237-4.107,.983-1.45,2.225-2.877,3.919-3.324,1.025-.271,2.27-.222,2.782-1.303,.28-.59,.195-1.29-.129-1.857Z" style="fill:#fff;"></path></g><g style="opacity:.2;"><path d="M212.225,256.136c-.673-1.174-1.853-1.995-3.154-2.307-.759-.181-1.554-.126-2.305,.088h0c-.735,.209-1.425,.573-1.97,1.108-2.385,2.34-3.587,5.727-4.669,8.941-.202,.603-.409,1.228-.349,1.861,.059,.634,.459,1.281,1.079,1.421,.553,.124,1.111-.174,1.559-.52,1.385-1.073,2.254-2.657,3.237-4.107,.982-1.45,2.225-2.877,3.919-3.324,1.025-.271,2.269-.222,2.782-1.303,.28-.59,.195-1.291-.13-1.857Z" style="fill:#fff;"></path></g><g style="opacity:.2;"><path d="M239.934,265.595c-.672-1.174-1.854-1.995-3.154-2.307-.758-.182-1.555-.126-2.305,.088h0c-.734,.209-1.425,.573-1.97,1.108-2.385,2.339-3.587,5.727-4.669,8.941-.203,.602-.409,1.228-.349,1.861,.06,.634,.459,1.281,1.08,1.421,.553,.124,1.111-.173,1.559-.52,1.385-1.072,2.254-2.657,3.237-4.106,.983-1.45,2.226-2.877,3.919-3.324,1.025-.271,2.27-.222,2.782-1.303,.28-.59,.195-1.29-.129-1.857Z" style="fill:#fff;"></path></g><g style="opacity:.1;"><path d="M286.562,300.937c-.672-1.174-1.854-1.995-3.154-2.307-.758-.181-1.555-.126-2.305,.088h0c-.735,.209-1.425,.573-1.97,1.108-2.385,2.34-3.587,5.727-4.669,8.941-.203,.603-.409,1.227-.349,1.861,.059,.633,.459,1.281,1.08,1.421,.553,.124,1.111-.173,1.559-.52,1.385-1.073,2.254-2.657,3.236-4.107,.983-1.45,2.226-2.878,3.919-3.324,1.025-.271,2.27-.222,2.782-1.303,.28-.59,.195-1.291-.129-1.857Z" style="fill:#fff;"></path></g><g style="opacity:.1;"><path d="M232.043,328.411c-.634-1.184-1.711-2.034-2.879-2.381-.681-.203-1.389-.171-2.051,.019h0c-.649,.186-1.253,.526-1.724,1.041-2.057,2.251-3.029,5.576-3.899,8.733-.163,.592-.328,1.206-.257,1.836,.072,.63,.447,1.284,1.004,1.441,.496,.14,.985-.139,1.374-.47,1.203-1.023,1.931-2.569,2.764-3.979,.833-1.41,1.899-2.789,3.396-3.183,.906-.238,2.017-.154,2.442-1.211,.232-.578,.136-1.274-.17-1.846Z" style="fill:#fff;"></path></g><g style="opacity:.1;"><path d="M197.463,279.675c-.894-1.002-2.141-1.574-3.359-1.636-.71-.037-1.39,.161-1.989,.501h0c-.587,.333-1.094,.807-1.431,1.418-1.47,2.672-1.632,6.132-1.735,9.406-.019,.614-.035,1.249,.183,1.845,.218,.595,.737,1.143,1.315,1.164,.515,.019,.925-.367,1.225-.781,.928-1.277,1.272-2.952,1.75-4.518,.479-1.566,1.19-3.158,2.552-3.893,.825-.445,1.923-.624,2.088-1.751,.09-.615-.168-1.271-.6-1.754Z" style="fill:#fff;"></path></g><g style="opacity:.1;"><path d="M276.111,319.554c-.672-1.173-1.854-1.995-3.154-2.307-.758-.182-1.554-.126-2.304,.087h0c-.734,.209-1.425,.573-1.97,1.108-2.385,2.34-3.587,5.727-4.669,8.941-.203,.603-.408,1.228-.349,1.861,.06,.633,.459,1.281,1.08,1.421,.553,.124,1.111-.173,1.559-.52,1.385-1.072,2.254-2.657,3.236-4.107,.983-1.45,2.226-2.877,3.919-3.324,1.025-.271,2.27-.222,2.782-1.303,.28-.59,.195-1.291-.13-1.857Z" style="fill:#fff;"></path></g><g style="opacity:.2;"><path d="M266.529,255.1c-.672-1.173-1.854-1.995-3.154-2.307-.759-.182-1.555-.126-2.305,.087h0c-.734,.209-1.425,.573-1.97,1.108-2.385,2.34-3.587,5.727-4.669,8.941-.203,.603-.408,1.228-.349,1.861,.059,.633,.459,1.281,1.08,1.421,.553,.125,1.111-.173,1.559-.52,1.385-1.072,2.254-2.657,3.237-4.107,.983-1.45,2.225-2.877,3.919-3.324,1.025-.271,2.269-.222,2.782-1.303,.28-.59,.195-1.29-.13-1.857Z" style="fill:#fff;"></path></g><g style="opacity:.2;"><path d="M293.854,260.137c-.416-1.287-1.402-2.335-2.61-2.908-.704-.335-1.495-.444-2.272-.391h0c-.762,.053-1.513,.266-2.157,.677-2.817,1.796-4.693,4.862-6.416,7.784-.323,.548-.653,1.117-.726,1.749-.073,.632,.185,1.348,.763,1.613,.515,.236,1.123,.06,1.633-.187,1.577-.763,2.754-2.133,4.015-3.35,1.261-1.215,2.772-2.355,4.521-2.443,1.059-.053,2.267,.252,2.991-.7,.396-.52,.458-1.222,.257-1.844Z" style="fill:#fff;"></path></g><g style="opacity:.2;"><path d="M223.124,231.957c-.938-.974-2.284-1.483-3.621-1.468-.78,.009-1.538,.257-2.214,.646h0c-.661,.382-1.242,.903-1.641,1.555-1.742,2.851-2.082,6.428-2.348,9.81-.05,.634-.097,1.29,.115,1.89,.212,.599,.758,1.13,1.394,1.114,.566-.014,1.035-.439,1.385-.885,1.082-1.378,1.538-3.126,2.138-4.772,.599-1.646,1.457-3.333,2.99-4.179,.929-.512,2.147-.769,2.38-1.942,.128-.64-.125-1.299-.578-1.769Z" style="fill:#fff;"></path></g></g><g style="opacity:.3;"><path d="M252.434,158.402c-1.087,1.179-2.087,2.433-3.11,3.667,11.798-26.824,30.471-47.261,49.031-70.466-27.601,7.102-47.236,25.971-59.673,49.173l-.014-.07-.007,.112c-.014,.026-.027,.052-.041,.077,1.246-15.902,.826-31.934-1.316-47.741-2.204-16.265-6.069-33.513,.52-48.546-9.28,7.134-13.805,18.888-15.944,30.396-2.138,11.508-2.338,23.353-5.15,34.716-1.634,6.605-7.044,12.062-11.884,17.519-1.064-5.105-2.369-9.664-4.015-13.362-9.826-22.063-35.267-33.745-45.973-55.394-2.844,7.204-3.058,15.242-1.795,22.883,1.263,7.642,3.94,14.971,6.756,22.186,3.688,9.453,10.135,23.763,18.085,39.084-18.099-15.749-44.831-21.262-67.545-13.297,27.849,7.366,49.19,29.519,75.21,41.878,.398,.2,.932,.628,1.52,1.146-3.185-1.75-6.52-3.206-10.041-4.194-18.933-5.311-39.451,2.351-58.694-1.697,10.956,13.504,28.747,21.15,46.084,19.806,0,0,.929-.013,2.491-.004-.744,.127-1.493,.252-2.202,.39-16.206,3.152-30.985,11.393-44.55,20.804,13.248-.367,26.444-2.57,39.092-6.528,5.762-1.804,11.642-3.998,17.651-3.415,.014,.001,.028,.005,.042,.007-12.249,9.717-24.788,31.922-22.009,43.526,.129,.538,10.682-20.083,23.497-27.652,8.662-5.115,17.531,1.802,26.402,7.15-.77,1.729-1.376,3.506-1.843,5.194-.27,.053-.539,.066-.81,.166-6.388,2.339-8.721,15.976-9.252,19.765-.011,.009-.023,.019-.033,.029-5.046,.761-6.29,10.213-6.29,10.213-1.196,8.318-.284,16.152,2.471,21.357-.17,.427-.329,.861-.459,1.327-1.226,2.167-1.704,5.158-1.773,8.174-.182,8.039,2.739,15.902,8.136,21.862,1.107,1.222,2.253,2.291,3.415,3.238-.462,3.893,2.033,8.841,2.033,8.841,4.768,9.725,11.968,16.763,18.558,17.705,.622,1.93,1.879,3.634,3.421,4.967,1.755,1.518,3.821,2.625,5.891,3.675,3.148,1.599,6.604,3.14,10.087,2.559,.81-.135,1.579-.409,2.319-.754,.023,.007,.02,.006,.046,.013-.024,.188-.085,.344-.093,.546,0,0,6.267,1.81,17.795-1.103,8.681-2.193,16.421-4.513,16.421-4.513-.003-.387-.009-.596-.028-.76,.607-.049,1.258-.196,2.006-.496,3.131-1.256,5.898-3.306,8.301-5.674,1.062-1.046,2.079-2.221,2.686-3.561,6.234-1.95,11.817-9.613,12.794-18.714,3.617-4.909,5.342-13.218,4.695-22.227,0,0-.161-2.563-.997-5.187-.26-1.2-.663-2.555-1.255-3.788,.04-.168,.083-.348,.122-.511,1.818-7.503,.512-15.332-3.616-21.77-.267-.417-.579-.815-.889-1.213-.145-.242-.266-.495-.419-.733-.211-.33-.465-.642-.704-.961,1.918-7.793-1.551-15.318-6.172-22.159-1.964-2.908-5.246-5.381-8.553-6.632-2.304-5.145-7.154-10.518-13.551-14.849,0,0-6.148-4.262-10.305-2.998-.784-.619-1.599-1.237-2.453-1.832,.146-.14,.296-.283,.442-.422,7.392-7.064,16.399-14.167,26.586-13.275-6.812-2.801-14.418-3.584-21.674-2.337,10.288-6.57,22.061-10.826,34.207-12.083-.481-3.274-3.291-5.846-6.428-6.899-3.137-1.053-6.552-.836-9.825-.354-5.914,.871-12.352,2.644-18.604,5.343,.01-.017,.021-.035,.032-.053,.609-.526,.714-.754,.48-.781,1.78-2.903,3.567-5.802,5.442-8.641,10.237-15.508,23.37-21.416,38.095-32.75-19.127,2.224-39.084,5.955-52.871,20.898Z"></path></g></g><g><g><path d="M142.336,258.326s-13.79-13.314-27.973-11.146c-14.184,2.168-10.669,11.807-28.229,14.5,0,0,24.242,10.222,40.227,3.465l15.975-6.818Z" style="fill:#263238;"></path><path d="M142.336,258.326s-13.79-13.314-27.973-11.146c-14.184,2.168-10.669,11.807-28.229,14.5,0,0,24.242,10.222,40.227,3.465l15.975-6.818Z" style="fill:#fff; isolation:isolate; opacity:.1;"></path><path d="M129.984,251.978c.52,.224,.76,.826,.537,1.346-.178,.414-.606,.663-1.054,.614-4.98-.572-10.025-.093-14.809,1.404-4.806,1.501-8.864,2.652-12.009,3.492-.543,.15-1.105-.169-1.255-.712-.113-.411,.041-.85,.388-1.099,1.938-1.438,3.675-3.129,5.166-5.026,3.833-4.895,14.911-3.445,23.036-.019Z" style="fill:#fff; isolation:isolate; opacity:.1;"></path><path d="M148.504,261.316s-4.58-2.335-6.168-2.99c-6.773-2.807-16.761-5.762-29.279-1.294-12.518,4.467-21.394,4.895-21.394,4.895,0,0,5.963,1.116,22.36-4.072,17.985-5.695,34.013,4.23,34.013,4.23l.468-.768Z" style="fill:#263238;"></path><path d="M131.581,255.939s-7.38,3.568-10.056,9.405c0,0,.776-5.456,8.67-9.525l1.386,.12Z" style="fill:#263238;"></path><path d="M120.567,255.853s-7.375,3.256-10.439,10.231c0,0,1.074-6.207,8.24-9.949l2.198-.282Z" style="fill:#263238;"></path><path d="M108.025,259.061s-2.956,1.166-4.734,2.82c-1.778,1.653-4.623,2.231-4.623,2.231,0,0,3.194-1.682,4.129-2.574,.634-.581,1.343-1.073,2.109-1.464l3.119-1.013Z" style="fill:#263238;"></path><path d="M100.42,260.931s-2.895-.288-4.57-1.64c.85,1.138,2.205,1.787,3.625,1.737l.945-.096Z" style="fill:#263238;"></path><path d="M112.666,257.36c-2.436,.575-4.998,.229-7.194-.972-3.561-2.01-4.254-1.429-4.254-1.429,1.225,.415,2.383,1.005,3.44,1.751,2.056,1.52,5.358,1.804,5.358,1.804l2.651-1.153Z" style="fill:#263238;"></path><path d="M123.537,255.251s-2.252-5.071-9.438-6.97c0,0,6.445,2.857,8.295,6.87l1.143,.099Z" style="fill:#263238;"></path><path d="M135.059,256.239c-2.383-1.422-4.463-3.298-6.122-5.522,0,0,.541,2.226,4.928,5.785l1.193-.263Z" style="fill:#263238;"></path></g><g id="freepik--freepik--peach-1--inject-2--inject-24"><path d="M140.732,259.606s-21.558-.481-26.738,19.39c-5.179,19.871,14.863,48.928,45.138,39.621,30.275-9.307,26.027-44.388,14.858-56.652-11.17-12.264-25.869-12.171-33.258-2.359Z" style="fill:#407BFF;"></path><path d="M113.994,278.996c-2.79,10.711,1.75,24.092,11.268,32.696h0s-14.326-12.794-3.029-31.454c11.297-18.661,31.527-13.675,31.527-13.675,0,0-3.399-6.437,5.034-9.922,7.068-2.918,15.074,5.498,17.473,8.293-.679-1.045-1.439-2.034-2.273-2.961-11.169-12.264-25.869-12.171-33.258-2.359-.004-.009-21.563-.489-26.742,19.381Z" style="fill:#407BFF;"></path><path d="M113.994,278.996c-2.79,10.711,1.75,24.092,11.268,32.696h0s-14.326-12.794-3.029-31.454c11.297-18.661,31.527-13.675,31.527-13.675,0,0-3.399-6.437,5.034-9.922,7.068-2.918,15.074,5.498,17.473,8.293-.679-1.045-1.439-2.034-2.273-2.961-11.169-12.264-25.869-12.171-33.258-2.359-.004-.009-21.563-.489-26.742,19.381Z" style="isolation:isolate; opacity:.2;"></path><path d="M160.103,275.232s-3.481-15.349-16.883-18.324c-.915,.816-1.748,1.72-2.488,2.698,0,0,11.945,1.296,19.37,15.626Z" style="fill:#407BFF;"></path><path d="M160.103,275.232s-3.481-15.349-16.883-18.324c-.915,.816-1.748,1.72-2.488,2.698,0,0,11.945,1.296,19.37,15.626Z" style="isolation:isolate; opacity:.3;"></path><path d="M142.754,307.016c6.603-1.599-1.696-14.102-4.407-12.797-4.985,2.4-10.789,16.478,4.407,12.797Z" style="fill:#fff; isolation:isolate; opacity:.2;"></path></g></g><g><g><g><path d="M236.586,301.148s38.702,14.141,82.381-16.228c0,0,19.728-15.263,29.603-38.069l-3.28-4.707s-28.075,14.078-59.466,25.978c-26.629,10.095-51.146,19.316-51.146,19.316l-1.866,1.878-7.102,2.806,3.586,9.793,7.29-.767Z" style="fill:#407BFF;"></path><path d="M232.813,289.316l1.353,4.242s69.718-18.728,91.377-34.97l21.827-13.459-2.079-2.984c-26.281,12.997-56.689,25.085-90.31,37.643-6.646,2.482-13.468,5.18-20.302,7.651l-1.866,1.878Z" style="opacity:.2;"></path><path d="M236.508,292.496c19.619-4.041,38.637-10.627,57.05-18.447,18.386-7.882,36.302-17.053,52.795-28.419-16.386,11.536-34.335,20.699-52.697,28.649-18.446,7.753-37.481,14.371-57.148,18.218h0Z" style="fill:#263238;"></path><polygon points="225.71 292.122 229.296 301.915 236.586 301.148 232.813 289.316 225.71 292.122" style="fill:#263238;"></polygon></g><g><path d="M267.38,339.75s41.203-.435,71.345-44.27c0,0,13.068-21.246,14.255-46.07l-4.73-3.245s-21.296,23.084-46.464,45.301c-21.349,18.847-41.032,36.131-41.032,36.131l-1.082,2.416-5.654,5.133,6.812,7.896,6.55-3.291Z" style="fill:#407BFF;"></path><path d="M259.672,330.012l2.764,3.491s58.615-42.138,73.145-64.982l15.668-20.299-2.999-2.058c-20,21.439-44.181,43.485-71.203,67.105-5.342,4.669-10.772,9.602-16.293,14.327l-1.082,2.416Z" style="opacity:.2;"></path><path d="M264.252,331.682c16.928-10.708,32.396-23.585,46.862-37.402,14.419-13.866,27.943-28.772,39.361-45.23-11.258,16.579-24.816,31.488-39.188,45.41-14.52,13.767-29.992,26.68-47.035,37.222h0Z" style="fill:#263238;"></path><polygon points="254.018 335.145 260.831 343.041 267.38 339.75 259.672 330.012 254.018 335.145" style="fill:#263238;"></polygon></g><g><path d="M312.988,366.472s38.119-15.647,49.906-67.523c0,0,4.281-24.573-3.8-48.075l-5.595-1.265s-11.245,29.325-26.408,59.276c-12.863,25.408-24.754,48.747-24.754,48.747l-.112,2.645-3.354,6.86,9.25,4.815,4.867-5.481Z" style="fill:#407BFF;"></path><path d="M302.225,360.277l3.859,2.221s38.867-60.833,43.915-87.431l7.047-24.656-3.547-.802c-10.649,27.317-24.959,56.745-41.325,88.685-3.235,6.314-6.455,12.905-9.837,19.337l-.112,2.645Z" style="opacity:.2;"></path><path d="M307.097,360.134c11.766-16.211,21.373-33.897,29.7-52.085,8.266-18.217,15.316-37.068,19.835-56.582-4.326,19.567-11.406,38.435-19.608,56.686-8.397,18.162-17.995,35.882-29.927,51.982h0Z" style="fill:#263238;"></path><polygon points="298.871 367.137 308.121 371.953 312.988 366.472 302.225 360.277 298.871 367.137" style="fill:#263238;"></polygon></g></g><g><path d="M344.735,246.295l3.879-17.295s22.992,12.138,22.371,11.985c-.621-.153-11.901,11.798-11.901,11.798l-14.349-6.488Z" style="fill:#407BFF;"></path><path d="M344.735,246.295l3.879-17.295s22.992,12.138,22.371,11.985c-.621-.153-11.901,11.798-11.901,11.798l-14.349-6.488Z" style="opacity:.2;"></path></g></g></g><path d="M110.545,306.972c2.239,.454,23.42,78.792,30.957,106.918,1.566,5.846,6.863,9.909,12.915,9.909h180.226c6.036,0,11.324-4.044,12.905-9.869l29.025-106.958H110.545Z" style="fill:#b97964;"></path><g><g><path d="M219.904,356.239c-.18,0-.353-.097-.443-.267-.129-.244-.035-.547,.209-.676l29.995-15.832c.244-.128,.547-.035,.676,.209s.035,.547-.209,.676l-29.995,15.832c-.074,.039-.154,.058-.233,.058Z" style="fill:#a24e3f;"></path><path d="M162.792,413.496c-.18,0-.353-.097-.443-.267-.129-.244-.035-.547,.209-.676,9.876-5.213,53.935-30.33,54.379-30.583,.24-.136,.545-.053,.682,.187,.137,.24,.053,.546-.187,.683-.444,.253-44.517,25.378-54.407,30.599-.074,.039-.154,.058-.233,.058Z" style="fill:#a24e3f;"></path><path d="M147.021,377.492c-.18,0-.353-.097-.443-.267-.129-.244-.035-.547,.209-.676l45.894-24.224c.245-.128,.546-.035,.676,.209,.129,.244,.035,.547-.209,.676l-45.894,24.224c-.074,.039-.154,.058-.233,.058Z" style="fill:#a24e3f;"></path><path d="M208.713,340.402c-.18,0-.353-.097-.443-.267-.129-.244-.035-.547,.209-.676l23.628-12.472c.244-.128,.547-.035,.676,.209s.035,.547-.209,.676l-23.628,12.472c-.074,.039-.154,.058-.233,.058Z" style="fill:#a24e3f;"></path><path d="M241.852,364.681c-.18,0-.353-.097-.443-.267-.129-.244-.035-.547,.209-.676l23.628-12.471c.242-.127,.546-.036,.676,.209,.129,.244,.035,.547-.209,.676l-23.628,12.471c-.074,.039-.154,.058-.233,.058Z" style="fill:#a24e3f;"></path><path d="M257.845,337c-.178,0-.35-.095-.44-.263-.131-.243-.04-.546,.203-.678l27.94-15.076c.24-.128,.546-.041,.678,.203,.131,.243,.04,.546-.203,.678l-27.94,15.076c-.075,.04-.156,.06-.237,.06Z" style="fill:#a24e3f;"></path><path d="M273.516,344.837c-.146,0-.292-.064-.391-.188l-18.343-22.913c-.172-.216-.138-.53,.078-.703,.215-.17,.53-.137,.703,.078l18.343,22.913c.172,.216,.138,.53-.078,.703-.092,.073-.202,.109-.312,.109Z" style="fill:#a24e3f;"></path><path d="M287.904,336.332c-.146,0-.292-.064-.391-.188l-18.343-22.912c-.172-.216-.138-.53,.078-.703,.214-.17,.531-.137,.703,.078l18.343,22.912c.172,.216,.138,.53-.078,.703-.092,.073-.202,.109-.312,.109Z" style="fill:#a24e3f;"></path><path d="M254.894,357.577c-.146,0-.292-.064-.391-.188l-18.343-22.912c-.173-.216-.138-.53,.078-.703,.216-.172,.531-.136,.703,.078l18.344,22.912c.172,.216,.138,.53-.078,.703-.092,.073-.202,.109-.312,.109Z" style="fill:#a24e3f;"></path><path d="M232.341,361.698c-.147,0-.292-.064-.391-.188l-18.344-22.913c-.173-.216-.138-.53,.078-.703,.216-.171,.53-.137,.703,.078l18.344,22.913c.173,.216,.138,.53-.078,.703-.092,.073-.203,.109-.312,.109Z" style="fill:#a24e3f;"></path><path d="M270.639,395.772c-.179,0-.353-.097-.442-.267-.129-.244-.035-.547,.209-.676l29.995-15.832c.241-.128,.546-.036,.676,.209,.129,.244,.035,.547-.209,.676l-29.995,15.832c-.074,.039-.154,.058-.233,.058Z" style="fill:#a24e3f;"></path><path d="M259.448,379.936c-.179,0-.353-.097-.442-.267-.129-.244-.035-.547,.209-.676l23.628-12.472c.242-.127,.547-.036,.676,.209,.129,.244,.035,.547-.209,.676l-23.628,12.472c-.074,.039-.154,.058-.233,.058Z" style="fill:#a24e3f;"></path><path d="M292.587,404.214c-.179,0-.353-.097-.442-.267-.129-.244-.035-.547,.209-.676l23.628-12.471c.242-.127,.546-.036,.676,.209,.129,.244,.035,.547-.209,.676l-23.628,12.471c-.074,.039-.154,.058-.233,.058Z" style="fill:#a24e3f;"></path><path d="M308.58,376.533c-.178,0-.35-.095-.44-.263-.131-.243-.04-.546,.203-.678l27.94-15.076c.24-.128,.546-.041,.678,.203,.131,.243,.04,.546-.203,.678l-27.94,15.076c-.075,.04-.156,.06-.237,.06Z" style="fill:#a24e3f;"></path><path d="M324.251,384.37c-.146,0-.292-.064-.391-.188l-18.343-22.913c-.172-.216-.138-.53,.078-.703,.214-.17,.53-.137,.703,.078l18.343,22.913c.172,.216,.138,.53-.078,.703-.092,.073-.202,.109-.312,.109Z" style="fill:#a24e3f;"></path><path d="M338.641,375.865c-.146,0-.292-.064-.391-.188l-18.344-22.912c-.172-.216-.138-.53,.078-.703,.214-.17,.531-.137,.703,.078l18.344,22.912c.172,.216,.138,.53-.078,.703-.092,.073-.202,.109-.312,.109Z" style="fill:#a24e3f;"></path><path d="M305.629,397.11c-.146,0-.292-.064-.391-.188l-18.344-22.912c-.172-.216-.138-.53,.078-.703,.215-.17,.53-.138,.703,.078l18.344,22.912c.172,.216,.138,.53-.078,.703-.092,.073-.202,.109-.312,.109Z" style="fill:#a24e3f;"></path><path d="M283.076,401.231c-.146,0-.292-.064-.391-.188l-18.344-22.913c-.172-.216-.138-.53,.078-.703,.215-.17,.53-.138,.703,.078l18.344,22.913c.172,.216,.138,.53-.078,.703-.092,.073-.202,.109-.312,.109Z" style="fill:#a24e3f;"></path><path d="M195.285,408.663c-.139,0-.277-.058-.376-.171l-37.914-43.282c-.182-.207-.161-.523,.046-.705s.524-.162,.706,.047l37.914,43.282c.182,.207,.161,.523-.046,.705-.095,.083-.212,.124-.33,.124Z" style="fill:#a24e3f;"></path><path d="M186.461,368.461c-.145,0-.289-.062-.388-.184l-12.42-15.192c-.175-.214-.143-.528,.071-.703,.213-.176,.528-.145,.704,.07l12.42,15.192c.175,.214,.143,.528-.071,.703-.093,.076-.205,.113-.316,.113Z" style="fill:#a24e3f;"></path><path d="M154.739,388.238c-.145,0-.289-.062-.388-.184l-12.42-15.191c-.175-.214-.143-.528,.071-.703,.213-.176,.528-.145,.704,.07l12.42,15.191c.175,.214,.143,.528-.071,.703-.093,.076-.205,.113-.316,.113Z" style="fill:#a24e3f;"></path><path d="M217.185,406.702c-.146,0-.291-.063-.39-.186l-21.899-27.129c-.173-.215-.14-.53,.075-.703,.215-.176,.53-.139,.703,.074l21.899,27.129c.173,.215,.14,.53-.075,.703-.092,.075-.204,.111-.313,.111Z" style="fill:#a24e3f;"></path><path d="M202.409,411.365c-.173,0-.342-.09-.434-.251-.138-.24-.055-.545,.185-.683l21.838-12.525c.239-.137,.545-.055,.682,.185,.138,.24,.055,.545-.185,.683l-21.838,12.525c-.078,.045-.164,.066-.248,.066Z" style="fill:#a24e3f;"></path><path d="M162.144,388.746c-.18,0-.354-.098-.443-.268-.128-.245-.034-.547,.211-.676l22.301-11.683c.244-.125,.546-.032,.675,.211,.128,.245,.034,.547-.211,.676l-22.301,11.683c-.074,.038-.153,.057-.231,.057Z" style="fill:#a24e3f;"></path><path d="M174.041,413.496c-.15,0-.299-.067-.397-.195l-11.249-14.656c-.168-.22-.127-.533,.092-.701,.219-.167,.534-.125,.701,.092l11.249,14.656c.168,.22,.127,.533-.092,.701-.09,.069-.198,.104-.304,.104Z" style="fill:#a24e3f;"></path></g><rect x="102.4" y="293.483" width="286.083" height="16.893" rx="5.588" ry="5.588" style="fill:#b97964;"></rect><polygon points="112.147 310.376 115.971 322.218 372.752 322.218 375.649 310.376 112.147 310.376" style="opacity:.3;"></polygon><g><path d="M124.651,293.483s121.754,74.765,141.517,64.884c19.763-9.881,102.223-64.884,102.223-64.884H124.651Z" style="fill:#407BFF;"></path><rect x="226.884" y="322.732" width="114.151" height=".251" transform="translate(-125.642 192.105) rotate(-30.964)" style="fill:#fff;"></rect><polygon points="209.501 340.702 209.375 340.485 290.661 293.098 290.786 293.314 209.501 340.702" style="fill:#fff;"></polygon><polygon points="187.102 329.229 186.976 329.013 248.582 293.098 248.708 293.314 187.102 329.229" style="fill:#fff;"></polygon><polygon points="163.893 315.968 163.767 315.751 202.625 293.098 202.751 293.314 163.893 315.968" style="fill:#fff;"></polygon><polygon points="274.684 352.011 172.878 293.592 173.002 293.375 274.809 351.794 274.684 352.011" style="fill:#fff;"></polygon><rect x="255.384" y="269.784" width=".25" height="93.099" transform="translate(-145.964 380.913) rotate(-60.21)" style="fill:#fff;"></rect><polygon points="315.527 327.359 257.128 293.314 257.253 293.098 315.652 327.143 315.527 327.359" style="fill:#fff;"></polygon><polygon points="337.553 313.408 303.084 293.314 303.209 293.098 337.678 313.191 337.553 313.408" style="fill:#fff;"></polygon><path d="M124.651,293.483s121.754,74.765,141.517,64.884c19.763-9.881,102.223-64.884,102.223-64.884H124.651Z" style="fill:#fff; opacity:.6;"></path></g></g></g><g id="freepik--Strawberries--inject-24"><g><path d="M176.805,424.264c-1.423-1.149-3.034-2.038-4.636-2.919,2.838,.372,5.765,.052,8.456-.925-2.799-2.035-6.453-2.853-9.852-2.204,2.881-1.826,5.383-4.247,7.302-7.066-3.635-.122-7.285,1.591-9.514,4.464,.722-3.125,1.445-6.249,2.168-9.374,.083-.361,.154-.781-.082-1.066-.309-.372-.905-.25-1.345-.05-2.498,1.139-4.126,3.687-4.825,6.342-.699,2.655-.6,5.447-.497,8.19l1.937,2.854c3.475,4.038,8.877,6.341,14.197,6.051-.647-1.71-1.885-3.147-3.308-4.296Z" style="fill:#263238;"></path><path d="M167.487,439.383c2.213-2.233,3.23-5.482,3.125-8.624-.106-3.142-1.379-7.155-4.7-9.937,.048,.283-.972-9.061-5.852-12.068-4.151-2.558-11.279-2.221-15.464,.281-3.235,1.934-5.516,5.137-7.269,8.474-1.753,3.337-3.076,6.893-4.948,10.165-1.406,2.457-3.188,5.158-2.421,7.884,.401,1.425,1.475,2.589,2.729,3.374,1.255,.785,2.688,1.231,4.118,1.616,5.327,1.434,10.832,2.118,16.34,2.426,2.539,.142,5.105,.204,7.604-.268,2.499-.472,4.948-1.516,6.738-3.322Z" style="fill:#407BFF;"></path><g style="opacity:.3;"><path d="M136.49,439.713c-1.086-.297-2.31-.733-2.716-1.783-.278-.72,.369-3.663,.607-4.398,2.582-7.966,9.283-13.827,16-18.828,1.812-1.349,3.67-2.68,5.764-3.527,1.854-.749,3.93-1.093,5.872-.678-.571-.69-1.22-1.292-1.958-1.747-4.151-2.558-11.279-2.221-15.464,.281-3.235,1.934-5.516,5.137-7.269,8.474-1.753,3.337-3.076,6.893-4.948,10.165-1.406,2.457-3.188,5.158-2.421,7.884,.401,1.425,1.475,2.589,2.729,3.374,1.255,.785,2.688,1.231,4.118,1.616,5.327,1.434,10.832,2.118,16.34,2.426,2.539,.142,5.105,.204,7.604-.268,.343-.065,.684-.141,1.023-.228-5.897,.596-17.139-.537-25.282-2.763Z" style="fill:#fff;"></path></g><path d="M144.989,432.233l-.018-.365c-.471-.045-.956,.078-1.348,.342-.166,.111-.319,.253-.401,.435-.082,.182-.08,.411,.043,.568,.118,.151,.327,.21,.517,.185,.19-.025,.363-.124,.514-.241,.308-.238,.55-.561,.692-.923Z" style="fill:#fff;"></path><path d="M136.86,435.359l-.018-.365c-.471-.045-.956,.078-1.348,.342-.166,.111-.319,.253-.401,.435-.082,.182-.08,.411,.043,.568,.118,.151,.327,.21,.517,.185,.19-.025,.363-.124,.515-.241,.308-.238,.55-.561,.692-.923Z" style="fill:#fff;"></path><path d="M137.571,427.632l-.018-.365c-.471-.045-.956,.078-1.348,.342-.166,.112-.319,.253-.401,.435-.082,.182-.08,.411,.043,.568,.118,.151,.327,.21,.517,.185,.19-.026,.363-.124,.515-.241,.308-.238,.55-.561,.692-.923Z" style="fill:#fff;"></path><path d="M144.852,424.919l-.018-.365c-.471-.045-.956,.078-1.348,.342-.166,.112-.319,.253-.401,.435s-.08,.411,.043,.568c.118,.151,.327,.21,.517,.185,.19-.025,.363-.124,.515-.241,.308-.238,.55-.561,.692-.923Z" style="fill:#fff;"></path><path d="M142,417.794l-.018-.365c-.471-.045-.956,.078-1.348,.342-.166,.112-.319,.253-.401,.435-.082,.182-.08,.411,.043,.568,.118,.151,.327,.21,.517,.185,.19-.026,.363-.124,.514-.241,.308-.238,.55-.561,.692-.923Z" style="fill:#fff;"></path><path d="M153.565,434.791l-.018-.365c-.471-.045-.956,.078-1.348,.342-.166,.112-.319,.253-.401,.435-.082,.182-.08,.411,.043,.568,.118,.151,.328,.21,.517,.185,.19-.025,.363-.124,.515-.241,.308-.238,.55-.561,.692-.923Z" style="fill:#fff;"></path><path d="M155.168,440.434l-.018-.365c-.471-.045-.956,.078-1.348,.342-.166,.112-.319,.253-.401,.435-.082,.182-.08,.411,.043,.568,.118,.151,.327,.21,.517,.185,.19-.025,.363-.124,.514-.241,.308-.238,.55-.561,.692-.923Z" style="fill:#fff;"></path><path d="M146.545,439.315l.156-.331c-.394-.262-.88-.382-1.35-.333-.199,.02-.4,.073-.558,.195-.158,.122-.264,.325-.229,.522,.033,.189,.19,.339,.369,.407,.18,.067,.379,.061,.567,.029,.384-.065,.749-.236,1.045-.489Z" style="fill:#fff;"></path><path d="M149.445,418.909l-.018-.365c-.471-.045-.956,.078-1.348,.342-.166,.112-.319,.253-.401,.435-.082,.182-.08,.411,.043,.568,.118,.151,.327,.21,.517,.185,.19-.025,.363-.124,.514-.241,.308-.238,.55-.561,.692-.923Z" style="fill:#fff;"></path><path d="M149.896,411.416l-.018-.365c-.471-.045-.956,.078-1.348,.342-.166,.112-.319,.253-.401,.435-.082,.182-.08,.411,.043,.568,.118,.151,.327,.21,.517,.185,.19-.025,.363-.124,.514-.241,.308-.238,.55-.561,.692-.923Z" style="fill:#fff;"></path><path d="M152.018,427.457l-.018-.365c-.471-.045-.956,.078-1.348,.342-.166,.112-.319,.253-.401,.435s-.08,.411,.043,.568c.118,.151,.327,.21,.517,.185,.19-.025,.363-.124,.515-.241,.308-.238,.55-.561,.692-.923Z" style="fill:#fff;"></path><path d="M159.204,429.685l-.018-.365c-.471-.045-.956,.078-1.348,.342-.166,.111-.319,.253-.401,.435-.082,.182-.08,.411,.043,.568,.118,.151,.327,.21,.517,.185,.19-.025,.363-.124,.515-.241,.308-.238,.55-.561,.692-.923Z" style="fill:#fff;"></path><path d="M162.163,438.661l-.018-.365c-.471-.045-.956,.078-1.348,.342-.166,.111-.319,.253-.401,.435-.082,.182-.08,.411,.043,.568,.118,.151,.327,.21,.517,.185,.19-.025,.363-.124,.515-.241,.308-.238,.55-.561,.692-.923Z" style="fill:#fff;"></path><path d="M156.916,418.568l.051-.362c-.454-.133-.954-.102-1.388,.084-.184,.078-.361,.189-.475,.352-.114,.164-.155,.389-.064,.567,.088,.17,.282,.268,.474,.278,.191,.011,.38-.054,.551-.141,.347-.176,.645-.448,.852-.778Z" style="fill:#fff;"></path><path d="M162.93,423.16l.051-.362c-.454-.133-.954-.103-1.388,.084-.184,.078-.361,.189-.475,.352-.114,.164-.155,.389-.064,.566,.088,.17,.282,.268,.474,.278,.191,.011,.38-.054,.551-.141,.347-.176,.645-.448,.852-.778Z" style="fill:#fff;"></path><path d="M166.948,431.222l.051-.362c-.454-.132-.954-.102-1.388,.084-.184,.079-.361,.189-.475,.352-.114,.164-.155,.389-.064,.567,.088,.17,.282,.268,.474,.278,.191,.011,.38-.054,.551-.141,.347-.176,.645-.448,.852-.778Z" style="fill:#fff;"></path><path d="M158.081,410.548l.051-.362c-.454-.133-.954-.103-1.388,.084-.184,.079-.361,.189-.475,.352s-.155,.389-.064,.567c.088,.17,.282,.268,.474,.278,.191,.011,.38-.054,.551-.141,.347-.176,.645-.448,.852-.778Z" style="fill:#fff;"></path></g><g><path d="M226.626,414.929c-1.829,.029-3.635,.379-5.43,.728,2.418-1.533,4.46-3.653,5.901-6.127-3.453,.23-6.782,1.943-8.977,4.618,1.043-3.247,1.413-6.709,1.081-10.104-2.869,2.235-4.575,5.888-4.446,9.522-1.447-2.862-2.893-5.725-4.34-8.587-.167-.33-.382-.698-.746-.766-.476-.088-.855,.387-1.065,.824-1.189,2.475-.807,5.474,.357,7.961,1.164,2.487,3.028,4.567,4.865,6.608l3.315,.95c5.256,.875,10.878-.817,14.778-4.448-1.593-.899-3.463-1.209-5.292-1.18Z" style="fill:#263238;"></path><path d="M229.155,432.508c.269-3.132-1.031-6.279-3.125-8.624-2.094-2.345-5.643-4.611-9.975-4.62,.219,.186-6.551-6.336-12.224-5.519-4.826,.695-10.084,5.519-11.695,10.121-1.246,3.558-.945,7.478-.154,11.164,.791,3.685,2.053,7.263,2.711,10.975,.494,2.787,.856,6.003,3.19,7.605,1.22,.837,2.791,1.044,4.257,.842,1.466-.201,2.853-.776,4.197-1.397,5.009-2.311,9.675-5.312,14.102-8.603,2.041-1.517,4.051-3.114,5.668-5.077,1.617-1.963,2.829-4.333,3.047-6.867Z" style="fill:#407BFF;"></path><g style="opacity:.3;"><path d="M229.155,432.508c.269-3.132-1.031-6.279-3.125-8.624-2.094-2.345-5.643-4.611-9.975-4.62,.219,.186-6.551-6.336-12.224-5.519-4.826,.695-10.084,5.519-11.695,10.121-1.246,3.558-.945,7.478-.154,11.164,.791,3.685,2.053,7.263,2.711,10.975,.494,2.787,.856,6.003,3.19,7.605,1.22,.837,2.791,1.044,4.257,.842,1.466-.201,2.853-.776,4.197-1.397,5.009-2.311,9.675-5.312,14.102-8.603,2.041-1.517,4.051-3.114,5.668-5.077,1.617-1.963,2.829-4.333,3.047-6.867Z"></path></g><g style="opacity:.1;"><path d="M205.563,452.617c-1.024,.468-2.243,.917-3.227,.371-.675-.375-2.063-3.049-2.351-3.766-3.119-7.771-1.728-16.565,.227-24.707,.527-2.197,1.102-4.409,2.167-6.4,.943-1.763,2.318-3.357,4.075-4.283-.881-.164-1.764-.21-2.623-.087-4.826,.695-10.084,5.519-11.695,10.121-1.246,3.558-.945,7.478-.154,11.164,.791,3.685,2.053,7.263,2.711,10.975,.494,2.787,.856,6.003,3.19,7.605,1.22,.837,2.791,1.044,4.257,.842,1.466-.201,2.853-.776,4.197-1.397,5.009-2.311,9.675-5.312,14.102-8.603,2.041-1.517,4.051-3.114,5.668-5.077,.222-.269,.435-.547,.64-.83-4.147,4.235-13.505,10.566-21.184,14.073Z" style="fill:#fff;"></path></g><path d="M207.298,441.428l-.248-.269c-.39,.267-.684,.672-.816,1.126-.056,.192-.083,.398-.029,.591,.054,.192,.202,.367,.397,.409,.187,.04,.386-.048,.516-.19,.129-.141,.199-.328,.241-.515,.084-.38,.063-.783-.06-1.152Z" style="fill:#fff;"></path><path d="M203.058,449.036l-.248-.269c-.391,.267-.684,.672-.816,1.126-.056,.192-.083,.398-.029,.591,.054,.192,.202,.367,.397,.409,.187,.04,.386-.049,.516-.19,.13-.141,.199-.328,.241-.515,.084-.38,.063-.783-.06-1.152Z" style="fill:#fff;"></path><path d="M198.655,442.647l-.248-.269c-.39,.267-.684,.672-.816,1.126-.056,.192-.083,.398-.029,.591,.054,.192,.202,.367,.397,.409,.187,.04,.386-.048,.516-.19,.13-.141,.199-.328,.241-.515,.084-.38,.063-.783-.06-1.152Z" style="fill:#fff;"></path><path d="M202.508,435.9l-.248-.269c-.39,.267-.684,.672-.816,1.126-.056,.192-.083,.398-.029,.591,.054,.192,.202,.367,.397,.409,.187,.04,.386-.048,.515-.19,.13-.141,.199-.328,.241-.515,.084-.38,.063-.783-.06-1.152Z" style="fill:#fff;"></path><path d="M195.754,432.255l-.248-.269c-.39,.267-.684,.672-.816,1.126-.056,.192-.083,.398-.029,.591,.054,.192,.202,.367,.397,.409,.187,.04,.386-.048,.515-.19,.13-.141,.199-.328,.241-.515,.084-.38,.063-.783-.06-1.152Z" style="fill:#fff;"></path><path d="M215.523,437.899l-.248-.269c-.39,.267-.684,.672-.816,1.126-.056,.192-.083,.398-.029,.591,.054,.192,.202,.367,.397,.409,.187,.04,.386-.048,.515-.19,.13-.141,.199-.328,.241-.515,.084-.38,.063-.783-.06-1.152Z" style="fill:#fff;"></path><path d="M220.368,441.206l-.248-.269c-.39,.267-.684,.672-.816,1.126-.056,.192-.083,.398-.029,.591,.054,.192,.202,.367,.397,.409,.187,.04,.386-.048,.516-.19,.129-.141,.199-.328,.241-.515,.084-.38,.063-.783-.06-1.152Z" style="fill:#fff;"></path><path d="M213.029,445.87l-.092-.354c-.47,.051-.92,.271-1.25,.609-.139,.143-.261,.312-.304,.507-.043,.195,.005,.419,.158,.548,.146,.124,.363,.139,.544,.076,.181-.064,.33-.195,.455-.341,.253-.296,.424-.661,.489-1.045Z" style="fill:#fff;"></path><path d="M202.185,428.342l-.248-.269c-.39,.267-.684,.672-.816,1.126-.056,.192-.083,.398-.029,.591,.054,.192,.202,.367,.397,.409,.187,.04,.386-.048,.516-.19,.129-.141,.199-.328,.241-.515,.084-.38,.063-.783-.06-1.152Z" style="fill:#fff;"></path><path d="M197.732,422.299l-.248-.269c-.39,.267-.684,.672-.816,1.126-.056,.192-.083,.398-.029,.591,.054,.192,.202,.367,.397,.409,.187,.04,.386-.048,.515-.19,.13-.141,.199-.328,.241-.515,.084-.38,.063-.783-.06-1.152Z" style="fill:#fff;"></path><path d="M209.636,433.258l-.248-.269c-.39,.267-.684,.672-.816,1.126-.056,.192-.083,.398-.029,.591,.054,.192,.202,.367,.397,.409,.187,.04,.386-.048,.516-.19s.199-.328,.241-.515c.084-.38,.063-.783-.06-1.152Z" style="fill:#fff;"></path><path d="M216.582,430.366l-.248-.269c-.39,.267-.684,.672-.816,1.126-.056,.192-.083,.398-.029,.591,.054,.192,.202,.367,.397,.409,.187,.04,.386-.048,.515-.19,.13-.141,.199-.328,.241-.515,.084-.38,.063-.783-.06-1.152Z" style="fill:#fff;"></path><path d="M224.604,435.363l-.248-.269c-.39,.267-.684,.672-.816,1.126-.056,.192-.083,.398-.029,.591,.054,.192,.202,.367,.397,.409,.187,.04,.386-.048,.516-.19,.129-.141,.199-.328,.241-.515,.084-.38,.063-.783-.06-1.152Z" style="fill:#fff;"></path><path d="M207.704,423.295l-.193-.311c-.433,.189-.798,.532-1.013,.953-.091,.178-.156,.376-.139,.575s.13,.398,.314,.476c.177,.075,.388,.025,.542-.09,.154-.115,.257-.285,.333-.461,.154-.358,.209-.757,.156-1.143Z" style="fill:#fff;"></path><path d="M215.264,422.969l-.193-.311c-.433,.189-.798,.532-1.013,.954-.091,.178-.156,.376-.139,.575,.017,.199,.13,.398,.314,.476,.176,.075,.388,.025,.542-.09,.154-.114,.257-.285,.333-.461,.154-.358,.209-.757,.156-1.143Z" style="fill:#fff;"></path><path d="M223.514,426.586l-.193-.311c-.434,.189-.798,.532-1.013,.953-.091,.178-.156,.376-.139,.575s.13,.398,.314,.476c.177,.075,.388,.025,.542-.09,.154-.114,.257-.285,.333-.461,.154-.358,.209-.757,.156-1.143Z" style="fill:#fff;"></path><path d="M203.462,416.39l-.193-.311c-.434,.189-.798,.532-1.013,.954-.091,.178-.156,.376-.139,.575,.017,.199,.13,.398,.314,.476,.177,.074,.388,.025,.542-.09,.154-.114,.257-.285,.333-.461,.154-.358,.209-.757,.156-1.143Z" style="fill:#fff;"></path></g></g><g id="freepik--Apple--inject-24"><g><path d="M250.835,399.878s18.258-1.113,18.845-1.113,58.928-3.132,60.103-3.425c1.175-.293,20.137,11.968,20.137,11.968,0,0,.626,7.55-5.381,15.587-6.007,8.037-3.163,15.034-15.178,22.178-12.015,7.144-36.249,6.76-51.731,.766-13.421-5.195-23.04-11.868-27.617-30.306-1.779-7.166,.822-15.654,.822-15.654Z" style="fill:#407BFF;"></path><path d="M330.094,413.324l19.84-5.039c-.052,2.291-.679,8.299-5.395,14.609-5.862,7.842-3.564,14.401-13.711,21.247,3.486-2.793,6.801-10.403,6.853-16.444,.077-8.889-7.587-14.373-7.587-14.373Z" style="opacity:.4;"></path><path d="M278.643,378.849c-.127,.162-3.558,4.002-4.105,11.849,0,0,9.604,5.912,9.682,5.677,.078-.235,5.861-3.438,5.861-3.438,0,0-2.032-5.939-2.813-6.564-.781-.625-8.624-7.524-8.624-7.524Z" style="fill:#407BFF;"></path><path d="M284.848,393.196s-24.287-21.958,16.635-16.801c40.921,5.157,59.885,32.937,41.254,35.931l-12.642,.998s11.312,13.807-4.658,17.466c-15.969,3.66-41.088,1.497-56.89-9.149-15.803-10.646-23.122-21.459-13.308-28.445,9.815-6.987,29.61,0,29.61,0Z" style="fill:#407BFF;"></path><path d="M284.848,393.196s-24.287-21.958,16.635-16.801c40.921,5.157,59.885,32.937,41.254,35.931l-12.642,.998s11.312,13.807-4.658,17.466c-15.969,3.66-41.088,1.497-56.89-9.149-15.803-10.646-23.122-21.459-13.308-28.445,9.815-6.987,29.61,0,29.61,0Z" style="fill:#fff; opacity:.4;"></path><path d="M287.786,394.223s-23.134-20.335,14.355-15.772c37.489,4.564,54.043,27.944,36.975,30.594l-11.987,2.093c-2.296,.154-3.457,2.798-2.058,4.626,2.906,3.798,4.915,9.079-4.041,11.062-14.63,3.239-37.642,1.325-52.119-8.097-14.478-9.422-19.406-17.212-10.415-23.395,7.397-5.087,22.252-1.057,27.356,0,1.1,.228,1.934-1.111,1.934-1.111Z" style="fill:#fff; opacity:.4;"></path><g style="opacity:.4;"><path d="M300.226,396.324c.309-.66,1.143-.855,1.869-.921,4.038-.367,8.2,.87,11.383,3.383,.889,.702,1.723,1.526,2.174,2.565,.451,1.039,.455,2.328-.225,3.233-.66,.879-1.837,1.242-2.935,1.192s-2.145-.451-3.17-.848l-.292-.032c-2.528-2.032-5.057-4.064-7.585-6.096-.776-.624-1.639-1.574-1.217-2.476Z"></path></g><g style="opacity:.4;"><path d="M292.838,402.809c.149-1.161,1.007-2.279,2.164-2.452,3.257,.203,6.588,2.973,8.999,5.471,.712,.738,1.431,1.689,1.206,2.69-.251,1.113-1.53,1.646-2.663,1.786-3.4,.42-6.972-1.276-8.796-4.176-.623-.991-1.059-2.158-.91-3.319Z"></path></g><path d="M282.048,390.266s-5.251-3.034-10.565-4.91c-5.314-1.876-3.673-3.516-5.236-2.501-1.563,1.016-2.969,4.298-1.25,5.314,1.719,1.016,0-.625,3.595-.156,3.595,.469,12.834,4.152,12.834,4.152l3.132,.931-2.51-2.831Z" style="fill:#263238;"></path><path d="M296.448,403.297c-.381-.87,.568-1.734,1.414-1.302,1.617,.826,3.327,1.744,4.549,2.86,.614,.56,1.254,1.347,.983,2.133-.277,.805-1.326,1.02-2.171,.918-1.574-.19-2.53-1.263-3.483-2.531-.487-.648-.97-1.343-1.292-2.077Z"></path><path d="M304.318,398.662c-.949-.029-1.396,1.175-.679,1.798,1.37,1.191,2.861,2.435,4.352,3.151,.749,.36,1.718,.66,2.346,.115,.643-.558,.451-1.611,.04-2.357-.765-1.389-2.117-1.875-3.649-2.285-.784-.21-1.609-.398-2.409-.423Z"></path></g></g></svg>
